<svg width="144" height="37" viewBox="0 0 144 37" fill="none" xmlns="http://www.w3.org/2000/svg">
<path fill-rule="evenodd" clip-rule="evenodd" d="M34.1008 36.5283H5.30557C5.30557 36.5283 0.0115433 36.5282 0.0115433 31.3892V11.4532C0.0115433 11.4532 -0.34616 9.7958 2.92087 8.23383C6.18791 6.67185 17.5868 0.519334 17.5868 0.519334C17.5868 0.519334 19.6376 -0.649167 21.8911 0.519334L34.995 8.61538L31.5611 11.8824C31.5611 11.8824 30.2256 12.884 27.4236 11.4889L21.2353 7.92382L10.3969 14.6248L10.3134 25.809C10.3134 25.809 10.2657 27.8957 12.4 27.8957H31.0841C31.0841 27.8957 34.0769 27.9314 34.0769 31.4727V36.5283H34.1008Z" fill="white"/>
<path fill-rule="evenodd" clip-rule="evenodd" d="M33.1941 19.4419C33.1941 19.4419 29.5694 19.8115 27.757 20.0977C25.9446 20.3719 23.5957 20.1811 23.5957 20.1811C23.5957 20.1811 24.0846 27.7287 28.5797 27.5737C32.8126 27.4187 33.4326 21.612 33.1941 19.4419Z" fill="#FFE100"/>
<path fill-rule="evenodd" clip-rule="evenodd" d="M23.9179 13.4443C23.9179 13.4443 23.5602 14.4459 23.1787 15.0421C22.7971 15.6383 22.2129 16.616 22.2129 16.616C22.2129 16.616 22.4394 14.8513 23.9179 13.4443Z" fill="white"/>
<path fill-rule="evenodd" clip-rule="evenodd" d="M22.0579 17.4035C21.9983 17.3558 21.6406 20.0505 21.7837 20.7182C21.8433 21.3263 22.2845 24.1283 22.9522 25.0941C22.9522 25.0941 21.9864 23.5321 21.7121 21.9105C21.7121 21.9105 21.271 21.839 21.3068 21.1594C21.3425 20.4916 21.4975 20.3128 21.4975 20.3128C21.2471 20.3128 21.6645 17.8923 22.0579 17.4035Z" fill="white"/>
<path fill-rule="evenodd" clip-rule="evenodd" d="M33.1816 16.103C33.1816 16.103 34.4336 18.2135 34.3501 20.3955C34.2667 22.5775 33.444 24.2945 33.444 24.2945C33.444 24.2945 33.9805 22.3271 33.9209 21.9098C33.8613 21.4805 33.587 20.8843 33.7897 20.2643C34.2428 19.692 34.0878 18.6785 33.1816 16.103Z" fill="white"/>
<path fill-rule="evenodd" clip-rule="evenodd" d="M31.084 13.4443C31.084 13.4443 31.7279 13.9928 32.0021 14.3624C32.2883 14.7321 32.5625 15.1375 32.5625 15.1375C32.5625 15.1375 32.0379 14.4936 31.8829 14.434C31.7159 14.3744 31.9186 14.6844 31.9186 14.6844L31.3701 14.1001C31.3701 14.1121 31.5013 13.969 31.084 13.4443Z" fill="white"/>
<path fill-rule="evenodd" clip-rule="evenodd" d="M23.3337 17.5342C23.3337 17.5342 23.131 18.7265 23.0952 19.275C23.0594 19.8235 23.1191 21.0635 23.1191 21.0635C23.1191 21.0635 22.4513 20.205 23.3337 17.5342Z" fill="white"/>
<path fill-rule="evenodd" clip-rule="evenodd" d="M21.057 20.6102C21.2955 25.4392 24.3956 29.207 27.9846 29.0282C31.5735 28.8493 34.4829 28.7063 34.0417 19.9663C33.6005 11.2145 30.7031 11.3695 27.1141 11.5484C23.5252 11.7153 20.8066 15.7812 21.057 20.6102Z" fill="#FEC200"/>
<path fill-rule="evenodd" clip-rule="evenodd" d="M22.2728 20.5384C22.5113 25.3674 25.7426 29.1353 29.4746 28.9445C33.2067 28.7537 36.0325 24.6878 35.7941 19.8588C35.5556 15.0298 32.3363 11.262 28.6042 11.4527C24.8602 11.6435 22.0344 15.7213 22.2728 20.5384Z" fill="#FFE069"/>
<path fill-rule="evenodd" clip-rule="evenodd" d="M22.7972 20.5149C23.0357 25.3439 26.1358 29.1118 29.7367 28.9329C33.3257 28.7541 36.0323 24.6882 35.7938 19.8591C35.5554 15.0301 32.4553 11.2623 28.8663 11.4412C25.2654 11.6319 22.5469 15.6859 22.7972 20.5149Z" fill="#FFE587"/>
<path fill-rule="evenodd" clip-rule="evenodd" d="M23.7157 20.4668C23.9303 24.795 26.6489 28.1694 29.7847 28.0144C32.9206 27.8594 35.2815 24.2227 35.0669 19.8945C34.8522 15.5663 32.1337 12.1919 28.9978 12.3469C25.8619 12.5139 23.5011 16.1505 23.7157 20.4668Z" fill="#FEC200"/>
<path fill-rule="evenodd" clip-rule="evenodd" d="M23.7152 20.4676C23.9299 24.7004 26.5411 28.0032 29.5458 27.8482C32.5505 27.7051 34.8279 24.1519 34.6133 19.9191C34.3987 15.6862 31.7874 12.3834 28.7827 12.5384C25.7661 12.6934 23.5006 16.2466 23.7152 20.4676Z" fill="#FEC200"/>
<path fill-rule="evenodd" clip-rule="evenodd" d="M24.2159 20.4556C24.4305 24.6884 26.9225 27.9912 29.7961 27.8481C32.6696 27.705 34.8159 24.1638 34.6132 19.9309C34.3985 15.6981 31.9065 12.3834 29.033 12.5264C26.1594 12.6695 24.0013 16.2227 24.2159 20.4556Z" fill="#FFF1C2"/>
<path fill-rule="evenodd" clip-rule="evenodd" d="M24.2041 20.4081C24.4068 24.4859 26.8153 27.6814 29.5697 27.5384C32.3359 27.3953 34.4106 23.9852 34.2079 19.9073C34.0052 15.8295 31.5967 12.634 28.8423 12.7771C26.0761 12.9202 24.0014 16.3303 24.2041 20.4081Z" fill="#FEC200"/>
<path fill-rule="evenodd" clip-rule="evenodd" d="M34.1722 19.394C34.1722 19.394 30.5475 19.7637 28.747 20.0498C26.9466 20.336 24.5977 20.1333 24.5977 20.1333C24.5977 20.1333 25.0746 27.6809 29.5817 27.5259C33.7907 27.3709 34.3988 21.5641 34.1722 19.394Z" fill="#FFE587"/>
<path fill-rule="evenodd" clip-rule="evenodd" d="M24.6695 13.8379C24.6695 13.8379 24.4191 14.5533 24.1449 14.9945C23.8707 15.4237 23.4414 16.1153 23.4414 16.1153C23.4414 16.1153 23.6083 14.8514 24.6695 13.8379Z" fill="white"/>
<path fill-rule="evenodd" clip-rule="evenodd" d="M22.8928 18.5239C22.9524 18.5239 22.714 20.0621 22.7855 20.6702C22.8571 21.2782 23.2863 24.0803 23.954 25.0341C23.954 25.0341 22.9882 23.4841 22.714 21.8625C22.714 21.8625 22.2847 21.779 22.3086 21.1113C22.3443 20.4436 22.4994 20.2767 22.4994 20.2767C22.4994 20.2767 22.6663 19.0009 22.8928 18.5239Z" fill="white"/>
<path fill-rule="evenodd" clip-rule="evenodd" d="M34.3154 16.3657C34.3154 16.3657 35.162 18.3092 35.0785 20.3005C34.9951 22.2917 34.6135 23.806 34.6135 23.806C34.6135 23.806 34.8043 22.089 34.7566 21.7074C34.697 21.3259 34.5658 20.7059 34.7447 20.1335C34.9474 19.5731 34.8997 18.6431 34.3154 16.3657Z" fill="white"/>
<path fill-rule="evenodd" clip-rule="evenodd" d="M22.4276 20.8727C22.3799 21.0158 21.9984 21.1231 21.7241 21.0635C21.4499 21.0038 21.0683 20.9561 21.0683 20.8369C21.0683 20.8369 21.0445 21.1827 21.0803 21.3615C21.116 21.5404 21.1995 21.9816 21.1995 21.9816C21.1995 21.9816 20.9372 21.5523 21.4499 21.5404C21.9626 21.5404 22.4276 21.6835 22.4276 21.6835V20.8727Z" fill="#FEC200"/>
<path fill-rule="evenodd" clip-rule="evenodd" d="M32.4788 14.0286C32.0614 13.4085 32.7053 13.957 32.9796 14.3266C33.2657 14.6963 33.5519 15.1017 33.5519 15.1017C33.5519 15.1017 33.0273 14.4578 32.8603 14.3982C32.6934 14.3386 32.8961 14.6486 32.4788 14.0286Z" fill="white"/>
<path fill-rule="evenodd" clip-rule="evenodd" d="M24.3229 17.4746C24.3229 17.4746 24.1202 18.667 24.0845 19.2154C24.0487 19.7639 24.1083 21.004 24.1083 21.004C24.1083 21.004 23.4406 20.1574 24.3229 17.4746Z" fill="white"/>
<path fill-rule="evenodd" clip-rule="evenodd" d="M22.3673 20.5983C22.3316 20.7414 21.9381 20.8487 21.6639 20.789C21.3896 20.7294 20.9961 20.6698 20.9961 20.5625C20.9961 20.5625 20.9842 20.9083 21.0081 21.0871C21.0319 21.266 21.1154 21.7072 21.1154 21.7072C21.1154 21.7072 20.865 21.2779 21.3777 21.266C21.8904 21.2541 22.3554 21.4091 22.3554 21.4091V20.5983H22.3673Z" fill="#FEC200"/>
<path fill-rule="evenodd" clip-rule="evenodd" d="M52.7364 11.0479H58.2927V29.6127H54.7037V17.0573C54.7037 16.6996 54.7037 16.1869 54.7157 15.543C54.7276 14.8991 54.7276 14.3983 54.7276 14.0406L51.1863 29.6246H47.3946L43.8891 14.0406C43.8891 14.3983 43.8891 14.8991 43.9011 15.543C43.913 16.1988 43.913 16.6996 43.913 17.0573V29.6246H40.3359V11.0479H45.9519L49.3501 25.6541L52.7364 11.0479Z" fill="white"/>
<path fill-rule="evenodd" clip-rule="evenodd" d="M67.0443 21.2782C67.712 21.1947 68.189 21.0874 68.4751 20.9562C68.9878 20.7416 69.2502 20.4078 69.2502 19.9308C69.2502 19.3704 69.0594 18.9769 68.654 18.7623C68.2605 18.5477 67.6763 18.4404 66.9132 18.4404C66.0547 18.4404 65.4466 18.655 65.0889 19.0723C64.8385 19.3823 64.6596 19.7997 64.5761 20.3362H61.1064C61.178 19.1319 61.5118 18.1423 62.1199 17.3673C63.0738 16.1511 64.7073 15.543 67.0205 15.543C68.5347 15.543 69.8702 15.8411 71.0506 16.4372C72.231 17.0334 72.8033 18.1542 72.8033 19.8116V26.1072C72.8033 26.5483 72.8153 27.073 72.8272 27.693C72.851 28.158 72.9226 28.4799 73.0418 28.6469C73.1611 28.8138 73.328 28.9569 73.5664 29.0642V29.6008H69.6555C69.5482 29.3265 69.4767 29.0642 69.429 28.8257C69.3813 28.5873 69.3575 28.3011 69.3217 27.9911C68.8209 28.5276 68.2486 28.9927 67.6047 29.3742C66.8297 29.8154 65.9473 30.0419 64.9696 30.0419C63.7177 30.0419 62.6922 29.6842 61.8814 28.9807C61.0706 28.2653 60.6533 27.2637 60.6533 25.9641C60.6533 24.271 61.3091 23.0428 62.6207 22.2917C63.3361 21.8863 64.3973 21.5882 65.7923 21.4093L67.0443 21.2782ZM69.2502 22.9475C69.0117 23.0905 68.7851 23.2098 68.5467 23.2932C68.3201 23.3767 67.9982 23.4602 67.5809 23.5436L66.7701 23.6867C66.007 23.8179 65.4466 23.9848 65.1127 24.1756C64.5404 24.5094 64.2542 25.0102 64.2542 25.7018C64.2542 26.3218 64.4331 26.763 64.7669 27.0253C65.1127 27.2995 65.53 27.4307 66.0308 27.4307C66.8178 27.4307 67.5451 27.2041 68.2009 26.751C68.8567 26.2979 69.2025 25.4752 69.2382 24.271V22.9475H69.2502Z" fill="white"/>
<path fill-rule="evenodd" clip-rule="evenodd" d="M74.582 29.6246L79.268 22.6613L74.7847 15.9126H79.1845L81.4619 19.8831L83.7035 15.9126H87.9721L83.4769 22.6017L88.1629 29.6246H83.6916L81.3307 25.4991L78.946 29.6246H74.582Z" fill="white"/>
<path fill-rule="evenodd" clip-rule="evenodd" d="M93.9804 14.2437H90.3438V10.9409H93.9804V14.2437ZM90.3438 15.8892H93.9804V29.625H90.3438V15.8892Z" fill="white"/>
<path d="M99.7996 11.1196H97.5342V29.6249H99.7996V11.1196Z" fill="white"/>
<path fill-rule="evenodd" clip-rule="evenodd" d="M110.411 21.4571C110.936 21.3975 111.282 21.1709 111.461 20.8013C111.568 20.5986 111.616 20.3125 111.616 19.9309C111.616 19.1559 111.341 18.5955 110.793 18.2378C110.244 17.892 109.457 17.7131 108.444 17.7131C107.263 17.7131 106.429 18.0351 105.94 18.6789C105.666 19.0366 105.487 19.5613 105.403 20.2528H103.281C103.329 18.5835 103.865 17.427 104.891 16.7712C105.928 16.1154 107.132 15.7935 108.492 15.7935C110.077 15.7935 111.365 16.0915 112.355 16.6996C113.333 17.3077 113.821 18.2497 113.821 19.5255V27.3115C113.821 27.55 113.869 27.7408 113.964 27.8839C114.06 28.0269 114.263 28.0985 114.573 28.0985C114.68 28.0985 114.787 28.0985 114.918 28.0746C115.038 28.0627 115.181 28.0508 115.324 28.015V29.6843C114.978 29.7916 114.704 29.8512 114.513 29.8751C114.322 29.8989 114.072 29.9228 113.762 29.9228C112.975 29.9228 112.414 29.6485 112.057 29.0881C111.878 28.7901 111.747 28.3847 111.663 27.8362C111.198 28.4443 110.542 28.9689 109.672 29.4101C108.802 29.8632 107.86 30.0778 106.81 30.0778C105.558 30.0778 104.533 29.6962 103.746 28.9331C102.959 28.17 102.554 27.2281 102.554 26.0834C102.554 24.8315 102.947 23.8657 103.722 23.1741C104.509 22.4825 105.535 22.0652 106.798 21.8983L110.411 21.4571ZM105.618 27.5739C106.095 27.9554 106.667 28.1343 107.323 28.1343C108.122 28.1343 108.897 27.9554 109.648 27.5858C110.912 26.9777 111.544 25.9761 111.544 24.5811V22.7568C111.27 22.9356 110.912 23.0906 110.471 23.2099C110.042 23.3291 109.612 23.4126 109.195 23.4603L107.824 23.6272C107.001 23.7345 106.381 23.9014 105.964 24.1399C105.248 24.5334 104.891 25.1653 104.891 26.0238C104.903 26.6915 105.141 27.2042 105.618 27.5739Z" fill="white"/>
<path fill-rule="evenodd" clip-rule="evenodd" d="M117.542 16.1155H119.688V18.0472C120.332 17.2602 120.999 16.6879 121.715 16.354C122.43 16.0082 123.229 15.8413 124.1 15.8413C126.007 15.8413 127.307 16.509 127.987 17.8445C128.356 18.5718 128.535 19.621 128.535 20.9803V29.6249H126.222V21.1234C126.222 20.3007 126.091 19.633 125.852 19.1322C125.447 18.2975 124.72 17.8802 123.658 17.8802C123.122 17.8802 122.681 17.9279 122.335 18.0472C121.715 18.2379 121.166 18.5956 120.689 19.156C120.308 19.5972 120.069 20.0622 119.95 20.5392C119.843 21.0161 119.771 21.6838 119.771 22.5662V29.6368H117.506V16.1155H117.542Z" fill="white"/>
<path fill-rule="evenodd" clip-rule="evenodd" d="M139.099 21.4571C139.624 21.3975 139.97 21.1709 140.148 20.8013C140.256 20.5986 140.303 20.3125 140.303 19.9309C140.303 19.1559 140.029 18.5955 139.481 18.2378C138.932 17.892 138.145 17.7131 137.132 17.7131C135.951 17.7131 135.117 18.0351 134.628 18.6789C134.354 19.0366 134.175 19.5613 134.091 20.2528H131.957C131.993 18.5835 132.541 17.427 133.567 16.7712C134.604 16.1154 135.808 15.7935 137.168 15.7935C138.753 15.7935 140.041 16.0915 141.019 16.6996C141.997 17.3077 142.485 18.2497 142.485 19.5255V27.3115C142.485 27.55 142.533 27.7408 142.629 27.8839C142.724 28.0269 142.927 28.0985 143.249 28.0985C143.356 28.0985 143.463 28.0985 143.594 28.0746C143.726 28.0627 143.857 28.0508 144 28.015V29.6843C143.642 29.7916 143.38 29.8512 143.189 29.8751C142.998 29.8989 142.748 29.9228 142.426 29.9228C141.639 29.9228 141.078 29.6485 140.721 29.0881C140.53 28.7901 140.399 28.3847 140.327 27.8362C139.862 28.4443 139.195 28.9689 138.336 29.4101C137.478 29.8632 136.524 30.0778 135.474 30.0778C134.222 30.0778 133.197 29.6962 132.41 28.9331C131.611 28.17 131.218 27.2281 131.218 26.0834C131.218 24.8315 131.611 23.8657 132.386 23.1741C133.161 22.4825 134.187 22.0652 135.463 21.8983L139.099 21.4571ZM134.318 27.5739C134.795 27.9554 135.367 28.1343 136.023 28.1343C136.822 28.1343 137.597 27.9554 138.336 27.5858C139.6 26.9777 140.232 25.9761 140.232 24.5811V22.7568C139.958 22.9356 139.6 23.0906 139.171 23.2099C138.741 23.3291 138.312 23.4126 137.895 23.4603L136.524 23.6272C135.713 23.7345 135.093 23.9014 134.664 24.1399C133.948 24.5334 133.602 25.1653 133.602 26.0238C133.602 26.6915 133.841 27.2042 134.318 27.5739Z" fill="white"/>
</svg>
