<svg width="70" height="17" viewBox="0 0 70 17" fill="none" xmlns="http://www.w3.org/2000/svg">
<g opacity="0.8">
<g clip-path="url(#clip0)">
<path d="M0 0.5V16.5H15.8555V0.5H0ZM13.0516 10.4809L11.5443 11.9825C11.5003 12.026 11.4533 12.0576 11.4034 12.0761C11.3532 12.0942 11.3031 12.11 11.2534 12.1223C11.2097 12.1093 11.1627 12.0952 11.113 12.0791C11.0631 12.0629 11.0136 12.0356 10.9638 11.9978L7.91357 8.86547L4.80442 11.9575C4.69767 12.0387 4.60059 12.0791 4.51353 12.0784C4.39456 12.0778 4.28578 12.0264 4.18666 11.9252L2.69895 10.3659C2.61206 10.2903 2.56895 10.2013 2.56929 10.1009C2.57014 9.99371 2.61427 9.8961 2.70252 9.80876L7.59909 4.93046C7.69328 4.83661 7.79426 4.75954 7.92121 4.76057C8.04934 4.76194 8.13284 4.81332 8.23518 4.93525L13.0744 9.88616C13.1426 9.95604 13.1764 10.0506 13.1755 10.1701C13.1744 10.2956 13.1331 10.3993 13.0516 10.4809Z" fill="white"/>
</g>
<path d="M69.1092 13.2182L67.7046 11.1793C67.6393 11.0913 67.5734 11.0413 67.5076 11.03C67.4417 11.0194 67.3599 11.0444 67.261 11.105C66.9928 11.3093 66.6947 11.4681 66.3661 11.5816C66.0374 11.6946 65.6927 11.751 65.331 11.751C64.8821 11.751 64.4689 11.6654 64.0914 11.4948C63.7133 11.3233 63.3876 11.0898 63.114 10.7942C62.84 10.4986 62.6266 10.153 62.4735 9.75805C62.3203 9.3633 62.2436 8.93926 62.2436 8.48611C62.2436 8.03296 62.3203 7.60756 62.4735 7.2099C62.6266 6.81223 62.8401 6.46406 63.114 6.16573C63.3876 5.8674 63.7133 5.6326 64.0914 5.46134C64.4689 5.29043 64.8821 5.20445 65.331 5.20445C65.6925 5.20445 66.0346 5.25978 66.3579 5.37041C66.6806 5.48104 66.9764 5.63826 67.2447 5.84274C67.3433 5.90354 67.4266 5.92666 67.4952 5.91296C67.5638 5.89908 67.6283 5.84531 67.6883 5.7518L69.0759 3.7628C69.136 3.64138 69.1443 3.53623 69.1003 3.44769C69.0569 3.35932 68.9882 3.28739 68.8955 3.23207C68.3808 2.88425 67.8317 2.61777 67.2488 2.43264C66.6655 2.24768 66.0457 2.15503 65.3885 2.15503C64.8085 2.15503 64.2513 2.2309 63.7175 2.38263C63.1836 2.53488 62.6842 2.74775 62.2188 3.02108C61.7533 3.29475 61.3303 3.62443 60.9499 4.01113C60.5694 4.398 60.2421 4.82769 59.9686 5.29985C59.9183 5.38668 59.8723 5.47607 59.8262 5.56496C59.7804 5.47607 59.7349 5.38668 59.685 5.29985C59.4138 4.82752 59.0864 4.39783 58.7028 4.01113C58.3195 3.62443 57.8948 3.29458 57.4295 3.02108C56.9636 2.74775 56.4621 2.53488 55.9253 2.38263C55.3883 2.2309 54.8325 2.15503 54.2574 2.15503C53.6764 2.15503 53.1189 2.2309 52.585 2.38263C52.0508 2.53488 51.5509 2.74775 51.0853 3.02108C50.6197 3.29475 50.1968 3.62443 49.8161 4.01113C49.4348 4.398 49.1078 4.82769 48.8337 5.29985C48.8277 5.30995 48.8228 5.32091 48.8169 5.33136V2.68542C48.8169 2.56382 48.7761 2.47528 48.694 2.41979C48.6122 2.36499 48.5166 2.33725 48.4075 2.33725H46.0073C45.8978 2.33725 45.8094 2.37321 45.7411 2.44531C45.6728 2.51724 45.6388 2.60287 45.6388 2.70254V6.63806H41.5572V2.70254C41.5572 2.59756 41.5136 2.51039 41.426 2.44137C41.3383 2.37218 41.2534 2.33742 41.1714 2.33742H38.7325C38.6285 2.33742 38.545 2.37458 38.4823 2.44942C38.419 2.52375 38.3851 2.60835 38.3795 2.70203V5.49628C38.3533 5.44918 38.3292 5.40038 38.3014 5.35379C38.0304 4.89516 37.7033 4.48106 37.3201 4.11063C36.9371 3.74054 36.514 3.42268 36.0515 3.15775C35.5889 2.89264 35.0904 2.6885 34.5567 2.54447C34.0228 2.40096 33.4687 2.32903 32.8938 2.32903H28.8451C28.7192 2.32903 28.625 2.36516 28.5621 2.43692C28.4988 2.50885 28.4672 2.6027 28.4672 2.71864V10.4873L25.6097 3.0502L25.4047 2.5777C25.3718 2.53334 25.3226 2.48213 25.2567 2.42425C25.1912 2.36636 25.1118 2.33725 25.0183 2.33725H22.916C22.8722 2.33725 22.8257 2.34701 22.7764 2.36636C22.7271 2.38571 22.6806 2.41192 22.637 2.44497C22.5931 2.47802 22.5561 2.51416 22.5262 2.55269C22.4958 2.59174 22.4782 2.62719 22.4727 2.66041L18.0135 14.312C17.9696 14.4224 17.982 14.5053 18.0505 14.5608C18.1189 14.6158 18.2051 14.6435 18.3092 14.6435H20.7318C20.9399 14.6435 21.0794 14.5413 21.1507 14.3366C21.2547 14.0548 21.3601 13.7746 21.4667 13.4954C21.5738 13.2164 21.6788 12.9363 21.7829 12.6544H26.1435C26.2475 12.9363 26.3515 13.2164 26.4557 13.4954C26.5594 13.7746 26.666 14.0548 26.7757 14.3366C26.8142 14.4473 26.8676 14.5257 26.9362 14.573C27.0043 14.6197 27.1019 14.6435 27.2274 14.6435H28.8451H29.5842H32.8938C33.4687 14.6435 34.0241 14.573 34.5608 14.432C35.0976 14.2909 35.597 14.0911 36.0595 13.8311C36.5225 13.5713 36.9439 13.2567 37.3245 12.8864C37.705 12.5162 38.0319 12.1033 38.3057 11.6477C38.3318 11.6042 38.3547 11.5587 38.3797 11.5145V14.3204C38.3853 14.536 38.503 14.6437 38.7328 14.6437H41.1472C41.2734 14.6437 41.3734 14.6117 41.4471 14.5481C41.5212 14.4846 41.5577 14.3947 41.5577 14.2786V9.57172H45.6393V14.2784C45.6393 14.4002 45.6733 14.4911 45.7417 14.5523C45.8099 14.6131 45.8985 14.6435 46.0078 14.6435H48.4325C48.5469 14.6435 48.6397 14.6131 48.711 14.5523C48.7816 14.4913 48.8172 14.4002 48.8172 14.2784V11.6662C48.8231 11.6767 48.8281 11.6869 48.834 11.6974C49.1081 12.1644 49.4351 12.5896 49.8165 12.9736C50.197 13.3577 50.6199 13.6879 51.0856 13.964C51.5513 14.2401 52.0511 14.4528 52.5854 14.6021C53.1194 14.7513 53.6768 14.8258 54.2577 14.8258C54.8329 14.8258 55.3889 14.7513 55.9257 14.6021C56.4625 14.4528 56.964 14.2402 57.4298 13.964C57.8952 13.6879 58.32 13.3577 58.7032 12.9736C59.0867 12.5896 59.4141 12.1642 59.6853 11.6974C59.735 11.6112 59.7807 11.523 59.8265 11.4347C59.8727 11.5232 59.9187 11.6112 59.9689 11.6974C60.2425 12.1644 60.5697 12.5896 60.9502 12.9736C61.3305 13.3577 61.7534 13.6879 62.2191 13.964C62.6845 14.2401 63.1841 14.4528 63.7179 14.6021C64.2518 14.7513 64.8088 14.8258 65.3889 14.8258C66.046 14.8258 66.6712 14.7305 67.2654 14.5401C67.8596 14.3495 68.4137 14.0799 68.9283 13.7319C69.0214 13.6766 69.0898 13.6076 69.1334 13.5249C69.1772 13.4416 69.1689 13.3394 69.1092 13.2182ZM22.7025 9.99404C22.8062 9.71284 22.9115 9.41022 23.0184 9.08706C23.1255 8.76355 23.2305 8.43662 23.3345 8.10506C23.4389 7.77333 23.5441 7.44503 23.6509 7.11878C23.7576 6.79254 23.8629 6.4889 23.9672 6.20718L25.2238 9.99404H22.7025ZM35.7718 9.70428C35.6211 10.0749 35.4132 10.3965 35.1478 10.67C34.8822 10.9435 34.5716 11.1641 34.2154 11.3329C33.8598 11.5015 33.4765 11.6022 33.0658 11.6356C32.9454 11.6465 32.8253 11.6559 32.7046 11.6643C32.5843 11.6722 32.4609 11.6767 32.3353 11.6767H31.6453V5.30396H32.7294C33.1783 5.30396 33.601 5.38274 33.9982 5.53995C34.3948 5.69768 34.7413 5.9186 35.0368 6.20323C35.3326 6.48769 35.5667 6.82456 35.7391 7.214C35.9117 7.60327 35.9979 8.03039 35.9979 8.4945C35.9979 8.93104 35.9222 9.33419 35.7718 9.70428ZM57.1357 9.77877C56.9828 10.1769 56.7681 10.5234 56.4923 10.819C56.2159 11.1146 55.8878 11.3466 55.5078 11.5148C55.1278 11.6833 54.711 11.7676 54.2572 11.7676C53.8032 11.7676 53.3878 11.6835 53.0107 11.5148C52.6334 11.3466 52.3065 11.1144 52.0304 10.819C51.7543 10.5232 51.5396 10.1769 51.3865 9.77877C51.2336 9.38128 51.157 8.95279 51.157 8.4945C51.157 8.04135 51.2336 7.61458 51.3865 7.214C51.5396 6.81326 51.7543 6.46389 52.0304 6.16573C52.3065 5.8674 52.6334 5.6326 53.0107 5.46134C53.3879 5.29043 53.8032 5.20445 54.2572 5.20445C54.7108 5.20445 55.1277 5.29043 55.5078 5.46134C55.8878 5.6326 56.2159 5.8674 56.4923 6.16573C56.7681 6.46389 56.9828 6.81326 57.1357 7.214C57.2891 7.61458 57.3657 8.04135 57.3657 8.4945C57.3657 8.95279 57.2891 9.38128 57.1357 9.77877Z" fill="white"/>
</g>
<defs>
<clipPath id="clip0">
<rect y="0.5" width="15.8555" height="16" rx="7.92774" fill="white"/>
</clipPath>
</defs>
</svg>
