<svg width="50" height="68" viewBox="0 0 50 68" fill="none" xmlns="http://www.w3.org/2000/svg">
<g clip-path="url(#clip0)">
<path d="M46.0873 0.238281H3.23817C1.48549 0.238281 0.064209 1.5469 0.064209 3.16152V64.4938C0.064209 66.1084 1.48549 67.4172 3.23817 67.4172H46.087C47.8397 67.4172 49.261 66.1084 49.261 64.4938V3.16152C49.2613 1.5469 47.84 0.238281 46.0873 0.238281Z" fill="#79B5D6"/>
<path d="M44.3701 45.8184H36.5111V62.4482H44.3701V45.8184Z" fill="#FEC200"/>
<path d="M44.3714 6.11914H4.95374V20.9366H44.3714V6.11914Z" fill="#355983"/>
<path d="M12.8127 27.043H4.95374V34.2817H12.8127V27.043Z" fill="#FCD462"/>
<path d="M12.859 27H5V34.2388H12.859V27Z" fill="#FEC200"/>
<path d="M23.3291 27.041H15.4701V34.2798H23.3291V27.041Z" fill="#406692"/>
<path d="M33.8525 27.041H25.9935V34.2798H33.8525V27.041Z" fill="#406692"/>
<path d="M44.3701 27.041H36.5111V34.2798H44.3701V27.041Z" fill="#355983"/>
<path d="M12.8127 32.584H4.95374V34.2825H12.8127V32.584Z" fill="#EDB605"/>
<path d="M23.3291 32.584H15.4701V34.2825H23.3291V32.584Z" fill="#355983"/>
<path d="M33.8525 32.584H25.9935V34.2825H33.8525V32.584Z" fill="#355983"/>
<path d="M44.3701 32.584H36.5111V34.2825H44.3701V32.584Z" fill="#355983"/>
<path d="M12.8127 36.8828H4.95374V44.1216H12.8127V36.8828Z" fill="#406692"/>
<path d="M23.3291 36.8828H15.4701V44.1216H23.3291V36.8828Z" fill="#406692"/>
<path d="M33.8524 36.8828H25.9934V44.1216H33.8524V36.8828Z" fill="#406692"/>
<path d="M44.3701 36.4258H36.5111V43.6646H44.3701V36.4258Z" fill="#406692"/>
<path d="M12.8127 45.8184H4.95374V53.0571H12.8127V45.8184Z" fill="#406692"/>
<path d="M23.3291 45.8184H15.4701V53.0571H23.3291V45.8184Z" fill="#406692"/>
<path d="M33.8524 45.8184H25.9934V53.0571H33.8524V45.8184Z" fill="#406692"/>
<path d="M12.8127 55.207H4.95374V62.4458H12.8127V55.207Z" fill="#406692"/>
<path d="M23.3291 55.207H15.4701V62.4458H23.3291V55.207Z" fill="#406692"/>
<path d="M33.8524 55.207H25.9934V62.4458H33.8524V55.207Z" fill="#406692"/>
<path d="M12.8127 42.4238H4.95374V44.1224H12.8127V42.4238Z" fill="#355983"/>
<path d="M23.3291 42.4238H15.4701V44.1224H23.3291V42.4238Z" fill="#355983"/>
<path d="M33.8524 42.4238H25.9934V44.1224H33.8524V42.4238Z" fill="#355983"/>
<path d="M12.8127 51.3594H4.95374V53.0579H12.8127V51.3594Z" fill="#355983"/>
<path d="M23.3291 51.3594H15.4701V53.0579H23.3291V51.3594Z" fill="#355983"/>
<path d="M33.8524 51.3594H25.9934V53.0579H33.8524V51.3594Z" fill="#355983"/>
<path d="M12.8127 60.75H4.95374V62.4485H12.8127V60.75Z" fill="#355983"/>
<path d="M23.3291 60.75H15.4701V62.4485H23.3291V60.75Z" fill="#355983"/>
<path d="M33.8524 60.75H25.9934V62.4485H33.8524V60.75Z" fill="#355983"/>
<path d="M44.3701 41.9766H36.5111V43.6751H44.3701V41.9766Z" fill="#355983"/>
<path d="M44.3701 60.75H36.5111V62.4485H44.3701V60.75Z" fill="#EDB605"/>
</g>
<defs>
<clipPath id="clip0">
<rect width="49.4545" height="68" fill="white"/>
</clipPath>
</defs>
</svg>
