<svg width="169" height="168" viewBox="0 0 169 168" fill="none" xmlns="http://www.w3.org/2000/svg">
<path d="M60.048 67.0262L85.9412 56.6689H136.001V79.9729H60.048V67.0262Z" fill="#355983"/>
<path d="M127.99 104.189C127.99 104.718 128.033 105.234 128.099 105.748C128.866 111.853 134.067 116.579 140.382 116.579C146.866 116.579 152.182 111.593 152.719 105.249C152.748 104.899 152.773 104.545 152.773 104.189C152.773 97.3469 147.224 91.7979 140.382 91.7979C133.538 91.7993 127.99 97.3469 127.99 104.189ZM148.072 103.139H144.511C144.411 102.75 144.257 102.387 144.06 102.048L146.588 99.5203C147.371 100.558 147.888 101.789 148.072 103.139ZM146.588 108.9L144.044 106.357C144.244 106.021 144.405 105.665 144.505 105.283H148.066C147.877 106.626 147.371 107.865 146.588 108.9ZM141.456 108.313C141.837 108.214 142.197 108.068 142.528 107.873L145.048 110.395C144.016 111.172 142.796 111.698 141.454 111.885L141.456 108.313ZM141.456 96.5037C142.807 96.6906 144.038 97.2145 145.074 98.0032L142.549 100.528C142.211 100.325 141.844 100.172 141.454 100.069L141.456 96.5037ZM134.173 99.5203L136.703 102.048C136.504 102.385 136.353 102.752 136.253 103.139H132.691C132.877 101.789 133.393 100.558 134.173 99.5203ZM139.309 100.069C138.919 100.171 138.554 100.325 138.214 100.528L135.689 98.0017C136.725 97.2159 137.958 96.6921 139.307 96.5037L139.309 100.069ZM135.712 110.396L138.23 107.877C138.563 108.073 138.928 108.214 139.306 108.313V111.887C137.968 111.7 136.744 111.175 135.712 110.396ZM132.68 105.283H136.267C136.369 105.665 136.52 106.026 136.717 106.358L134.184 108.891C133.401 107.859 132.868 106.628 132.68 105.283Z" fill="#406692"/>
<path d="M25.5366 104.189C25.5366 104.718 25.5808 105.234 25.6455 105.748C26.4122 111.853 31.6139 116.579 37.9282 116.579C44.4146 116.579 49.7296 111.593 50.2667 105.249C50.2976 104.899 50.3212 104.545 50.3212 104.189C50.3212 97.3469 44.7736 91.7979 37.9296 91.7979C31.0857 91.7979 25.5366 97.3469 25.5366 104.189ZM45.6197 103.139H42.0572C41.9586 102.75 41.8056 102.387 41.6084 102.048L44.1364 99.5203C44.9178 100.558 45.4343 101.789 45.6197 103.139ZM44.135 108.9L41.5922 106.357C41.7909 106.021 41.9527 105.665 42.0528 105.283H45.6138C45.4255 106.626 44.9178 107.865 44.135 108.9ZM39.0009 108.313C39.382 108.214 39.744 108.068 40.0751 107.873L42.5943 110.395C41.5628 111.172 40.3414 111.698 38.9994 111.885L39.0009 108.313ZM39.0009 96.5037C40.3532 96.6906 41.5834 97.2145 42.6193 98.0032L40.0957 100.528C39.7572 100.325 39.3908 100.172 38.9994 100.069L39.0009 96.5037ZM31.7199 99.5203L34.2509 102.048C34.0522 102.385 33.9007 102.752 33.8006 103.139H30.2381C30.4235 101.789 30.94 100.558 31.7199 99.5203ZM36.8554 100.069C36.4655 100.171 36.0991 100.325 35.7606 100.528L33.2355 98.0017C34.2729 97.2159 35.5046 96.6921 36.8554 96.5037V100.069ZM33.2606 110.396L35.7783 107.877C36.1109 108.073 36.4743 108.214 36.854 108.313V111.887C35.5149 111.7 34.2921 111.175 33.2606 110.396ZM30.2248 105.283H33.8124C33.9139 105.665 34.0655 106.026 34.2612 106.358L31.7272 108.891C30.9473 107.859 30.4147 106.628 30.2248 105.283Z" fill="#406692"/>
<path d="M12.8964 107.041L22.8291 106.886C22.7864 106.633 22.732 106.383 22.6981 106.126C22.6084 105.424 22.5657 104.794 22.5657 104.192C22.5657 95.7207 29.4568 88.8311 37.9267 88.8311C46.3997 88.8311 53.2907 95.7237 53.2907 104.192C53.2907 104.634 53.2628 105.066 53.2275 105.503C53.201 105.811 53.1495 106.111 53.1053 106.414L125.066 105.284C125.035 104.907 125.018 104.542 125.018 104.194C125.018 95.7222 131.909 88.8326 140.38 88.8326C148.097 88.8326 154.488 94.5582 155.565 101.982C156.423 100.1 157.251 97.5218 156.929 95.0011C156.314 90.207 152.135 85.5526 151.889 83.2114C151.643 80.8703 152.675 78.9485 152.06 75.6302C151.445 72.312 145.682 61.3596 139.845 57.6426C135.604 54.9423 132.549 53.1044 119.669 52.3657C101.524 51.3254 89.0704 52.5114 78.1356 55.8355C71.6345 57.8133 49.3809 69.3911 42.6341 73.1272C34.6468 77.5506 31.4197 78.2348 25.9016 80.2331C19.5256 82.5419 15.4745 87.6083 13.8764 91.4372C12.2784 95.266 11.1144 100.035 12.8964 107.041ZM114.967 73.0345L113.06 56.8509C123.624 57.0363 134.587 57.8677 135.549 61.57C136.12 63.764 133.232 69.0011 129.772 70.5418C127.1 71.7322 122.955 72.1825 114.967 73.0345ZM63.4132 70.6433L64.6199 67.1132C78.9096 59.4393 86.198 56.7964 103.915 56.7964C104.726 56.7964 105.564 56.7964 106.419 56.7964L104.384 74.0543C85.8066 75.7038 63.8782 77.0547 63.8782 77.0547C65.6425 73.4303 63.4132 70.6433 63.4132 70.6433Z" fill="#9FCBE2"/>
<circle cx="37.895" cy="104.14" r="4.31554" fill="#FEC200"/>
<circle cx="140.605" cy="104.14" r="4.31554" fill="#FEC200"/>
</svg>
