<svg width="64" height="64" viewBox="0 0 64 64" fill="none" xmlns="http://www.w3.org/2000/svg">
<g clip-path="url(#clip0)">
<path d="M63.9998 31.7345C64.1473 49.407 49.9398 63.852 32.2673 63.9995C14.5948 64.147 0.149828 49.9395 0.00232766 32.267C-0.141422 14.9745 13.7323 0.152023 31.7348 0.00202318C49.4073 -0.145477 63.8536 14.062 63.9998 31.7345Z" fill="#79B5D6"/>
<path d="M32.1018 49.28L53.7252 28.0917H40.4206L32.1018 49.28Z" fill="#7EA0E2"/>
<path d="M23.6685 28.134L40.4208 28.0917L32.1021 49.28L23.6685 28.134Z" fill="#BFC3EA"/>
<path d="M10.5601 28.1733L23.6683 28.134L32.1019 49.28L10.5601 28.1733Z" fill="#7EA0E2"/>
<path d="M20.1812 17.3217L10.5601 28.1726L23.6683 28.1334L20.1812 17.3217Z" fill="#BFC8EA"/>
<path d="M32.1232 17.28L20.1814 17.3223L23.6685 28.134L32.1232 17.28Z" fill="#DEDFF9"/>
<path d="M44.0044 17.28L40.4207 28.0917L32.123 17.28H44.0044Z" fill="#DEDFF9"/>
<path d="M53.7255 28.0917L44.0047 17.28L40.4209 28.0917H53.7255Z" fill="#BFC8EA"/>
<path d="M23.6685 28.134L40.4208 28.0917L32.1232 17.28L23.6685 28.134Z" fill="#A2B3E0"/>
</g>
<defs>
<clipPath id="clip0">
<rect width="64" height="64" fill="white"/>
</clipPath>
</defs>
</svg>
