<svg width="114" height="114" viewBox="0 0 114 114" fill="none" xmlns="http://www.w3.org/2000/svg">
<path d="M109.447 99.6573L99.6984 66.3809H90.9181L63.443 79.1177L109.447 99.6573Z" fill="#79B5D6"/>
<path d="M14.0461 66.3809L5.29285 96.2596L73.3386 66.3809H14.0461Z" fill="#79B5D6"/>
<path d="M1.96539 107.617L0.137207 113.857H113.608L112.909 111.472L53.8037 83.5859L1.96539 107.617Z" fill="#79B5D6"/>
<path d="M63.4431 79.1177L90.9182 66.3809H73.3387L5.29301 96.2596L1.96545 107.618L53.8037 83.5864L112.909 111.472L109.447 99.6573L63.4431 79.1177Z" fill="#FEC200"/>
<path d="M26.1395 31.1197C26.1395 48.0932 56.8725 83.0188 56.8725 83.0188V0.386719C39.8994 0.386719 26.1395 14.1462 26.1395 31.1197Z" fill="#406692"/>
<path d="M56.8726 0.386719V83.0188C56.8726 83.0188 87.6056 48.0932 87.6056 31.1197C87.6056 14.1462 73.8456 0.386719 56.8726 0.386719Z" fill="#355983"/>
<path d="M56.8726 51.5197C68.1347 51.5197 77.2643 42.39 77.2643 31.128C77.2643 19.866 68.1347 10.7363 56.8726 10.7363C45.6106 10.7363 36.481 19.866 36.481 31.128C36.481 42.39 45.6106 51.5197 56.8726 51.5197Z" fill="#F4F5FB"/>
</svg>
