<svg width="68" height="68" viewBox="0 0 68 68" fill="none" xmlns="http://www.w3.org/2000/svg">
<g clip-path="url(#clip0)">
<path d="M36.6001 0.238547C38.4277 0.561547 40.2203 1.01205 41.9108 1.79511C43.8394 2.68761 45.7212 3.67467 47.1546 5.29286C48.5423 6.86005 49.1777 8.78636 49.5411 10.8094C50.0426 13.6005 49.9693 16.3981 49.6006 19.1967C49.573 19.406 49.5624 19.6164 49.5443 19.8268C48.4254 20.6662 48.095 21.9954 47.4808 23.2895C47.4808 22.3566 47.4808 21.5651 47.4808 20.7735C47.4808 20.5822 47.5105 20.3952 47.28 20.2794C46.8061 20.0435 46.4947 19.6292 46.2057 19.2052C45.4439 18.0854 44.8042 16.8964 44.2357 15.6692C44.1465 15.478 44.0593 15.2889 43.9074 15.1316C43.2284 14.4314 42.5006 13.7886 41.6409 13.319C40.0992 12.4754 38.4649 12.112 36.8264 12.9004C35.5949 13.4922 34.373 14.1445 33.2998 15.0243C32.7303 15.4918 32.0587 15.7659 31.3425 15.9157C29.7784 16.2419 28.2909 15.9104 26.8394 15.3452C25.6514 14.883 24.5559 14.237 23.4583 13.5984C23.2022 13.4497 23.0673 13.4082 22.9961 13.8099C22.8155 14.8341 22.5817 15.8499 22.3352 16.8614C21.8751 18.7462 21.3544 20.6194 21.5446 22.5946C21.5542 22.6945 21.6148 22.8347 21.4681 22.9165C20.9368 21.7552 20.2674 20.6917 19.445 19.7259C19.1528 17.4617 18.8393 15.2007 18.5758 12.9344C18.3814 11.262 18.9796 9.73624 19.5916 8.22855C19.8296 7.64205 20.1367 7.08424 20.3939 6.50411C20.8263 5.52661 21.5074 4.80092 22.3904 4.18573C25.1786 2.24242 28.174 0.823984 31.5604 0.310797C31.8324 0.269359 31.8303 0.256609 31.7325 0.00585938C31.945 0.00585938 32.1565 0.00585938 32.369 0.00585938C32.2723 0.219422 32.437 0.203484 32.5486 0.188609C33.9001 0.00798437 35.2496 0.158859 36.6001 0.238547Z" fill="#355983"/>
<path d="M0.0244393 67.4576C0.216764 67.3153 0.195513 67.0911 0.234827 66.8924C0.912745 63.486 1.53541 60.0669 2.28133 56.6743C2.9465 53.6483 4.27258 50.9124 6.33821 48.5738C8.2487 46.4116 10.58 44.9379 13.4202 44.3026C15.1054 43.9254 16.7822 43.5089 18.4632 43.1094C18.4674 44.5926 18.4727 46.0759 18.4738 47.5591C18.4759 49.4844 18.4738 51.4086 18.4748 53.3338C18.4748 53.6781 18.4982 54.0999 18.8669 54.1711C19.6479 54.3209 20.3343 54.7459 21.1281 54.85C21.7242 54.9286 21.8729 55.156 21.6551 55.7085C21.3098 56.5829 20.8879 57.4276 20.4895 58.2808C20.3205 58.6431 20.0485 58.9842 20.2015 59.4156C20.4916 60.2379 20.9187 61.0146 21.3618 61.7435C21.9037 62.6349 22.2948 63.5997 22.8696 64.4784C23.4402 65.3528 23.8419 66.3473 24.3859 67.2536C24.5155 67.4704 24.6919 67.6956 24.626 67.9878C16.6015 67.9878 8.5781 67.9836 0.553597 68.0006C0.102007 68.0016 -0.0680039 67.9028 0.0244393 67.4576Z" fill="#79B5D6"/>
<path d="M50.0819 43.084C52.105 43.5685 54.1547 43.9616 56.1438 44.5566C60.0753 45.7307 62.7636 48.3912 64.6157 51.9782C65.8939 54.4517 66.3795 57.1302 66.7302 59.8566C67.0564 62.3928 67.4633 64.9194 67.8352 67.4492C67.8522 67.6288 67.8693 67.8083 67.8863 67.9879C59.934 67.9879 51.9807 67.9879 44.0284 67.9879C44.2845 67.3695 44.6086 66.7862 44.9083 66.1923C45.3312 65.3572 45.7827 64.538 46.2184 63.7092C46.9101 62.3939 47.5339 61.0413 48.3393 59.7897C48.6389 59.3232 48.4423 58.912 48.2766 58.5285C47.8186 57.4724 47.2969 56.4439 46.8049 55.4015C46.7444 55.273 46.6105 55.1338 46.8878 55.0424C47.5859 54.8119 48.2723 54.5473 48.997 54.4092C50.1584 54.1882 50.1775 54.1659 50.1775 52.978C50.1775 49.9584 50.1765 46.9387 50.1796 43.9191C50.1818 43.6354 50.1701 43.356 50.0819 43.084Z" fill="#79B5D6"/>
<path d="M24.6249 67.9879C24.6908 67.6967 24.5144 67.4704 24.3848 67.2537C23.8407 66.3463 23.4402 65.3529 22.8685 64.4784C22.2947 63.5997 21.9026 62.635 21.3607 61.7435C20.9176 61.0147 20.4905 60.238 20.2004 59.4156C20.0484 58.9842 20.3194 58.6432 20.4884 58.2809C20.8858 57.4277 21.3087 56.583 21.654 55.7085C21.8718 55.1571 21.7231 54.9297 21.127 54.85C20.3332 54.7449 19.6468 54.3199 18.8658 54.1711C18.4971 54.0999 18.4737 53.6781 18.4737 53.3339C18.4737 51.4086 18.4748 49.4844 18.4727 47.5592C18.4716 46.0759 18.4652 44.5927 18.462 43.1094C19.8657 42.7312 21.28 42.4039 22.7081 42.1309C23.6505 45.0272 24.5824 47.9279 25.5387 50.82C26.0296 52.3054 26.4504 53.8141 27.0327 55.2687C27.3738 56.6361 27.8743 57.9536 28.3003 59.2934C29.0898 61.7765 29.8931 64.2542 30.6911 66.7341C30.7772 67.1549 31.0152 67.5395 30.9865 67.9868C28.8667 67.9879 26.7458 67.9879 24.6249 67.9879Z" fill="#9FCBE2"/>
<path d="M50.082 43.085C50.1702 43.357 50.1819 43.6364 50.1819 43.9201C50.1787 46.9397 50.1797 49.9594 50.1797 52.979C50.1797 54.1679 50.1606 54.1892 48.9992 54.4102C48.2746 54.5483 47.5871 54.8129 46.89 55.0434C46.6127 55.1348 46.7455 55.274 46.8072 55.4025C47.2991 56.4438 47.8198 57.4734 48.2788 58.5295C48.4446 58.913 48.6422 59.3242 48.3415 59.7907C47.5361 61.0423 46.9124 62.3948 46.2206 63.7102C45.785 64.5379 45.3334 65.3571 44.9105 66.1933C44.6098 66.7872 44.2857 67.3705 44.0307 67.9889C41.9098 67.9889 39.7889 67.9889 37.668 67.9889C37.6117 67.5618 37.9135 67.2016 37.8975 66.7819C38.0282 66.5715 38.0984 66.3431 38.1164 66.0966C38.7816 64.097 39.4531 62.0995 40.1087 60.0967C40.622 58.5273 41.115 56.9506 41.6165 55.377C41.6718 55.2485 41.7366 55.1242 41.7802 54.9914C42.5909 52.5317 43.4038 50.073 44.2071 47.6112C44.8021 45.7869 45.3833 43.9584 45.9699 42.1309C47.3544 42.3922 48.723 42.7195 50.082 43.085Z" fill="#9FCBE2"/>
<path d="M37.8975 66.7805C37.9135 67.2002 37.6117 67.5593 37.668 67.9875C35.4409 67.9875 33.2148 67.9875 30.9877 67.9875C31.0163 67.5402 30.7783 67.1556 30.6923 66.7348C30.8591 66.5701 30.8431 66.3481 30.8718 66.143C31.3596 62.5815 31.8335 59.0179 32.3414 55.4585C32.4391 54.7711 32.4147 54.1474 32.063 53.5322C31.8398 53.1412 31.6879 52.7098 31.5041 52.2965C31.6783 52.1509 31.8451 51.9969 32.0268 51.863C32.743 51.336 33.5102 50.8791 34.1881 50.3001C34.2497 50.299 34.3114 50.2979 34.373 50.2969C34.8586 50.4839 35.1572 50.9588 35.6513 51.132L35.6481 51.1288C35.7394 51.2096 35.8308 51.2903 35.9233 51.3689C36.2952 51.6898 36.9433 51.8332 37.04 52.2795C37.1399 52.7385 36.6947 53.2081 36.5141 53.6841C36.36 54.09 36.1602 54.4544 36.2314 54.9432C36.6331 57.6834 36.9805 60.431 37.3694 63.1733C37.5384 64.3761 37.6298 65.5916 37.8975 66.7805Z" fill="#FEC200"/>
<path d="M67.9947 0.111776C67.9596 0.0767132 67.9235 0.0405882 67.8884 0.00552569C67.9798 -0.0146618 68.0149 0.0204007 67.9947 0.111776Z" fill="#FEFEFE"/>
<path d="M0.130704 0.00552569C0.0956389 0.0405882 0.0595116 0.0767132 0.0244469 0.111776C0.00425818 0.0204007 0.0393229 -0.0146618 0.130704 0.00552569Z" fill="#FEFEFE"/>
<path d="M19.4428 19.7271C20.2663 20.6929 20.9347 21.7565 21.466 22.9178C21.6126 22.836 21.552 22.6957 21.5425 22.5958C21.3533 20.6217 21.8729 18.7475 22.333 16.8626C22.5795 15.8521 22.8133 14.8353 22.9939 13.8111C23.0651 13.4084 23.199 13.4498 23.4561 13.5996C24.5548 14.2382 25.6493 14.8842 26.8372 15.3464C28.2898 15.9116 29.7763 16.2442 31.3404 15.917C32.0566 15.7671 32.7281 15.493 33.2976 15.0255C34.3708 14.1458 35.5928 13.4934 36.8243 12.9016C38.4638 12.1132 40.0981 12.4766 41.6388 13.3202C42.4984 13.7909 43.2263 14.4326 43.9052 15.1328C44.0572 15.2901 44.1443 15.4792 44.2336 15.6705C44.8031 16.8976 45.4417 18.0876 46.2036 19.2065C46.4915 19.6304 46.8039 20.0448 47.2778 20.2806C47.5095 20.3954 47.4786 20.5824 47.4786 20.7747C47.4786 21.5663 47.4786 22.3578 47.4786 23.2907C48.0928 21.9966 48.4222 20.6674 49.5421 19.828C50.4804 19.2893 50.9012 19.4721 51.1987 20.5016C51.4186 21.2613 51.3018 22.004 51.1264 22.7371C50.8002 24.1014 50.3136 25.3945 49.2818 26.4081C48.7622 26.9181 48.1969 27.3739 47.4733 27.5311C47.1227 27.6076 46.9293 27.7893 46.8613 28.0921C46.5882 29.2981 45.9358 30.3255 45.3046 31.3519C44.5789 32.5334 43.833 33.7075 42.8862 34.7328C42.662 34.9761 42.4134 35.1918 42.339 35.5328C41.3444 36.2245 40.5411 37.1425 39.5551 37.8512C38.7242 38.4483 37.8433 38.9891 36.8987 39.3036C35.2761 39.8445 33.6249 40.1228 31.9535 39.2293C30.9759 38.7076 29.9909 38.2125 29.0665 37.5973C28.0666 36.9321 27.2761 36.0184 26.3059 35.3203C25.5813 34.3949 24.8279 33.4896 24.1372 32.5398C23.2277 31.2881 22.4499 29.9536 21.8463 28.5225C21.6105 27.9625 21.2364 27.563 20.7041 27.2166C19.8615 26.6673 19.2218 25.8651 18.7309 24.9811C18.2442 24.1056 17.8607 23.1823 17.679 22.1825C17.5982 21.7416 17.5918 21.2985 17.6418 20.8661C17.731 20.0947 18.2336 19.7377 19.0305 19.7876C19.1687 19.7993 19.3068 19.7494 19.4428 19.7271Z" fill="#79B5D6"/>
<path d="M26.3092 35.3223C27.2793 36.0203 28.0699 36.9341 29.0697 37.5992C29.9942 38.2144 30.9802 38.7085 31.9567 39.2312C33.6281 40.1237 35.2794 39.8464 36.9019 39.3056C37.8455 38.9911 38.7263 38.4503 39.5583 37.8531C40.5444 37.1445 41.3477 36.2265 42.3422 35.5348C42.3486 36.6302 42.3539 37.7256 42.3603 38.8211C42.3199 38.854 42.2679 38.8785 42.2402 38.9199C41.3615 40.2448 40.3499 41.4752 39.5031 42.8278C38.8262 43.9094 38.007 44.9028 37.2515 45.9345C36.7351 45.9813 36.7903 46.5295 36.5098 46.7941C36.2877 47.0034 35.9838 47.2297 36.0795 47.6281C36.0774 47.6621 36.0752 47.6951 36.0731 47.7291C35.8733 47.744 35.766 47.8491 35.7618 48.0531C35.7256 48.1233 35.6895 48.1934 35.6545 48.2624C35.2241 48.4409 35.0796 48.8383 34.917 49.2229C34.8798 49.292 34.8427 49.36 34.8055 49.4291C34.5143 49.4418 34.4028 49.8679 34.0564 49.7521C34.0213 49.682 33.9852 49.6118 33.9501 49.5417C33.4528 48.4186 32.6856 47.4709 31.928 46.5231C31.7687 46.3234 31.7984 45.9281 31.4063 45.9324C31.3734 45.9303 31.3404 45.9281 31.3064 45.9249C31.3054 45.8017 31.2703 45.6933 31.2204 45.5775C30.874 44.7743 30.162 44.2026 29.8433 43.3792C29.7806 43.2166 29.6159 43.0658 29.3917 43.07L29.3906 43.0689C29.4172 42.7576 29.3715 42.5037 28.9667 42.5388C28.2462 41.5156 27.5375 40.4839 26.799 39.4745C26.6311 39.245 26.5504 38.9209 26.2295 38.8189C26.3655 37.6555 26.3007 36.4878 26.3092 35.3223Z" fill="#9FCBE2"/>
<path d="M26.2295 38.8184C26.5504 38.9204 26.6311 39.2444 26.799 39.4739C27.5375 40.4833 28.2473 41.515 28.9666 42.5382C28.9656 42.8282 29.091 43.0184 29.3906 43.0684L29.3917 43.0694C29.3577 43.488 29.6743 43.7452 29.889 44.0161C30.3809 44.6387 30.6869 45.4005 31.3064 45.9254C31.3394 45.9275 31.3723 45.9307 31.4063 45.9329C31.3967 46.1762 31.52 46.3632 31.6517 46.5534C32.2585 47.4246 32.8567 48.3022 33.4645 49.1735C33.5835 49.3435 33.7131 49.5177 33.949 49.5432C33.9841 49.6134 34.0202 49.6835 34.0553 49.7536C34.0489 49.948 34.0765 50.134 34.1849 50.3019C33.507 50.882 32.7398 51.3389 32.0236 51.8648C31.8419 51.9987 31.6751 52.1527 31.5009 52.2983C30.6593 52.6957 29.9665 53.3162 29.1951 53.8187C28.4672 54.2926 27.8276 54.8972 27.0328 55.2712C26.4505 53.8166 26.0297 52.3078 25.5388 50.8225C24.5836 47.9304 23.6506 45.0297 22.7081 42.1334C23.4859 41.3726 24.2605 40.6097 25.0426 39.8532C25.4209 39.4867 25.7874 39.1084 26.2295 38.8184Z" fill="#D5D4D4"/>
<path d="M45.9698 42.13C45.3822 43.9564 44.8021 45.786 44.207 47.6103C43.4037 50.0721 42.5909 52.5308 41.7801 54.9905C41.7366 55.1222 41.6717 55.2476 41.6165 55.3761C40.4923 54.5846 39.3692 53.792 38.245 53.0004C37.9644 52.8028 37.7371 52.5074 37.3513 52.4968C37.363 52.3459 37.3131 52.212 37.2408 52.0845C37.2408 51.786 37.2408 51.4863 37.2408 51.1814C37.0719 51.2473 37.0581 51.4056 37.0294 51.5554C36.9614 51.5543 36.8923 51.5543 36.8243 51.5533C36.7861 51.5533 36.7478 51.5533 36.7096 51.5533C36.6405 51.5171 36.5714 51.48 36.5013 51.4438C36.4662 51.4088 36.4301 51.3737 36.395 51.3376C36.3833 51.1272 36.2325 51.124 36.0784 51.1251C35.9339 51.1261 35.7904 51.1283 35.6459 51.1293L35.6491 51.1325C35.7628 50.681 35.2262 50.7628 35.1221 50.4897C34.7969 49.8469 35.1359 49.4527 35.6353 49.1212C35.7246 49.0617 35.7979 49.0001 35.8489 48.8991C36.4046 47.7856 36.9784 46.6849 37.9634 45.87C38.0133 45.8285 38.0771 45.7499 38.0696 45.6978C37.9751 45.0625 38.8719 44.9679 38.7975 44.3495C39.3723 44.256 39.4404 43.6982 39.6507 43.3242C39.9185 42.8461 40.6177 42.6028 40.4498 41.8633C40.403 41.6582 40.6899 41.5966 40.8876 41.5849C41.2998 41.5594 41.4964 41.3363 41.4805 40.9346C41.4699 40.6871 41.5496 40.5001 41.7259 40.3248C41.9246 40.1271 42.0681 39.887 42.1616 39.6129C42.2423 39.3749 42.3741 39.1624 42.6674 39.1348C43.1763 39.3356 43.4728 39.802 43.8723 40.1346C44.6129 40.7476 45.2749 41.4585 45.9698 42.13ZM42.3444 41.6731C41.9608 41.4797 41.8131 41.7411 41.6377 41.909C41.49 42.0503 41.421 42.2086 41.6261 42.4338C41.7621 42.0683 42.0362 41.8856 42.3444 41.6731Z" fill="#D4D5D5"/>
<path d="M42.6673 39.1316C42.374 39.1592 42.2423 39.3717 42.1615 39.6097C42.0691 39.8828 41.9246 40.1229 41.7259 40.3216C41.5495 40.4969 41.4698 40.6829 41.4804 40.9315C41.4974 41.3331 41.2998 41.5562 40.8875 41.5817C40.6899 41.5934 40.403 41.6551 40.4497 41.8601C40.6166 42.5996 39.9184 42.8429 39.6507 43.3211C39.4414 43.6951 39.3723 44.2539 38.7974 44.3464C38.8708 44.9637 37.974 45.0593 38.0696 45.6947C38.077 45.7467 38.0133 45.8243 37.9633 45.8668C36.9783 46.6817 36.4045 47.7825 35.8488 48.896C35.7989 48.9969 35.7256 49.0586 35.6352 49.1181C35.1358 49.4496 34.7969 49.8448 35.122 50.4866C34.9446 50.3792 34.7671 50.273 34.5897 50.1657C34.5323 49.882 34.8659 49.7109 34.8043 49.4262C34.8415 49.3571 34.8787 49.2891 34.9159 49.2201C35.3027 49.0086 35.546 48.6856 35.6533 48.2596C35.6894 48.1894 35.7256 48.1193 35.7606 48.0502C35.9593 48.0332 36.0688 47.9312 36.072 47.7272C36.0741 47.6932 36.0762 47.6603 36.0783 47.6263C36.5788 47.1376 37.0495 46.6297 37.2493 45.9337C38.0048 44.901 38.824 43.9086 39.5009 42.827C40.3477 41.4744 41.3582 40.2441 42.238 38.9191C42.2657 38.8777 42.3177 38.8532 42.3581 38.8203C42.4622 38.9244 42.5653 39.0275 42.6673 39.1316Z" fill="#D8D3D1"/>
<path d="M27.0338 55.2697C27.8286 54.8957 28.4683 54.2912 29.1961 53.8173C29.9676 53.3147 30.6614 52.6943 31.5019 52.2969C31.6857 52.7102 31.8377 53.1426 32.0608 53.5326C32.4125 54.1477 32.437 54.7714 32.3392 55.4589C31.8324 59.0183 31.3574 62.5819 30.8697 66.1434C30.8421 66.3484 30.858 66.5705 30.6901 66.7352C29.8932 64.2553 29.0888 61.7776 28.3004 59.2945C27.8754 57.9547 27.3749 56.6372 27.0338 55.2697Z" fill="#EAE7E7"/>
<path d="M37.3514 52.4961C37.7381 52.5067 37.9645 52.8021 38.245 52.9997C39.3692 53.7913 40.4923 54.5839 41.6165 55.3755C41.115 56.949 40.6219 58.5258 40.1087 60.0951C39.4531 62.0979 38.7816 64.0954 38.1164 66.095C37.9347 65.9718 38.0016 65.7816 37.9815 65.6127C37.8731 64.6925 37.8593 63.7459 37.6234 62.8587C37.3535 61.8387 37.3492 60.7942 37.1505 59.771C36.9444 58.7096 36.8647 57.6237 36.7319 56.5485C36.6203 55.6538 36.2877 54.7613 36.7266 53.8625C36.9476 53.413 37.1442 52.9519 37.3514 52.4961Z" fill="#E9E9E9"/>
<path d="M37.3513 52.4967C37.1441 52.9525 36.9476 53.4136 36.7276 53.8631C36.2888 54.7619 36.6224 55.6544 36.7329 56.5491C36.8668 57.6243 36.9465 58.7102 37.1516 59.7716C37.3503 60.7948 37.3535 61.8393 37.6244 62.8593C37.8592 63.7464 37.873 64.6931 37.9825 65.6133C38.0027 65.7822 37.9357 65.9724 38.1174 66.0956C38.0994 66.3411 38.0282 66.5706 37.8986 66.7809C37.6308 65.592 37.5394 64.3765 37.3683 63.1738C36.9794 60.4314 36.632 57.6838 36.2303 54.9436C36.1591 54.4559 36.3589 54.0915 36.513 53.6846C36.6936 53.2086 37.1388 52.7379 37.0389 52.2799C36.9422 51.8337 36.2941 51.6902 35.9222 51.3694C35.8297 51.2897 35.7394 51.2089 35.647 51.1292C35.7915 51.1282 35.9349 51.1261 36.0794 51.125C36.1389 51.2653 36.2441 51.3354 36.3961 51.3375C36.4311 51.3726 36.4673 51.4076 36.5023 51.4438C36.5714 51.4799 36.6405 51.5171 36.7106 51.5532C36.7489 51.6212 36.7871 51.6223 36.8254 51.5532C36.8934 51.5543 36.9624 51.5542 37.0304 51.5553C37.0294 51.7604 37.0071 51.9739 37.2419 52.0844C37.3131 52.2119 37.363 52.3458 37.3513 52.4967Z" fill="#F4D2D1"/>
<path d="M34.5908 50.168C34.7683 50.2753 34.9457 50.3815 35.1232 50.4888C35.2262 50.7619 35.7628 50.6801 35.6502 51.1316C35.1561 50.9585 34.8575 50.4835 34.3719 50.2965C34.4166 50.2062 34.4952 50.1722 34.5908 50.168Z" fill="#F4D2D1"/>
<path d="M34.5908 50.1672C34.4952 50.1715 34.4165 50.2044 34.3719 50.2958C34.3103 50.2969 34.2486 50.2979 34.187 50.299C34.0786 50.1311 34.051 49.9452 34.0574 49.7507C34.4027 49.8665 34.5153 49.4405 34.8065 49.4277C34.8671 49.7135 34.5334 49.8835 34.5908 50.1672Z" fill="#DFC2B0"/>
<path d="M33.9501 49.5401C33.7142 49.5146 33.5846 49.3414 33.4656 49.1703C32.8578 48.2991 32.2596 47.4215 31.6528 46.5502C31.52 46.36 31.3978 46.173 31.4074 45.9297C31.7995 45.9265 31.7697 46.3218 31.9291 46.5215C32.6857 47.4693 33.4528 48.416 33.9501 49.5401Z" fill="#DFC2B0"/>
<path d="M31.3074 45.9244C30.6869 45.3996 30.3819 44.6388 29.8899 44.0151C29.6753 43.7442 29.3587 43.4871 29.3927 43.0684C29.6169 43.0642 29.7816 43.2161 29.8443 43.3776C30.163 44.2011 30.8749 44.7727 31.2213 45.5759C31.2713 45.6928 31.3064 45.8012 31.3074 45.9244Z" fill="#DFC2B0"/>
<path d="M37.2514 45.9355C37.0517 46.6315 36.5809 47.1404 36.0805 47.6281C35.9848 47.2297 36.2887 47.0034 36.5108 46.794C36.7903 46.5305 36.735 45.9812 37.2514 45.9355Z" fill="#DFC2B0"/>
<path d="M35.6533 48.2617C35.546 48.6878 35.3027 49.0108 34.9159 49.2222C35.0785 48.8376 35.223 48.4402 35.6533 48.2617Z" fill="#DFC2B0"/>
<path d="M29.3916 43.0686C29.092 43.0187 28.9666 42.8285 28.9677 42.5384C29.3736 42.5033 29.4182 42.7573 29.3916 43.0686Z" fill="#DFC2B0"/>
<path d="M36.0731 47.7285C36.0688 47.9325 35.9594 48.0356 35.7617 48.0515C35.766 47.8486 35.8733 47.7434 36.0731 47.7285Z" fill="#DFC2B0"/>
<path d="M42.3444 41.6738C42.0362 41.8852 41.7621 42.068 41.6261 42.4346C41.421 42.2093 41.4901 42.051 41.6378 41.9097C41.8131 41.7418 41.9618 41.4804 42.3444 41.6738Z" fill="#D8D3D1"/>
<path d="M37.2408 52.0848C37.006 51.9743 37.0283 51.7607 37.0293 51.5556C37.058 51.4058 37.0718 51.2475 37.2408 51.1816C37.2408 51.4866 37.2408 51.7862 37.2408 52.0848Z" fill="#D8D3D1"/>
<path d="M36.395 51.3376C36.2431 51.3355 36.1368 51.2654 36.0784 51.1251C36.2324 51.124 36.3833 51.1272 36.395 51.3376Z" fill="#D8D3D1"/>
<path d="M36.5013 51.4422C36.4662 51.4071 36.4301 51.3721 36.395 51.3359C36.4311 51.371 36.4662 51.4061 36.5013 51.4422Z" fill="#D8D3D1"/>
<path d="M36.8243 51.5527C36.7861 51.6207 36.7478 51.6207 36.7096 51.5527C36.7478 51.5527 36.7861 51.5527 36.8243 51.5527Z" fill="#D8D3D1"/>
</g>
<defs>
<clipPath id="clip0">
<rect width="68" height="68" fill="white"/>
</clipPath>
</defs>
</svg>
