<svg width="94" height="123" viewBox="0 0 94 123" fill="none" xmlns="http://www.w3.org/2000/svg">
<g clip-path="url(#clip0)">
<path d="M46.3633 122.791C36.4323 123.038 26.514 123.171 16.8101 120.425C4.91184 117.059 -1.41874 107.966 0.264794 93.9075C2.37078 76.337 8.87792 60.5317 19.1115 46.1944C23.1028 40.6075 28.0651 35.938 32.9455 31.1863C33.059 31.18 33.1662 31.2116 33.2607 31.2749C34.4903 32.6036 36.1234 31.6039 37.5106 32.0215C37.6556 33.4894 36.7287 34.584 36.2306 35.8368C35.165 38.5385 33.513 41.0187 33.0968 43.9735C32.9392 44.2013 32.7878 44.4228 32.6302 44.6505C32.7122 44.7012 32.7878 44.7581 32.8698 44.8087C32.9518 44.5366 33.0338 44.2646 33.1157 43.9862C37.2331 40.7846 39.957 36.4758 42.5548 32.0658C44.0997 32.939 45.7958 32.6353 47.4163 32.5593C49.1376 32.4771 49.5475 33.2237 49.4718 34.7738C49.3646 37.0073 48.6332 39.0447 47.7631 41.0504C47.3406 42.0248 46.7605 43.0561 48.1414 43.7015C49.5223 44.3405 50.2285 43.461 50.8023 42.3348C51.7544 40.462 52.3723 38.4879 52.7065 36.4189C52.9524 36.615 53.2866 36.7542 53.4253 37.0073C58.375 46.1374 62.7824 55.5269 65.7712 65.4985C68.8041 75.603 70.8281 85.9606 72.5242 96.3561C73.4763 102.183 72.5684 107.694 67.9717 112.294C64.0372 116.23 59.283 118.349 54.3143 120.304C53.2361 120.728 51.6913 120.482 51.3193 122.12C49.6862 122.487 47.8955 121.652 46.3633 122.791ZM26.1861 114.635C22.5732 115.028 19.7231 113.724 17.5982 110.383C17.7054 113.541 19.143 115.762 21.5454 116.306C23.3172 116.711 25.3349 117.134 26.1987 114.654C26.4699 114.572 26.7473 114.49 27.0184 114.407C26.968 114.325 26.9112 114.249 26.8608 114.167C26.6401 114.325 26.4131 114.483 26.1861 114.635ZM51.3067 101.943C52.4543 100.817 51.8426 99.3868 51.8426 98.1214C51.8363 96.4953 52.1327 95.4956 53.8477 94.7617C59.119 92.5029 61.0863 88.2194 60.8845 82.6009C60.6954 77.3303 57.7066 74.3945 53.2298 72.5154C51.395 71.7498 49.5286 71.0664 47.7 70.3008C46.0606 69.6112 45.1779 68.4027 45.6003 66.5678C45.9913 64.8658 47.4226 64.7456 48.8224 64.6887C51.1427 64.5937 53.419 64.7772 55.5943 65.6883C56.4582 66.049 57.2211 66.4856 58.0093 65.3277C60.7836 61.2593 59.7937 58.4311 55.0899 57.3428C54.7872 57.2732 54.472 57.2226 54.1567 57.2036C52.511 57.115 51.6156 56.3621 51.8931 54.6032C52.3408 51.7623 50.5563 51.6421 48.4693 51.5725C46.1363 51.4965 45.1779 52.4266 45.5499 54.736C45.8147 56.4191 44.9572 57.0581 43.3998 57.5263C38.5131 58.9879 36.0414 62.4931 35.7261 67.5106C35.4172 72.49 37.7186 75.9573 42.1576 78.0453C44.2384 79.026 46.357 79.9245 48.444 80.8988C50.1276 81.6834 51.1364 82.9046 50.7392 84.8913C50.3357 86.9223 48.7908 87.4411 47.0253 87.6436C44.3771 87.9473 41.6784 87.8271 39.3265 86.6819C36.8485 85.4797 36.2117 86.587 35.8018 88.6306C35.6568 89.3519 35.5244 90.0796 35.2785 90.7692C34.4714 93.0723 35.0515 94.363 37.5673 95.135C40.2471 95.9638 43.1475 95.6601 45.6823 96.9825C44.9257 102.576 45.7391 103.297 51.3067 101.943ZM18.7395 105.954C14.0357 107.258 10.3723 105.72 7.50965 101.627C6.96739 104.575 8.02669 106.429 10.1138 107.827C13.4367 110.042 15.9714 107.884 18.7395 105.954Z" fill="#79B5D6"/>
<path d="M51.3256 122.132C51.6976 120.494 53.2425 120.74 54.3207 120.316C59.2956 118.361 64.0435 116.235 67.9781 112.306C72.581 107.706 73.4827 102.195 72.5305 96.368C70.8344 85.9725 68.8104 75.6086 65.7775 65.5105C62.7825 55.5326 58.3813 46.1431 53.4316 37.013C53.2929 36.7599 52.9587 36.6143 52.7128 36.4245C52.7128 35.1211 52.7128 33.8177 52.7128 32.2043C53.6208 32.9509 54.2261 33.4571 54.8314 33.9569C55.4178 34.7478 55.9979 35.5451 56.5843 36.336C59.2452 40.36 61.5907 44.5486 63.2175 49.0978C63.6652 50.3569 64.2705 51.2681 65.6766 50.6923C67.1016 50.1102 66.8368 48.9207 66.3828 47.7691C64.6047 43.2895 62.6627 38.9048 59.4785 35.2034C58.8984 34.4694 58.3183 33.7355 57.7445 33.0015C57.6877 32.6219 57.6373 32.2423 57.5805 31.8563C57.9589 31.8437 58.3309 31.831 58.7092 31.8184C72.0261 39.5248 80.3177 51.3946 85.9168 65.3523C90.0279 75.596 93.1995 86.1877 93.8174 97.2539C94.593 111.186 89.8198 119.658 74.2078 122.151C66.6287 123.36 58.974 122.936 51.3382 122.784C51.3319 122.581 51.3256 122.354 51.3256 122.132Z" fill="#9FCBE2"/>
<path d="M51.1395 1.89844C54.7714 5.56186 59.1031 6.01742 63.8889 4.86588C65.5724 4.46094 67.4136 4.08131 68.681 6.03007C69.9862 8.03578 68.6747 9.38347 67.6469 10.8134C64.4059 15.3183 61.1524 19.8106 57.8988 24.3092C54.9983 24.518 52.1042 24.7332 49.2037 24.942C49.0587 17.1912 49.6262 9.50369 51.1395 1.89844Z" fill="#9FCBE2"/>
<path d="M51.4076 2.08837C49.8943 9.69361 49.3332 17.3811 49.4719 25.1256C47.0948 25.4419 44.7113 25.7646 42.3342 26.081C41.2497 25.3976 41.0668 24.1955 40.7957 23.1325C39.2446 17.0458 37.7691 10.9401 36.2621 4.83435C38.9356 4.25226 41.1929 2.87926 43.444 1.36707C46.521 -0.701911 48.835 -0.385553 51.4076 2.08837Z" fill="#79B5D6"/>
<path d="M36.2622 4.84082C37.7628 10.9402 39.2446 17.0459 40.7957 23.139C41.0669 24.2083 41.2497 25.4104 42.3342 26.0874C40.9534 26.214 39.5725 26.3405 38.1916 26.4734C38.1033 25.2712 37.4413 24.3348 36.8107 23.3667C32.9771 17.5141 29.2254 11.6109 25.335 5.80887C24.5468 4.63202 24.3009 3.86644 25.5557 3.03125C26.1862 3.0439 26.8167 3.05656 27.4473 3.06921C27.7499 3.1831 28.0526 3.29699 28.3489 3.41088C28.8849 3.47415 29.4272 3.5311 29.9631 3.59437C30.2027 3.79051 30.4486 3.98665 30.6882 4.17647C32.5925 3.99931 34.4273 4.42323 36.2622 4.84082Z" fill="#9FCBE2"/>
<path d="M25.5556 3.02974C24.3071 3.87125 24.5467 4.63684 25.3349 5.80737C29.2253 11.6094 32.977 17.5126 36.8044 23.3589C37.4412 24.327 38.097 25.2634 38.1852 26.4655C37.0692 27.0983 35.6 26.5478 34.5849 27.5348C31.0413 20.4105 26.4257 13.9251 22.4597 7.05382C22.4092 6.96524 22.3209 6.88931 22.2894 6.78808C21.848 5.50366 19.8871 4.33946 21.2049 2.96647C22.3146 1.81493 24.1054 2.20088 25.5556 3.02974Z" fill="#79B5D6"/>
<path d="M34.5849 27.5356C35.6001 26.5485 37.0629 27.099 38.1853 26.4663C39.5662 26.3397 40.947 26.2069 42.3279 26.0803C44.7113 25.7639 47.0885 25.4413 49.4656 25.1249C52.3661 24.9161 55.2602 24.701 58.1607 24.4922C59.3902 26.3334 59.2767 27.5229 56.6978 27.4976C56.1808 27.5482 55.6701 27.5925 55.153 27.6431C55.0017 27.8076 54.8504 27.9721 54.699 28.1366C54.4279 28.3707 54.1568 28.6048 53.8856 28.839C52.7255 27.2888 51.5337 26.0866 49.743 28.1619C48.9738 29.0541 47.8388 28.8326 46.8173 28.8326C42.6747 28.8516 38.5321 28.8516 34.3832 28.8579L34.2634 28.7251C34.3769 28.3328 34.4841 27.9342 34.5849 27.5356Z" fill="#355983"/>
<path d="M53.892 28.8389C54.1631 28.6048 54.4342 28.3707 54.7054 28.1429C54.8567 27.9784 55.008 27.8139 55.1656 27.6494C55.6827 27.5988 56.1934 27.5545 56.7105 27.5039C56.3511 28.2885 56.7357 28.6048 57.4608 28.6934C59.8253 28.9655 59.6424 30.2562 58.7156 31.8443C58.3372 31.857 57.9652 31.8696 57.5869 31.8823C57.1834 31.7115 56.7798 31.547 56.3763 31.3761C56.5339 29.5349 54.6234 29.7754 53.892 28.8389Z" fill="#355983"/>
<path d="M33.2671 31.2803C33.1725 31.217 33.0653 31.1854 32.9518 31.1917C32.4978 29.8883 32.7059 28.9456 34.2696 28.7305L34.3894 28.8633C34.2696 29.7871 33.9417 30.6096 33.2671 31.2803Z" fill="#355983"/>
<path d="M51.3256 122.133C51.3319 122.361 51.3319 122.582 51.3383 122.81C49.6799 122.803 48.0216 122.797 46.3696 122.791C47.8955 121.652 49.6862 122.487 51.3256 122.133Z" fill="#DBB358"/>
<path d="M28.3489 3.41003C28.0462 3.29614 27.7436 3.18225 27.4472 3.06836C27.7499 3.18225 28.0525 3.29614 28.3489 3.41003Z" fill="#EACE86"/>
<path d="M30.6945 4.17585C30.4549 3.97971 30.209 3.78357 29.9694 3.59375C30.209 3.78989 30.4486 3.98603 30.6945 4.17585Z" fill="#EACE86"/>
<path d="M45.6822 96.9768C43.1475 95.6545 40.247 95.9582 37.5672 95.1293C35.0514 94.3511 34.4713 93.0666 35.2784 90.7636C35.518 90.0739 35.6567 89.3463 35.8017 88.625C36.2179 86.5813 36.8547 85.4677 39.3264 86.6762C41.6846 87.8214 44.3833 87.948 47.0253 87.6379C48.7845 87.4355 50.3356 86.9166 50.7391 84.8856C51.1301 82.8989 50.1212 81.6778 48.444 80.8932C46.3569 79.9251 44.2446 79.0203 42.1575 78.0396C37.7186 75.9517 35.4171 72.4844 35.7261 67.5049C36.0413 62.4812 38.513 58.9759 43.3997 57.5207C44.9508 57.0588 45.8146 56.4197 45.5498 54.7304C45.1841 52.4146 46.1362 51.4909 48.4692 51.5668C50.5563 51.6364 52.3407 51.7566 51.893 54.5975C51.6156 56.3565 52.5046 57.1094 54.1566 57.198C54.4719 57.217 54.7809 57.2676 55.0898 57.3372C59.7936 58.4318 60.7899 61.2537 58.0092 65.322C57.2211 66.4799 56.4581 66.0433 55.5943 65.6827C53.4189 64.7716 51.1364 64.5881 48.8223 64.683C47.4225 64.74 45.9912 64.8538 45.6003 66.5622C45.1778 68.3907 46.0606 69.6055 47.7 70.2952C49.5285 71.0608 51.4012 71.7441 53.2298 72.5097C57.7066 74.3889 60.6953 77.3247 60.8845 82.5952C61.0862 88.2137 59.119 92.4972 53.8477 94.756C52.1326 95.4899 51.8363 96.4896 51.8426 98.1157C51.8489 99.3812 52.4542 100.811 51.3066 101.937C48.3494 101.659 45.6759 101.064 45.9218 97.154C45.9281 97.1034 45.7642 97.0401 45.6822 96.9768Z" fill="#FEC200"/>
<path d="M33.267 31.2823C33.9417 30.6179 34.2696 29.7891 34.3957 28.8653C38.5383 28.859 42.6809 28.8527 46.8299 28.84C47.8513 28.8337 48.9863 29.0614 49.7555 28.1693C51.5463 26.094 52.7317 27.2962 53.8982 28.8463C54.6296 29.7827 56.5464 29.5423 56.3825 31.3645L56.1177 31.5037L56.2311 31.6176L56.3762 31.3582C56.7797 31.529 57.1833 31.6935 57.5868 31.8644C57.6435 32.244 57.694 32.6236 57.7507 33.0096C57.0761 34.2371 55.8528 33.7689 54.8377 33.9587C54.2323 33.4588 53.6207 32.9526 52.7191 32.206C52.7191 33.8258 52.7191 35.1229 52.7191 36.4263C52.3849 38.4952 51.7733 40.4693 50.8148 42.3421C50.2411 43.4684 49.5349 44.3479 48.154 43.7088C46.7794 43.0698 47.3595 42.0321 47.7757 41.0577C48.6458 39.052 49.3772 37.0147 49.4844 34.7812C49.5601 33.231 49.1502 32.4844 47.4289 32.5667C45.8084 32.6426 44.1122 32.9463 42.5674 32.0732C40.8839 32.0605 39.2004 32.0415 37.5168 32.0289C36.1297 31.605 34.4966 32.6047 33.267 31.2823Z" fill="#406692"/>
<path d="M37.517 32.0215C39.2005 32.0341 40.884 32.0531 42.5676 32.0658C39.9634 36.4758 37.2458 40.7909 33.1284 43.9861L33.1032 43.9735C33.5257 41.0187 35.1714 38.5448 36.2433 35.8368C36.7351 34.584 37.662 33.4894 37.517 32.0215Z" fill="#6AA8CB"/>
<path d="M18.7395 105.955C15.9651 107.885 13.4367 110.048 10.1138 107.828C8.02668 106.436 6.96738 104.582 7.50964 101.627C10.3723 105.721 14.0357 107.258 18.7395 105.955Z" fill="#9FCBE2"/>
<path d="M26.205 114.661C25.3412 117.142 23.3171 116.718 21.5516 116.313C19.143 115.769 17.7117 113.548 17.6045 110.391C19.7294 113.725 22.5794 115.035 26.1924 114.642L26.205 114.661Z" fill="#9FCBE2"/>
<path d="M45.6823 96.9766C45.7642 97.0335 45.9282 97.1031 45.9282 97.1537C45.6823 101.064 48.3557 101.665 51.3129 101.937C45.739 103.297 44.9256 102.576 45.6823 96.9766Z" fill="#FEC200"/>
<path d="M33.122 43.9925C33.0401 44.2645 32.9581 44.5366 32.8761 44.815C32.7942 44.7644 32.7185 44.7074 32.6365 44.6568C32.7942 44.429 32.9455 44.2076 33.1031 43.9798C33.1031 43.9735 33.122 43.9925 33.122 43.9925Z" fill="#79B5D6"/>
<path d="M26.1862 114.636C26.4132 114.484 26.6401 114.326 26.8608 114.174C26.9113 114.256 26.968 114.332 27.0185 114.414C26.7473 114.497 26.4699 114.579 26.1988 114.661C26.2051 114.661 26.1862 114.636 26.1862 114.636Z" fill="#DBB978"/>
<path d="M59.4785 35.2109C62.669 38.906 64.6047 43.2971 66.3828 47.7767C66.8431 48.9282 67.1016 50.1241 65.6766 50.6998C64.2642 51.2756 63.6652 50.3645 63.2175 49.1054C61.5908 44.5498 59.2388 40.3612 56.5843 36.3435C57.549 35.9639 58.5137 35.5842 59.4785 35.2109Z" fill="#406692"/>
<path d="M59.4785 35.2116C58.5138 35.5849 57.549 35.9646 56.5843 36.3379C55.9979 35.547 55.4178 34.7497 54.8314 33.9588C55.8403 33.769 57.0635 34.2436 57.7382 33.0098C58.3246 33.7437 58.8984 34.4777 59.4785 35.2116Z" fill="#355983"/>
<path d="M55.1593 27.6426C55.0079 27.8071 54.8503 27.9779 54.699 28.1361C54.8566 27.9716 55.0079 27.8071 55.1593 27.6426Z" fill="#5A595B"/>
<path d="M56.3699 31.3574L56.2312 31.6168L56.1177 31.5029L56.3699 31.3574Z" fill="#4F5153"/>
</g>
<defs>
<clipPath id="clip0">
<rect width="93.8931" height="123" fill="white"/>
</clipPath>
</defs>
</svg>
