<svg width="65" height="68" viewBox="0 0 65 68" fill="none" xmlns="http://www.w3.org/2000/svg">
<path d="M37.9326 6.48242H32.6464V10.329H37.9326V6.48242Z" fill="#355983"/>
<path d="M23.5359 8.79438C23.3248 8.4289 22.8576 8.30364 22.4919 8.5145L19.2374 10.3934C18.8719 10.6045 18.7469 11.0719 18.9578 11.4371L20.4988 14.1064L25.0769 11.4632L23.5359 8.79438Z" fill="#355983"/>
<path d="M35.2901 67.7756C51.4666 67.7756 64.5802 54.6619 64.5802 38.4855C64.5802 22.309 51.4666 9.19531 35.2901 9.19531C19.1136 9.19531 6 22.309 6 38.4855C6 54.6619 19.1136 67.7756 35.2901 67.7756Z" fill="#406692"/>
<path d="M35.29 62.822C48.7309 62.822 59.6268 51.926 59.6268 38.4852C59.6268 25.0444 48.7309 14.1484 35.29 14.1484C21.8492 14.1484 10.9532 25.0444 10.9532 38.4852C10.9532 51.926 21.8492 62.822 35.29 62.822Z" fill="#79B5D6"/>
<path d="M35.29 17.1878C48.2203 17.1878 58.7899 27.2727 59.5751 40.0051C59.6062 39.5021 59.6271 38.9963 59.6271 38.4855C59.6271 25.0447 48.7308 14.1484 35.29 14.1484C21.849 14.1484 10.953 25.0447 10.953 38.4855C10.953 38.9965 10.9738 39.5021 11.005 40.0051C11.7902 27.2727 22.36 17.1878 35.29 17.1878Z" fill="#79B5D6"/>
<path d="M40.6377 38.4852C40.6377 41.4385 38.2434 43.8324 35.2902 43.8324C32.337 43.8324 29.9427 41.4382 29.9427 38.4852C29.9427 35.532 35.2902 20.0645 35.2902 20.0645C35.2902 20.0645 40.6377 35.532 40.6377 38.4852Z" fill="#FEC200"/>
<path d="M35.2901 41.2946C36.8417 41.2946 38.0995 40.0368 38.0995 38.4852C38.0995 36.9336 36.8417 35.6758 35.2901 35.6758C33.7385 35.6758 32.4807 36.9336 32.4807 38.4852C32.4807 40.0368 33.7385 41.2946 35.2901 41.2946Z" fill="#406692"/>
<path d="M40.3574 6.53135C40.3574 7.58959 29.8959 7.58959 29.8959 6.53135V0.975103C29.8955 -0.32243 40.3571 -0.32243 40.3574 0.975103V6.53135Z" fill="#355983"/>
<path fill-rule="evenodd" clip-rule="evenodd" d="M0 12.022H13V9H0V12.022ZM0 18.022H7V15H0V18.022ZM0 24.022H4V21H0V24.022Z" fill="#FEC200"/>
</svg>
