<svg width="96" height="136" viewBox="0 0 96 136" fill="none" xmlns="http://www.w3.org/2000/svg">
<path d="M95.9388 0.461914H0.314575V135.789H95.9388V0.461914Z" fill="#E1E6E9"/>
<path d="M95.9388 0.461914H0.314575V130.868H95.9388V0.461914Z" fill="#F2F0EF"/>
<path d="M17.6008 42.2318V39.1408C13.7164 38.7448 10.2296 37.208 7.14453 34.5236L10.2469 30.84C12.6267 32.9007 15.0759 34.1309 17.6008 34.5236V26.3092C14.3976 25.5476 12.0526 24.5485 10.5653 23.3043C9.07804 22.0639 8.33464 20.2205 8.33464 17.7773C8.33464 15.3379 9.189 13.3393 10.9045 11.7885C12.6199 10.2343 14.8511 9.38662 17.6008 9.24533V7.12988H20.3197V9.29003C23.4361 9.51397 26.3831 10.5755 29.1609 12.4637L26.3971 16.3606C24.5258 15.0342 22.5021 14.2139 20.3197 13.9039V21.8635H20.4475C23.7057 22.6248 26.0995 23.6589 27.6282 24.9541C29.1604 26.253 29.925 28.1378 29.925 30.6084C29.925 33.079 29.0465 35.0877 27.2891 36.6419C25.5321 38.1922 23.2108 39.0399 20.3192 39.1812V42.2304H17.6008V42.2318ZM14.6017 14.9011C13.8785 15.535 13.5191 16.3274 13.5191 17.2717C13.5191 18.2194 13.8028 18.9638 14.3701 19.515C14.934 20.0662 16.0132 20.5968 17.6008 21.1033V13.7775C16.3244 13.891 15.3248 14.2668 14.6017 14.9011ZM23.5499 33.4663C24.342 32.8185 24.74 31.9982 24.74 31.0097C24.74 30.024 24.4284 29.2388 23.8061 28.6597C23.1799 28.0845 22.0178 27.54 20.3197 27.0301V34.6519C21.6786 34.5101 22.7544 34.1175 23.5499 33.4663Z" fill="#FEC200"/>
<path d="M87.6325 13.7998H37.2504V16.2603H87.6325V13.7998Z" fill="#E2E2E2"/>
<path d="M87.6325 25.2061H37.2504V27.6665H87.6325V25.2061Z" fill="#E2E2E2"/>
<path d="M87.6325 36.6055H37.2504V39.066H87.6325V36.6055Z" fill="#E2E2E2"/>
<path d="M87.6321 48.0225H7.14404V50.483H87.6321V48.0225Z" fill="#E2E2E2"/>
<path d="M87.6321 59.4395H7.14404V61.8999H87.6321V59.4395Z" fill="#E2E2E2"/>
<path d="M58.4327 70.832H7.14404V73.2925H58.4327V70.832Z" fill="#E2E2E2"/>
<path d="M87.6321 82.2432H7.14404V84.7036H87.6321V82.2432Z" fill="#E2E2E2"/>
<path d="M87.6321 93.6406H7.14404V96.1011H87.6321V93.6406Z" fill="#E2E2E2"/>
<path d="M87.6321 105.058H7.14404V107.518H87.6321V105.058Z" fill="#E2E2E2"/>
<path d="M40.6833 116.473H7.14404V118.933H40.6833V116.473Z" fill="#E2E2E2"/>
</svg>
