<svg width="64" height="64" viewBox="0 0 64 64" fill="none" xmlns="http://www.w3.org/2000/svg">
<path d="M31.9994 64C49.6721 64 63.9987 49.6731 63.9987 32C63.9987 14.3269 49.6721 0 31.9994 0C14.3266 0 0 14.3269 0 32C0 49.6731 14.3266 64 31.9994 64Z" fill="#79B5D6"/>
<path d="M48.0606 38.7394C54.8692 31.9311 54.8718 20.8958 48.0632 14.0862C41.2546 7.2767 30.2125 7.27294 23.4039 14.0812C17.2268 20.2583 16.6826 29.9472 21.6825 36.7367L16.2949 42.1248C15.9085 42.5118 15.9008 43.1693 16.2872 43.5563L18.5631 45.8333C18.9495 46.2203 19.5849 46.1889 19.9713 45.8019L25.3538 40.4189C32.188 45.4938 41.8708 44.929 48.0606 38.7394Z" fill="#DEECEC"/>
<path opacity="0.3" d="M16.3759 42.1273C15.9895 42.5143 15.9407 43.1718 16.3271 43.5588L18.5825 45.8358C18.9689 46.2228 19.6762 46.1915 20.0639 45.8044L21.1088 44.8313V37.4769L16.3759 42.1273Z" fill="#5D5D5D"/>
<path d="M45.0195 35.6997C39.8938 40.826 31.582 40.826 26.4563 35.6997C21.3306 30.5735 21.3306 22.2622 26.4563 17.1372C31.582 12.011 39.8925 12.011 45.0195 17.1372C50.1452 22.2622 50.1452 30.5735 45.0195 35.6997Z" fill="#76BED6"/>
<path d="M27.0404 35.1161C22.2447 30.3205 22.2447 22.5165 27.0404 17.7209C31.8362 12.9253 39.6397 12.924 44.4368 17.7209C49.2326 22.5165 49.2326 30.3205 44.4368 35.1174C39.6397 39.9117 31.8362 39.9117 27.0404 35.1161Z" fill="#79B5D6"/>
<path d="M46.8512 14.6273C44.0836 12.2477 40.637 10.8537 36.9939 10.6333C33.3932 10.4153 29.7386 11.4561 26.7733 13.5014C26.1199 13.9522 26.7284 15.0319 27.3844 14.5785C30.143 12.6747 33.4215 11.7279 36.7706 11.8594C40.1389 11.9922 43.4225 13.3072 45.9758 15.5015C46.5778 16.02 47.4571 15.1483 46.8512 14.6273Z" fill="#FBFFFF"/>
<path d="M44.5217 33.0157C42.523 35.0134 39.283 35.0134 37.2856 33.0157C35.287 31.0168 35.287 27.778 37.2856 25.7791C39.2843 23.7802 42.5243 23.7802 44.5217 25.7791C46.5204 27.778 46.5204 31.0168 44.5217 33.0157Z" fill="#6AA8CB"/>
<path d="M44.2893 22.0468C43.7411 22.5954 42.8516 22.5954 42.3034 22.0468C41.7553 21.4983 41.7553 20.609 42.3034 20.0617C42.8516 19.5131 43.7411 19.5131 44.2893 20.0617C44.8374 20.609 44.8374 21.4983 44.2893 22.0468Z" fill="#6AA8CB"/>
<path d="M17.2088 40.5116L6.45166 51.2689C7.78411 53.0323 9.29371 54.653 10.9548 56.1046L21.8788 45.1807C23.1625 43.897 18.4925 39.2278 17.2088 40.5116Z" fill="#334D5C"/>
<path opacity="0.3" d="M21.8239 45.1807C23.1075 43.897 18.4735 39.2266 17.1898 40.5103L13.6636 44.071V53.4105L21.8239 45.1807Z" fill="#5D5D5D"/>
<path d="M22.5785 46.2315C22.2563 46.5534 21.7338 46.5534 21.4116 46.2315L16.0998 40.9199C15.7776 40.598 15.7776 40.0745 16.0998 39.7526L17.4425 38.41C17.7647 38.0881 18.2872 38.0881 18.6094 38.41L23.9212 43.7216C24.2434 44.0435 24.2434 44.567 23.9212 44.8889L22.5785 46.2315Z" fill="#F0CE21"/>
</svg>
