<svg width="109" height="124" viewBox="0 0 109 124" fill="none" xmlns="http://www.w3.org/2000/svg">
<path d="M54.6893 0C54.6893 0 34.8252 16.8982 0.625087 18.1569C0.625087 18.1569 0.220619 111.455 54.6893 123.68C109.159 111.456 108.709 18.1569 108.709 18.1569C74.5094 16.8982 54.6893 0 54.6893 0ZM58.2897 11.1939C66.7367 16.1799 81.3711 22.9255 101.222 24.9138C100.809 32.3804 99.6534 45.2064 96.4743 58.9758H58.2897V11.1939ZM51.0363 11.2194V58.9758H12.8475C9.66848 45.2064 8.51672 32.3804 8.1073 24.9138C27.938 22.9319 42.5717 16.2033 51.0363 11.2194ZM14.6998 66.2285H51.0363V115.059C31.2056 107.82 20.4934 86.8314 14.6998 66.2285ZM58.2897 115.081V66.2285H94.622C88.8242 86.8533 78.1127 107.867 58.2897 115.081Z" fill="#355983"/>
<path d="M51.0379 66.2286H14.7014C20.4949 86.8308 31.2072 107.82 51.0379 115.059V66.2286Z" fill="#FEC200"/>
<path d="M58.29 66.2286V115.081C78.113 107.866 88.8245 86.8534 94.6223 66.2286H58.29Z" fill="#79B5D6"/>
<path d="M101.223 24.9138C81.3714 22.9255 66.737 16.18 58.29 11.194V58.9752H96.4746C99.653 45.2064 100.81 32.3798 101.223 24.9138Z" fill="#FEC200"/>
<path d="M51.036 58.975V11.2186C42.5713 16.2025 27.9377 22.9311 8.10693 24.913C8.51706 32.3796 9.66882 45.2049 12.8471 58.975H51.036Z" fill="#79B5D6"/>
</svg>
