<svg width="116" height="115" viewBox="0 0 116 115" fill="none" xmlns="http://www.w3.org/2000/svg">
<g clip-path="url(#clip0)">
<g filter="url(#filter0_i)">
<path d="M30.8407 58.8853C35.2087 69.2489 54.0622 83.8761 66.5788 86.4997C68.4733 81.6787 69.921 76.7265 72.287 72.258C75.1245 66.9122 78.0613 66.576 82.843 70.1508C90.9502 76.2017 99.0492 82.2772 107.14 88.3445C113.055 92.7802 113.063 95.2891 107.86 100.725C93.5313 115.672 76.6963 118.714 57.9586 110.654C36.6978 101.512 18.9859 87.8362 7.18073 67.6993C-0.157168 55.1629 -2.52316 41.7821 3.16019 27.7781C3.41664 27.1468 3.64001 26.499 3.95437 25.9005C7.99146 18.1442 10.3657 15.0367 18.9942 22.0879C26.5058 28.229 34.4807 33.8044 42.2157 39.6749C46.1452 42.6594 46.6995 45.4553 43.2167 48.8579C39.4774 52.4982 35.0929 55.4909 30.8407 58.8853Z" fill="#79B5D6"/>
</g>
<path d="M104.493 54.1468C98.9003 24.171 89.6679 16.3737 57.2554 13.9222C56.8666 9.75707 56.4778 5.50996 56.089 1.34484C84.8036 -6.35408 116.389 20.2929 115.992 51.9166C112.286 52.63 108.472 53.3679 104.493 54.1468Z" fill="#FEC200"/>
<path d="M56.3702 21.6218C75.8525 16.0956 97.6759 34.6091 97.0554 56.3366C94.6481 56.7711 92.158 57.2303 89.3618 57.7386C86.9048 38.7824 76.5639 29.1403 57.0817 30.2718C56.7921 27.8285 56.5191 25.6885 56.304 23.5485C56.2296 22.9008 56.3454 22.2367 56.3702 21.6218Z" fill="#FEC200"/>
<path d="M81.3539 57.0238C80.0633 57.2042 78.7314 57.3846 77.0107 57.6224C74.8846 46.4798 67.4971 41.9868 56.6019 42.0769C56.362 41.1504 56.0973 40.4125 55.9815 39.6418C55.8822 38.9941 55.9649 38.3218 55.9649 37.6986C68.5974 35.2799 81.4614 45.045 81.3539 57.0238Z" fill="#FEC200"/>
</g>
<defs>
<filter id="filter0_i" x="-0.000732422" y="18.1465" width="111.674" height="96.8585" filterUnits="userSpaceOnUse" color-interpolation-filters="sRGB">
<feFlood flood-opacity="0" result="BackgroundImageFix"/>
<feBlend mode="normal" in="SourceGraphic" in2="BackgroundImageFix" result="shape"/>
<feColorMatrix in="SourceAlpha" type="matrix" values="0 0 0 0 0 0 0 0 0 0 0 0 0 0 0 0 0 0 127 0" result="hardAlpha"/>
<feOffset dx="4" dy="-6"/>
<feComposite in2="hardAlpha" operator="arithmetic" k2="-1" k3="1"/>
<feColorMatrix type="matrix" values="0 0 0 0 0.25098 0 0 0 0 0.4 0 0 0 0 0.572549 0 0 0 1 0"/>
<feBlend mode="normal" in2="shape" result="effect1_innerShadow"/>
</filter>
<clipPath id="clip0">
<rect width="116" height="115" fill="white"/>
</clipPath>
</defs>
</svg>
