<svg width="186" height="186" viewBox="0 0 186 186" fill="none" xmlns="http://www.w3.org/2000/svg">
<g clip-path="url(#clip0)">
<path d="M57.906 38.2669C59.9486 38.6279 61.952 39.1314 63.8415 40.0066C65.9969 41.0041 68.1001 42.1073 69.7022 43.9158C71.2531 45.6674 71.9633 47.8203 72.3694 50.0813C72.93 53.2009 72.848 56.3276 72.4359 59.4555C72.4051 59.6894 72.3932 59.9245 72.373 60.1596C71.1225 61.0978 70.7532 62.5833 70.0667 64.0297C70.0667 62.9871 70.0667 62.1024 70.0667 61.2177C70.0667 61.004 70.1 60.795 69.8423 60.6655C69.3126 60.4019 68.9647 59.9388 68.6417 59.465C67.7902 58.2133 67.0752 56.8845 66.4399 55.513C66.3401 55.2992 66.2428 55.0878 66.0729 54.9121C65.3141 54.1295 64.5006 53.4111 63.5398 52.8862C61.8167 51.9433 59.9902 51.5372 58.1589 52.4183C56.7825 53.0798 55.4168 53.8089 54.2174 54.7921C53.5808 55.3146 52.8303 55.621 52.0299 55.7885C50.2818 56.153 48.6192 55.7825 46.9969 55.1508C45.6692 54.6342 44.4448 53.9122 43.2181 53.1985C42.9319 53.0323 42.781 52.986 42.7015 53.4348C42.4996 54.5796 42.2383 55.7148 41.9628 56.8453C41.4486 58.952 40.8667 61.0455 41.0793 63.2531C41.0899 63.3647 41.1576 63.5215 40.9938 63.6129C40.4 62.315 39.6518 61.1263 38.7326 60.0468C38.406 57.5163 38.0557 54.9893 37.7612 52.4563C37.5439 50.5872 38.2125 48.882 38.8965 47.1969C39.1625 46.5414 39.5057 45.918 39.7931 45.2696C40.2765 44.1771 41.0377 43.366 42.0246 42.6785C45.1408 40.5065 48.4885 38.9212 52.2733 38.3476C52.5773 38.3013 52.575 38.2871 52.4657 38.0068C52.7032 38.0068 52.9396 38.0068 53.1771 38.0068C53.069 38.2455 53.2531 38.2277 53.3778 38.2111C54.8884 38.0092 56.3966 38.1778 57.906 38.2669Z" fill="#0E0B0C"/>
<path d="M17.0273 113.393C17.2423 113.234 17.2185 112.984 17.2624 112.762C18.0201 108.955 18.716 105.133 19.5497 101.341C20.2931 97.9595 21.7752 94.9017 24.0839 92.288C26.2191 89.8714 28.8247 88.2244 31.999 87.5142C33.8825 87.0927 35.7565 86.6272 37.6353 86.1807C37.64 87.8384 37.646 89.4962 37.6471 91.1539C37.6495 93.3057 37.6471 95.4562 37.6483 97.608C37.6483 97.9927 37.6745 98.4642 38.0865 98.5437C38.9594 98.7112 39.7266 99.1862 40.6137 99.3025C41.2799 99.3904 41.4462 99.6445 41.2027 100.262C40.8168 101.239 40.3453 102.183 39.9 103.137C39.7112 103.542 39.4071 103.923 39.5781 104.405C39.9024 105.324 40.3798 106.192 40.875 107.007C41.4806 108.003 41.9177 109.082 42.5601 110.064C43.1979 111.041 43.6468 112.152 44.2548 113.165C44.3997 113.408 44.5968 113.659 44.5232 113.986C35.5546 113.986 26.5873 113.981 17.6187 114C17.114 114.001 16.924 113.891 17.0273 113.393Z" fill="#1E4153"/>
<path d="M72.9739 86.1533C75.2351 86.6948 77.5259 87.1342 79.749 87.7992C84.1431 89.1114 87.1476 92.0849 89.2176 96.0939C90.6462 98.8584 91.1889 101.852 91.5808 104.899C91.9454 107.734 92.4003 110.558 92.8159 113.385C92.8349 113.586 92.8539 113.786 92.8729 113.987C83.9851 113.987 75.0961 113.987 66.2083 113.987C66.4945 113.296 66.8567 112.644 67.1916 111.98C67.6643 111.047 68.169 110.131 68.6559 109.205C69.429 107.735 70.1261 106.223 71.0263 104.824C71.3612 104.303 71.1415 103.843 70.9562 103.415C70.4444 102.234 69.8613 101.085 69.3114 99.92C69.2438 99.7763 69.0941 99.6208 69.4041 99.5186C70.1843 99.2609 70.9515 98.9653 71.7614 98.8109C73.0594 98.5639 73.0808 98.5389 73.0808 97.2113C73.0808 93.8364 73.0796 90.4616 73.0832 87.0867C73.0856 86.7696 73.0725 86.4573 72.9739 86.1533Z" fill="#1E4153"/>
<path d="M44.522 113.986C44.5957 113.661 44.3985 113.408 44.2536 113.165C43.6456 112.151 43.1979 111.041 42.559 110.064C41.9177 109.082 41.4795 108.003 40.8738 107.007C40.3786 106.192 39.9012 105.324 39.577 104.405C39.4071 103.923 39.71 103.542 39.8988 103.137C40.343 102.183 40.8156 101.239 41.2016 100.262C41.445 99.6457 41.2788 99.3915 40.6125 99.3025C39.7254 99.1849 38.9582 98.7099 38.0854 98.5437C37.6733 98.4641 37.6472 97.9927 37.6472 97.6079C37.6472 95.4562 37.6483 93.3056 37.646 91.1538C37.6448 89.4961 37.6377 87.8384 37.6341 86.1806C39.2029 85.7579 40.7835 85.3921 42.3796 85.0869C43.433 88.324 44.4745 91.5659 45.5433 94.7983C46.092 96.4584 46.5623 98.1447 47.2131 99.7703C47.5943 101.299 48.1536 102.771 48.6298 104.269C49.5122 107.044 50.41 109.813 51.3019 112.585C51.3981 113.055 51.6641 113.485 51.632 113.985C49.2628 113.986 46.8924 113.986 44.522 113.986Z" fill="#294B5D"/>
<path d="M72.9739 86.1533C73.0725 86.4573 73.0856 86.7696 73.0856 87.0867C73.082 90.4615 73.0832 93.8364 73.0832 97.2113C73.0832 98.5401 73.0618 98.5638 71.7638 98.8108C70.9539 98.9652 70.1855 99.2609 69.4065 99.5186C69.0965 99.6207 69.245 99.7763 69.3138 99.92C69.8637 101.084 70.4456 102.234 70.9586 103.415C71.1439 103.843 71.3648 104.303 71.0287 104.824C70.1285 106.223 69.4314 107.735 68.6583 109.205C68.1714 110.13 67.6667 111.046 67.194 111.98C66.8579 112.644 66.4957 113.296 66.2107 113.987C63.8403 113.987 61.4699 113.987 59.0995 113.987C59.0366 113.51 59.3738 113.107 59.356 112.638C59.5021 112.403 59.5805 112.148 59.6007 111.872C60.3441 109.637 61.0946 107.405 61.8274 105.166C62.401 103.412 62.952 101.65 63.5125 99.8915C63.5743 99.7478 63.6467 99.6088 63.6954 99.4604C64.6015 96.7113 65.51 93.9635 66.4078 91.212C67.0729 89.1731 67.7225 87.1294 68.378 85.0869C69.9254 85.379 71.455 85.7448 72.9739 86.1533Z" fill="#294B5D"/>
<path d="M59.356 112.638C59.3739 113.107 59.0366 113.508 59.0995 113.987C56.6104 113.987 54.1224 113.987 51.6332 113.987C51.6653 113.487 51.3993 113.057 51.3031 112.587C51.4895 112.403 51.4717 112.154 51.5038 111.925C52.0489 107.945 52.5786 103.962 53.1462 99.9837C53.2555 99.2154 53.2282 98.5183 52.8351 97.8308C52.5857 97.3938 52.4159 96.9117 52.2104 96.4497C52.4052 96.287 52.5916 96.1148 52.7947 95.9652C53.5951 95.3762 54.4525 94.8656 55.2102 94.2184C55.2791 94.2172 55.348 94.216 55.4169 94.2148C55.9596 94.4238 56.2933 94.9547 56.8455 95.1482L56.8419 95.1447C56.9441 95.2349 57.0462 95.3252 57.1495 95.413C57.5652 95.7717 58.2896 95.932 58.3977 96.4307C58.5093 96.9437 58.0117 97.4686 57.8098 98.0006C57.6376 98.4542 57.4144 98.8615 57.4939 99.4078C57.9428 102.47 58.3312 105.541 58.7658 108.606C58.9546 109.95 59.0568 111.309 59.356 112.638Z" fill="#B91B04"/>
<path d="M92.9941 38.1249C92.9549 38.0857 92.9145 38.0454 92.8753 38.0062C92.9774 37.9836 93.0166 38.0228 92.9941 38.1249Z" fill="#FEFEFE"/>
<path d="M17.1461 38.0062C17.1069 38.0454 17.0665 38.0857 17.0274 38.1249C17.0048 38.0228 17.044 37.9836 17.1461 38.0062Z" fill="#FEFEFE"/>
<path d="M38.7302 60.0473C39.6506 61.1267 40.3976 62.3154 40.9914 63.6133C41.1553 63.5219 41.0876 63.3652 41.0769 63.2535C40.8655 61.0472 41.4462 58.9524 41.9604 56.8458C42.2359 55.7165 42.4972 54.58 42.6991 53.4353C42.7787 52.9852 42.9283 53.0315 43.2157 53.199C44.4436 53.9127 45.6669 54.6347 46.9946 55.1512C48.618 55.783 50.2794 56.1547 52.0275 55.7889C52.8279 55.6215 53.5785 55.3151 54.215 54.7926C55.4145 53.8093 56.7802 53.0802 58.1566 52.4188C59.989 51.5377 61.8155 51.9438 63.5375 52.8867C64.4982 53.4127 65.3117 54.13 66.0706 54.9125C66.2404 55.0883 66.3378 55.2997 66.4375 55.5134C67.0741 56.885 67.7878 58.215 68.6393 59.4654C68.9611 59.9392 69.3103 60.4023 69.8399 60.666C70.0988 60.7942 70.0644 61.0032 70.0644 61.2182C70.0644 62.1028 70.0644 62.9875 70.0644 64.0302C70.7508 62.5838 71.1189 61.0982 72.3706 60.1601C73.4193 59.558 73.8895 59.7623 74.2221 60.913C74.4679 61.762 74.3373 62.5921 74.1413 63.4115C73.7767 64.9362 73.2328 66.3814 72.0797 67.5143C71.499 68.0843 70.8672 68.5937 70.0584 68.7695C69.6665 68.855 69.4504 69.058 69.3744 69.3965C69.0692 70.7443 68.34 71.8926 67.6346 73.0397C66.8235 74.3602 65.9898 75.6724 64.9317 76.8183C64.6811 77.0903 64.4032 77.3313 64.3201 77.7125C63.2085 78.4856 62.3107 79.5116 61.2086 80.3037C60.28 80.971 59.2955 81.5755 58.2397 81.927C56.4263 82.5314 54.5808 82.8425 52.7127 81.8438C51.6202 81.2608 50.5193 80.7074 49.4861 80.0198C48.3686 79.2765 47.485 78.2552 46.4008 77.475C45.5908 76.4407 44.7489 75.429 43.9769 74.3673C42.9604 72.9685 42.0911 71.477 41.4165 69.8774C41.1529 69.2516 40.7349 68.8051 40.1399 68.418C39.1981 67.804 38.4832 66.9075 37.9346 65.9195C37.3906 64.941 36.9619 63.909 36.7589 62.7916C36.6686 62.2988 36.6615 61.8036 36.7173 61.3203C36.817 60.4582 37.3788 60.0592 38.2695 60.115C38.4238 60.128 38.5782 60.0722 38.7302 60.0473Z" fill="#F0D3B6"/>
<path d="M46.4044 77.4785C47.4886 78.2587 48.3722 79.28 49.4897 80.0233C50.5229 80.7109 51.625 81.2631 52.7163 81.8473C54.5844 82.8448 56.4299 82.5349 58.2433 81.9305C59.2979 81.579 60.2824 80.9745 61.2122 80.3071C62.3143 79.5151 63.2121 78.4891 64.3237 77.716C64.3308 78.9403 64.3367 80.1646 64.3439 81.389C64.2987 81.4258 64.2406 81.4531 64.2097 81.4994C63.2276 82.9802 62.097 84.3553 61.1505 85.867C60.394 87.0759 59.4784 88.1862 58.634 89.3393C58.0569 89.3915 58.1186 90.0043 57.8051 90.2999C57.5569 90.5339 57.2172 90.7868 57.3241 91.2321C57.3217 91.2701 57.3194 91.3069 57.317 91.3449C57.0937 91.3616 56.9738 91.4791 56.969 91.7071C56.9287 91.7855 56.8883 91.8639 56.8491 91.9411C56.3681 92.1406 56.2066 92.5847 56.0249 93.0146C55.9833 93.0918 55.9418 93.1678 55.9002 93.2449C55.5748 93.2592 55.4501 93.7354 55.063 93.6059C55.0238 93.5276 54.9834 93.4492 54.9442 93.3708C54.3884 92.1156 53.531 91.0564 52.6843 89.9971C52.5061 89.7739 52.5394 89.3321 52.1012 89.3369C52.0644 89.3345 52.0275 89.3321 51.9895 89.3286C51.9883 89.1908 51.9492 89.0697 51.8933 88.9403C51.5062 88.0425 50.7105 87.4036 50.3542 86.4833C50.2842 86.3016 50.1001 86.133 49.8495 86.1378L49.8483 86.1366C49.878 85.7886 49.827 85.5048 49.3745 85.544C48.5693 84.4004 47.7772 83.2474 46.9518 82.1193C46.7642 81.8628 46.674 81.5006 46.3153 81.3866C46.4673 80.0863 46.3949 78.7812 46.4044 77.4785Z" fill="#E7BA9A"/>
<path d="M46.3153 81.3857C46.6739 81.4997 46.7642 81.8619 46.9518 82.1184C47.7772 83.2466 48.5705 84.3996 49.3744 85.5432C49.3733 85.8674 49.5134 86.0799 49.8483 86.1357L49.8495 86.1369C49.8115 86.6048 50.1654 86.8922 50.4053 87.195C50.9551 87.8909 51.2971 88.7423 51.9895 89.3289C52.0263 89.3313 52.0631 89.3349 52.1011 89.3372C52.0904 89.6092 52.2282 89.8182 52.3754 90.0307C53.0536 91.0045 53.7222 91.9854 54.4015 92.9591C54.5345 93.1491 54.6793 93.3439 54.943 93.3724C54.9822 93.4507 55.0226 93.5291 55.0617 93.6075C55.0546 93.8248 55.0855 94.0326 55.2066 94.2202C54.449 94.8686 53.5915 95.3792 52.7911 95.967C52.588 96.1167 52.4016 96.2889 52.2068 96.4515C51.2663 96.8957 50.492 97.5892 49.6298 98.1509C48.8163 98.6805 48.1014 99.3562 47.2131 99.7742C46.5623 98.1485 46.092 96.4622 45.5433 94.8021C44.4757 91.5697 43.433 88.3279 42.3796 85.0907C43.2489 84.2405 44.1147 83.3879 44.9887 82.5424C45.4115 82.1327 45.8212 81.7099 46.3153 81.3857Z" fill="#D5D4D4"/>
<path d="M68.378 85.0868C67.7213 87.1281 67.0729 89.173 66.4079 91.2119C65.5101 93.9634 64.6016 96.7113 63.6954 99.4603C63.6467 99.6076 63.5743 99.7477 63.5125 99.8914C62.2561 99.0067 61.0008 98.1208 59.7444 97.2361C59.4308 97.0153 59.1767 96.6851 58.7456 96.6733C58.7587 96.5046 58.7029 96.355 58.6221 96.2125C58.6221 95.8788 58.6221 95.5439 58.6221 95.2031C58.4333 95.2768 58.4178 95.4537 58.3858 95.6211C58.3098 95.6199 58.2326 95.6199 58.1566 95.6188C58.1138 95.6188 58.0711 95.6188 58.0283 95.6188C57.9511 95.5784 57.8739 95.5368 57.7956 95.4964C57.7564 95.4573 57.716 95.4181 57.6768 95.3777C57.6637 95.1426 57.4951 95.139 57.3229 95.1402C57.1614 95.1414 57.0011 95.1438 56.8396 95.1449L56.8431 95.1485C56.9702 94.6438 56.3705 94.7353 56.2541 94.4301C55.8907 93.7116 56.2695 93.2711 56.8277 92.9006C56.9274 92.8341 57.0094 92.7652 57.0664 92.6524C57.6875 91.4079 58.3288 90.1776 59.4297 89.2668C59.4855 89.2205 59.5567 89.1326 59.5484 89.0744C59.4427 88.3643 60.445 88.2586 60.3619 87.5675C61.0044 87.463 61.0804 86.8396 61.3155 86.4216C61.6148 85.8872 62.3962 85.6153 62.2086 84.7888C62.1563 84.5596 62.477 84.4907 62.6979 84.4776C63.1586 84.4491 63.3784 84.1998 63.3605 83.7509C63.3487 83.4742 63.4377 83.2652 63.6349 83.0693C63.8569 82.8484 64.0173 82.58 64.1218 82.2736C64.212 82.0076 64.3593 81.7701 64.6871 81.7393C65.2559 81.9637 65.5872 82.485 66.0338 82.8567C66.8615 83.5419 67.6014 84.3363 68.378 85.0868ZM64.326 84.5762C63.8973 84.3601 63.7322 84.6522 63.5363 84.8398C63.3712 84.9978 63.294 85.1747 63.5232 85.4264C63.6752 85.0179 63.9816 84.8137 64.326 84.5762Z" fill="#D4D5D5"/>
<path d="M64.6871 81.7356C64.3593 81.7665 64.212 82.004 64.1218 82.27C64.0185 82.5752 63.857 82.8436 63.6349 83.0656C63.4377 83.2616 63.3487 83.4694 63.3605 83.7473C63.3795 84.1961 63.1587 84.4455 62.6979 84.474C62.477 84.4871 62.1563 84.5559 62.2086 84.7851C62.395 85.6116 61.6148 85.8836 61.3155 86.4179C61.0816 86.8359 61.0044 87.4606 60.3619 87.5639C60.4439 88.2538 59.4415 88.3607 59.5484 89.0708C59.5567 89.129 59.4855 89.2157 59.4297 89.2632C58.3288 90.174 57.6875 91.4043 57.0664 92.6488C57.0106 92.7616 56.9286 92.8304 56.8277 92.8969C56.2695 93.2674 55.8907 93.7092 56.2541 94.4264C56.0558 94.3065 55.8574 94.1878 55.6591 94.0678C55.595 93.7508 55.9679 93.5596 55.899 93.2413C55.9406 93.1641 55.9821 93.0881 56.0237 93.0109C56.456 92.7746 56.7279 92.4136 56.8479 91.9374C56.8883 91.8591 56.9286 91.7807 56.9678 91.7035C57.1899 91.6845 57.3122 91.5705 57.3158 91.3425C57.3182 91.3045 57.3205 91.2677 57.3229 91.2297C57.8823 90.6834 58.4084 90.1158 58.6316 89.338C59.476 88.1838 60.3916 87.0746 61.1481 85.8658C62.0946 84.3541 63.224 82.9789 64.2073 81.4981C64.2382 81.4518 64.2964 81.4245 64.3415 81.3877C64.4579 81.5041 64.5731 81.6193 64.6871 81.7356Z" fill="#D8D3D1"/>
<path d="M47.2142 99.7709C48.1025 99.3529 48.8175 98.6772 49.6309 98.1476C50.4931 97.5859 51.2686 96.8924 52.208 96.4482C52.4134 96.9102 52.5833 97.3935 52.8326 97.8293C53.2257 98.5169 53.2531 99.2139 53.1438 99.9822C52.5773 103.96 52.0465 107.943 51.5014 111.924C51.4705 112.153 51.4883 112.401 51.3007 112.585C50.41 109.814 49.511 107.044 48.6298 104.269C48.1548 102.772 47.5954 101.299 47.2142 99.7709Z" fill="#EAE7E7"/>
<path d="M58.7456 96.6719C59.1779 96.6838 59.4308 97.0139 59.7444 97.2348C61.0008 98.1194 62.2561 99.0053 63.5125 99.89C62.952 101.649 62.401 103.411 61.8274 105.165C61.0946 107.403 60.3441 109.636 59.6007 111.871C59.3976 111.733 59.4724 111.52 59.4498 111.332C59.3287 110.303 59.3133 109.245 59.0496 108.254C58.748 107.114 58.7432 105.946 58.5212 104.803C58.2908 103.616 58.2017 102.403 58.0533 101.201C57.9286 100.201 57.5569 99.2036 58.0473 98.199C58.2943 97.6967 58.514 97.1813 58.7456 96.6719Z" fill="#E9E9E9"/>
<path d="M58.7456 96.6717C58.514 97.1812 58.2943 97.6965 58.0485 98.1989C57.5581 99.2035 57.931 100.201 58.0545 101.201C58.2041 102.403 58.2932 103.616 58.5224 104.803C58.7444 105.946 58.748 107.113 59.0508 108.253C59.3133 109.245 59.3287 110.303 59.451 111.331C59.4736 111.52 59.3988 111.733 59.6019 111.871C59.5817 112.145 59.5021 112.401 59.3572 112.636C59.058 111.308 58.9558 109.949 58.7646 108.605C58.33 105.54 57.9416 102.469 57.4927 99.4065C57.4132 98.8615 57.6364 98.4542 57.8086 97.9994C58.0105 97.4674 58.5081 96.9413 58.3965 96.4295C58.2884 95.9307 57.564 95.7704 57.1483 95.4118C57.045 95.3227 56.9441 95.2325 56.8408 95.1434C57.0023 95.1422 57.1626 95.1399 57.3241 95.1387C57.3906 95.2954 57.5082 95.3738 57.678 95.3762C57.7172 95.4154 57.7576 95.4545 57.7968 95.4949C57.8739 95.5353 57.9511 95.5769 58.0295 95.6172C58.0723 95.6932 58.115 95.6944 58.1578 95.6172C58.2338 95.6184 58.311 95.6184 58.387 95.6196C58.3858 95.8488 58.3609 96.0875 58.6233 96.211C58.7029 96.3535 58.7587 96.5031 58.7456 96.6717Z" fill="#F4D2D1"/>
<path d="M55.6603 94.0693C55.8586 94.1893 56.0569 94.308 56.2553 94.428C56.3705 94.7331 56.9702 94.6417 56.8443 95.1464C56.2921 94.9528 55.9584 94.422 55.4156 94.213C55.4655 94.1121 55.5534 94.0741 55.6603 94.0693Z" fill="#F4D2D1"/>
<path d="M55.6603 94.0687C55.5534 94.0734 55.4655 94.1102 55.4157 94.2124C55.3468 94.2136 55.2779 94.2147 55.209 94.2159C55.0879 94.0283 55.057 93.8205 55.0641 93.6032C55.4501 93.7326 55.576 93.2564 55.9014 93.2422C55.9691 93.5616 55.5962 93.7516 55.6603 94.0687Z" fill="#DFC2B0"/>
<path d="M54.9442 93.3691C54.6806 93.3406 54.5357 93.1471 54.4027 92.9559C53.7234 91.9821 53.0548 91.0013 52.3767 90.0275C52.2282 89.8149 52.0916 89.6059 52.1023 89.334C52.5405 89.3304 52.5073 89.7722 52.6854 89.9954C53.531 91.0547 54.3884 92.1128 54.9442 93.3691Z" fill="#DFC2B0"/>
<path d="M51.9907 89.3278C51.2971 88.7412 50.9563 87.891 50.4064 87.1939C50.1666 86.8911 49.8127 86.6037 49.8507 86.1358C50.1012 86.1311 50.2853 86.3009 50.3554 86.4814C50.7117 87.4017 51.5073 88.0406 51.8945 88.9383C51.9503 89.069 51.9895 89.1901 51.9907 89.3278Z" fill="#DFC2B0"/>
<path d="M58.634 89.3389C58.4107 90.1167 57.8846 90.6855 57.3253 91.2305C57.2184 90.7852 57.558 90.5323 57.8062 90.2984C58.1186 90.0039 58.0568 89.3899 58.634 89.3389Z" fill="#DFC2B0"/>
<path d="M56.8479 91.9395C56.7279 92.4156 56.456 92.7766 56.0237 93.0129C56.2054 92.5831 56.3669 92.139 56.8479 91.9395Z" fill="#DFC2B0"/>
<path d="M49.8495 86.1353C49.5146 86.0794 49.3745 85.8669 49.3757 85.5427C49.8293 85.5035 49.8792 85.7873 49.8495 86.1353Z" fill="#DFC2B0"/>
<path d="M57.317 91.3438C57.3122 91.5717 57.1899 91.6869 56.969 91.7047C56.9737 91.4779 57.0937 91.3604 57.317 91.3438Z" fill="#DFC2B0"/>
<path d="M64.326 84.5764C63.9816 84.8127 63.6752 85.0169 63.5232 85.4266C63.294 85.1749 63.3712 84.9979 63.5363 84.84C63.7322 84.6524 63.8985 84.3602 64.326 84.5764Z" fill="#D8D3D1"/>
<path d="M58.6221 96.2115C58.3597 96.088 58.3846 95.8493 58.3858 95.6201C58.4178 95.4527 58.4333 95.2758 58.6221 95.2021C58.6221 95.543 58.6221 95.8778 58.6221 96.2115Z" fill="#D8D3D1"/>
<path d="M57.6768 95.3763C57.5069 95.3739 57.3882 95.2955 57.3229 95.1388C57.4951 95.1376 57.6637 95.1412 57.6768 95.3763Z" fill="#D8D3D1"/>
<path d="M57.7956 95.4947C57.7564 95.4555 57.716 95.4164 57.6768 95.376C57.7172 95.4152 57.7564 95.4544 57.7956 95.4947Z" fill="#D8D3D1"/>
<path d="M58.1566 95.6172C58.1138 95.6932 58.0711 95.6932 58.0283 95.6172C58.0711 95.6172 58.1138 95.6172 58.1566 95.6172Z" fill="#D8D3D1"/>
</g>
<g clip-path="url(#clip1)">
<path d="M133.906 71.2669C135.949 71.6279 137.952 72.1314 139.841 73.0066C141.997 74.0041 144.1 75.1073 145.702 76.9158C147.253 78.6674 147.963 80.8203 148.369 83.0813C148.93 86.2009 148.848 89.3276 148.436 92.4555C148.405 92.6894 148.393 92.9245 148.373 93.1596C147.122 94.0978 146.753 95.5833 146.067 97.0297C146.067 95.9871 146.067 95.1024 146.067 94.2177C146.067 94.004 146.1 93.795 145.842 93.6655C145.313 93.4019 144.965 92.9388 144.642 92.465C143.79 91.2133 143.075 89.8845 142.44 88.513C142.34 88.2992 142.243 88.0878 142.073 87.9121C141.314 87.1295 140.501 86.4111 139.54 85.8862C137.817 84.9433 135.99 84.5372 134.159 85.4183C132.783 86.0798 131.417 86.8089 130.217 87.7921C129.581 88.3146 128.83 88.621 128.03 88.7885C126.282 89.153 124.619 88.7825 122.997 88.1508C121.669 87.6342 120.445 86.9122 119.218 86.1985C118.932 86.0323 118.781 85.986 118.701 86.4348C118.5 87.5796 118.238 88.7148 117.963 89.8453C117.449 91.952 116.867 94.0455 117.079 96.2531C117.09 96.3647 117.158 96.5215 116.994 96.6129C116.4 95.315 115.652 94.1263 114.733 93.0468C114.406 90.5163 114.056 87.9893 113.761 85.4563C113.544 83.5872 114.212 81.882 114.896 80.1969C115.163 79.5414 115.506 78.918 115.793 78.2696C116.276 77.1771 117.038 76.366 118.025 75.6785C121.141 73.5065 124.489 71.9212 128.273 71.3476C128.577 71.3013 128.575 71.2871 128.466 71.0068C128.703 71.0068 128.94 71.0068 129.177 71.0068C129.069 71.2455 129.253 71.2277 129.378 71.2111C130.888 71.0092 132.397 71.1778 133.906 71.2669Z" fill="#0E0B0C"/>
<path d="M93.0273 146.393C93.2423 146.234 93.2185 145.984 93.2624 145.762C94.0201 141.955 94.716 138.133 95.5497 134.341C96.2931 130.959 97.7752 127.902 100.084 125.288C102.219 122.871 104.825 121.224 107.999 120.514C109.883 120.093 111.757 119.627 113.635 119.181C113.64 120.838 113.646 122.496 113.647 124.154C113.65 126.306 113.647 128.456 113.648 130.608C113.648 130.993 113.674 131.464 114.087 131.544C114.959 131.711 115.727 132.186 116.614 132.303C117.28 132.39 117.446 132.645 117.203 133.262C116.817 134.239 116.345 135.183 115.9 136.137C115.711 136.542 115.407 136.923 115.578 137.405C115.902 138.324 116.38 139.192 116.875 140.007C117.481 141.003 117.918 142.082 118.56 143.064C119.198 144.041 119.647 145.152 120.255 146.165C120.4 146.408 120.597 146.659 120.523 146.986C111.555 146.986 102.587 146.981 93.6187 147C93.114 147.001 92.924 146.891 93.0273 146.393Z" fill="#1E4153"/>
<path d="M148.974 119.153C151.235 119.695 153.526 120.134 155.749 120.799C160.143 122.111 163.148 125.085 165.218 129.094C166.646 131.858 167.189 134.852 167.581 137.899C167.945 140.734 168.4 143.558 168.816 146.385C168.835 146.586 168.854 146.786 168.873 146.987C159.985 146.987 151.096 146.987 142.208 146.987C142.495 146.296 142.857 145.644 143.192 144.98C143.664 144.047 144.169 143.131 144.656 142.205C145.429 140.735 146.126 139.223 147.026 137.824C147.361 137.303 147.141 136.843 146.956 136.415C146.444 135.234 145.861 134.085 145.311 132.92C145.244 132.776 145.094 132.621 145.404 132.519C146.184 132.261 146.951 131.965 147.761 131.811C149.059 131.564 149.081 131.539 149.081 130.211C149.081 126.836 149.08 123.462 149.083 120.087C149.086 119.77 149.072 119.457 148.974 119.153Z" fill="#1E4153"/>
<path d="M120.522 146.986C120.596 146.661 120.399 146.408 120.254 146.165C119.646 145.151 119.198 144.041 118.559 143.064C117.918 142.082 117.479 141.003 116.874 140.007C116.379 139.192 115.901 138.324 115.577 137.405C115.407 136.923 115.71 136.542 115.899 136.137C116.343 135.183 116.816 134.239 117.202 133.262C117.445 132.646 117.279 132.392 116.613 132.302C115.725 132.185 114.958 131.71 114.085 131.544C113.673 131.464 113.647 130.993 113.647 130.608C113.647 128.456 113.648 126.306 113.646 124.154C113.645 122.496 113.638 120.838 113.634 119.181C115.203 118.758 116.784 118.392 118.38 118.087C119.433 121.324 120.475 124.566 121.543 127.798C122.092 129.458 122.562 131.145 123.213 132.77C123.594 134.299 124.154 135.771 124.63 137.269C125.512 140.044 126.41 142.813 127.302 145.585C127.398 146.055 127.664 146.485 127.632 146.985C125.263 146.986 122.892 146.986 120.522 146.986Z" fill="#294B5D"/>
<path d="M148.974 119.153C149.073 119.457 149.086 119.77 149.086 120.087C149.082 123.462 149.083 126.836 149.083 130.211C149.083 131.54 149.062 131.564 147.764 131.811C146.954 131.965 146.186 132.261 145.406 132.519C145.097 132.621 145.245 132.776 145.314 132.92C145.864 134.084 146.446 135.234 146.959 136.415C147.144 136.843 147.365 137.303 147.029 137.824C146.129 139.223 145.431 140.735 144.658 142.205C144.171 143.13 143.667 144.046 143.194 144.98C142.858 145.644 142.496 146.296 142.211 146.987C139.84 146.987 137.47 146.987 135.1 146.987C135.037 146.51 135.374 146.107 135.356 145.638C135.502 145.403 135.58 145.148 135.601 144.872C136.344 142.637 137.095 140.405 137.827 138.166C138.401 136.412 138.952 134.65 139.513 132.891C139.574 132.748 139.647 132.609 139.695 132.46C140.602 129.711 141.51 126.963 142.408 124.212C143.073 122.173 143.722 120.129 144.378 118.087C145.925 118.379 147.455 118.745 148.974 119.153Z" fill="#294B5D"/>
<path d="M135.356 145.638C135.374 146.107 135.037 146.508 135.1 146.987C132.61 146.987 130.122 146.987 127.633 146.987C127.665 146.487 127.399 146.057 127.303 145.587C127.49 145.403 127.472 145.154 127.504 144.925C128.049 140.945 128.579 136.962 129.146 132.984C129.255 132.215 129.228 131.518 128.835 130.831C128.586 130.394 128.416 129.912 128.21 129.45C128.405 129.287 128.592 129.115 128.795 128.965C129.595 128.376 130.453 127.866 131.21 127.218C131.279 127.217 131.348 127.216 131.417 127.215C131.96 127.424 132.293 127.955 132.846 128.148L132.842 128.145C132.944 128.235 133.046 128.325 133.15 128.413C133.565 128.772 134.29 128.932 134.398 129.431C134.509 129.944 134.012 130.469 133.81 131.001C133.638 131.454 133.414 131.862 133.494 132.408C133.943 135.47 134.331 138.541 134.766 141.606C134.955 142.95 135.057 144.309 135.356 145.638Z" fill="#B91B04"/>
<path d="M168.994 71.1249C168.955 71.0857 168.914 71.0454 168.875 71.0062C168.977 70.9836 169.017 71.0228 168.994 71.1249Z" fill="#FEFEFE"/>
<path d="M93.1461 71.0062C93.1069 71.0454 93.0665 71.0857 93.0274 71.1249C93.0048 71.0228 93.044 70.9836 93.1461 71.0062Z" fill="#FEFEFE"/>
<path d="M114.73 93.0473C115.651 94.1267 116.398 95.3154 116.991 96.6133C117.155 96.5219 117.088 96.3652 117.077 96.2535C116.865 94.0472 117.446 91.9524 117.96 89.8458C118.236 88.7165 118.497 87.58 118.699 86.4353C118.779 85.9852 118.928 86.0315 119.216 86.199C120.444 86.9127 121.667 87.6347 122.995 88.1512C124.618 88.783 126.279 89.1547 128.027 88.7889C128.828 88.6215 129.578 88.3151 130.215 87.7926C131.414 86.8093 132.78 86.0802 134.157 85.4188C135.989 84.5377 137.815 84.9438 139.537 85.8867C140.498 86.4127 141.312 87.13 142.071 87.9125C142.24 88.0883 142.338 88.2997 142.438 88.5134C143.074 89.885 143.788 91.215 144.639 92.4654C144.961 92.9392 145.31 93.4023 145.84 93.666C146.099 93.7942 146.064 94.0032 146.064 94.2182C146.064 95.1028 146.064 95.9875 146.064 97.0302C146.751 95.5838 147.119 94.0982 148.371 93.1601C149.419 92.558 149.89 92.7623 150.222 93.913C150.468 94.762 150.337 95.5921 150.141 96.4115C149.777 97.9362 149.233 99.3814 148.08 100.514C147.499 101.084 146.867 101.594 146.058 101.769C145.667 101.855 145.45 102.058 145.374 102.396C145.069 103.744 144.34 104.893 143.635 106.04C142.823 107.36 141.99 108.672 140.932 109.818C140.681 110.09 140.403 110.331 140.32 110.713C139.209 111.486 138.311 112.512 137.209 113.304C136.28 113.971 135.295 114.575 134.24 114.927C132.426 115.531 130.581 115.843 128.713 114.844C127.62 114.261 126.519 113.707 125.486 113.02C124.369 112.276 123.485 111.255 122.401 110.475C121.591 109.441 120.749 108.429 119.977 107.367C118.96 105.968 118.091 104.477 117.417 102.877C117.153 102.252 116.735 101.805 116.14 101.418C115.198 100.804 114.483 99.9075 113.935 98.9195C113.391 97.941 112.962 96.909 112.759 95.7916C112.669 95.2988 112.661 94.8036 112.717 94.3203C112.817 93.4582 113.379 93.0592 114.269 93.115C114.424 93.128 114.578 93.0722 114.73 93.0473Z" fill="#F0D3B6"/>
<path d="M122.404 110.479C123.489 111.259 124.372 112.28 125.49 113.023C126.523 113.711 127.625 114.263 128.716 114.847C130.584 115.845 132.43 115.535 134.243 114.93C135.298 114.579 136.282 113.975 137.212 113.307C138.314 112.515 139.212 111.489 140.324 110.716C140.331 111.94 140.337 113.165 140.344 114.389C140.299 114.426 140.241 114.453 140.21 114.499C139.228 115.98 138.097 117.355 137.15 118.867C136.394 120.076 135.478 121.186 134.634 122.339C134.057 122.392 134.119 123.004 133.805 123.3C133.557 123.534 133.217 123.787 133.324 124.232C133.322 124.27 133.319 124.307 133.317 124.345C133.094 124.362 132.974 124.479 132.969 124.707C132.929 124.786 132.888 124.864 132.849 124.941C132.368 125.141 132.207 125.585 132.025 126.015C131.983 126.092 131.942 126.168 131.9 126.245C131.575 126.259 131.45 126.735 131.063 126.606C131.024 126.528 130.983 126.449 130.944 126.371C130.388 125.116 129.531 124.056 128.684 122.997C128.506 122.774 128.539 122.332 128.101 122.337C128.064 122.335 128.028 122.332 127.99 122.329C127.988 122.191 127.949 122.07 127.893 121.94C127.506 121.043 126.711 120.404 126.354 119.483C126.284 119.302 126.1 119.133 125.85 119.138L125.848 119.137C125.878 118.789 125.827 118.505 125.374 118.544C124.569 117.4 123.777 116.247 122.952 115.119C122.764 114.863 122.674 114.501 122.315 114.387C122.467 113.086 122.395 111.781 122.404 110.479Z" fill="#E7BA9A"/>
<path d="M122.315 114.386C122.674 114.5 122.764 114.862 122.952 115.118C123.777 116.247 124.57 117.4 125.374 118.543C125.373 118.867 125.513 119.08 125.848 119.136L125.849 119.137C125.811 119.605 126.165 119.892 126.405 120.195C126.955 120.891 127.297 121.742 127.989 122.329C128.026 122.331 128.063 122.335 128.101 122.337C128.09 122.609 128.228 122.818 128.375 123.031C129.054 124.004 129.722 124.985 130.401 125.959C130.534 126.149 130.679 126.344 130.943 126.372C130.982 126.451 131.023 126.529 131.062 126.607C131.055 126.825 131.085 127.033 131.207 127.22C130.449 127.869 129.592 128.379 128.791 128.967C128.588 129.117 128.402 129.289 128.207 129.452C127.266 129.896 126.492 130.589 125.63 131.151C124.816 131.68 124.101 132.356 123.213 132.774C122.562 131.148 122.092 129.462 121.543 127.802C120.476 124.57 119.433 121.328 118.38 118.091C119.249 117.24 120.115 116.388 120.989 115.542C121.412 115.133 121.821 114.71 122.315 114.386Z" fill="#D5D4D4"/>
<path d="M144.378 118.087C143.721 120.128 143.073 122.173 142.408 124.212C141.51 126.963 140.602 129.711 139.695 132.46C139.647 132.608 139.574 132.748 139.513 132.891C138.256 132.007 137.001 131.121 135.744 130.236C135.431 130.015 135.177 129.685 134.746 129.673C134.759 129.505 134.703 129.355 134.622 129.213C134.622 128.879 134.622 128.544 134.622 128.203C134.433 128.277 134.418 128.454 134.386 128.621C134.31 128.62 134.233 128.62 134.157 128.619C134.114 128.619 134.071 128.619 134.028 128.619C133.951 128.578 133.874 128.537 133.796 128.496C133.756 128.457 133.716 128.418 133.677 128.378C133.664 128.143 133.495 128.139 133.323 128.14C133.161 128.141 133.001 128.144 132.84 128.145L132.843 128.149C132.97 127.644 132.37 127.735 132.254 127.43C131.891 126.712 132.27 126.271 132.828 125.901C132.927 125.834 133.009 125.765 133.066 125.652C133.687 124.408 134.329 123.178 135.43 122.267C135.485 122.221 135.557 122.133 135.548 122.074C135.443 121.364 136.445 121.259 136.362 120.568C137.004 120.463 137.08 119.84 137.316 119.422C137.615 118.887 138.396 118.615 138.209 117.789C138.156 117.56 138.477 117.491 138.698 117.478C139.159 117.449 139.378 117.2 139.361 116.751C139.349 116.474 139.438 116.265 139.635 116.069C139.857 115.848 140.017 115.58 140.122 115.274C140.212 115.008 140.359 114.77 140.687 114.739C141.256 114.964 141.587 115.485 142.034 115.857C142.862 116.542 143.601 117.336 144.378 118.087ZM140.326 117.576C139.897 117.36 139.732 117.652 139.536 117.84C139.371 117.998 139.294 118.175 139.523 118.426C139.675 118.018 139.982 117.814 140.326 117.576Z" fill="#D4D5D5"/>
<path d="M140.687 114.736C140.359 114.767 140.212 115.004 140.122 115.27C140.018 115.575 139.857 115.844 139.635 116.066C139.438 116.262 139.349 116.469 139.361 116.747C139.38 117.196 139.159 117.446 138.698 117.474C138.477 117.487 138.156 117.556 138.209 117.785C138.395 118.612 137.615 118.884 137.316 119.418C137.082 119.836 137.004 120.461 136.362 120.564C136.444 121.254 135.442 121.361 135.548 122.071C135.557 122.129 135.485 122.216 135.43 122.263C134.329 123.174 133.688 124.404 133.066 125.649C133.011 125.762 132.929 125.83 132.828 125.897C132.27 126.267 131.891 126.709 132.254 127.426C132.056 127.307 131.857 127.188 131.659 127.068C131.595 126.751 131.968 126.56 131.899 126.241C131.941 126.164 131.982 126.088 132.024 126.011C132.456 125.775 132.728 125.414 132.848 124.937C132.888 124.859 132.929 124.781 132.968 124.704C133.19 124.685 133.312 124.571 133.316 124.343C133.318 124.305 133.321 124.268 133.323 124.23C133.882 123.683 134.408 123.116 134.632 122.338C135.476 121.184 136.392 120.075 137.148 118.866C138.095 117.354 139.224 115.979 140.207 114.498C140.238 114.452 140.296 114.425 140.341 114.388C140.458 114.504 140.573 114.619 140.687 114.736Z" fill="#D8D3D1"/>
<path d="M123.214 132.771C124.103 132.353 124.817 131.677 125.631 131.148C126.493 130.586 127.269 129.892 128.208 129.448C128.413 129.91 128.583 130.393 128.833 130.829C129.226 131.517 129.253 132.214 129.144 132.982C128.577 136.96 128.046 140.943 127.501 144.924C127.47 145.153 127.488 145.401 127.301 145.585C126.41 142.814 125.511 140.044 124.63 137.269C124.155 135.772 123.595 134.299 123.214 132.771Z" fill="#EAE7E7"/>
<path d="M134.746 129.672C135.178 129.684 135.431 130.014 135.744 130.235C137.001 131.119 138.256 132.005 139.513 132.89C138.952 134.649 138.401 136.411 137.827 138.165C137.095 140.403 136.344 142.636 135.601 144.871C135.398 144.733 135.472 144.52 135.45 144.332C135.329 143.303 135.313 142.245 135.05 141.254C134.748 140.114 134.743 138.946 134.521 137.803C134.291 136.616 134.202 135.403 134.053 134.201C133.929 133.201 133.557 132.204 134.047 131.199C134.294 130.697 134.514 130.181 134.746 129.672Z" fill="#E9E9E9"/>
<path d="M134.746 129.672C134.514 130.181 134.294 130.697 134.049 131.199C133.558 132.203 133.931 133.201 134.054 134.201C134.204 135.403 134.293 136.616 134.522 137.803C134.744 138.946 134.748 140.113 135.051 141.253C135.313 142.245 135.329 143.303 135.451 144.331C135.474 144.52 135.399 144.733 135.602 144.871C135.582 145.145 135.502 145.401 135.357 145.636C135.058 144.308 134.956 142.949 134.765 141.605C134.33 138.54 133.942 135.469 133.493 132.407C133.413 131.861 133.636 131.454 133.809 130.999C134.011 130.467 134.508 129.941 134.396 129.429C134.288 128.931 133.564 128.77 133.148 128.412C133.045 128.323 132.944 128.232 132.841 128.143C133.002 128.142 133.163 128.14 133.324 128.139C133.391 128.295 133.508 128.374 133.678 128.376C133.717 128.415 133.758 128.455 133.797 128.495C133.874 128.535 133.951 128.577 134.03 128.617C134.072 128.693 134.115 128.694 134.158 128.617C134.234 128.618 134.311 128.618 134.387 128.62C134.386 128.849 134.361 129.087 134.623 129.211C134.703 129.353 134.759 129.503 134.746 129.672Z" fill="#F4D2D1"/>
<path d="M131.66 127.069C131.859 127.189 132.057 127.308 132.255 127.428C132.37 127.733 132.97 127.642 132.844 128.146C132.292 127.953 131.958 127.422 131.416 127.213C131.466 127.112 131.553 127.074 131.66 127.069Z" fill="#F4D2D1"/>
<path d="M131.66 127.069C131.553 127.073 131.466 127.11 131.416 127.212C131.347 127.214 131.278 127.215 131.209 127.216C131.088 127.028 131.057 126.82 131.064 126.603C131.45 126.733 131.576 126.256 131.901 126.242C131.969 126.562 131.596 126.752 131.66 127.069Z" fill="#DFC2B0"/>
<path d="M130.944 126.369C130.681 126.341 130.536 126.147 130.403 125.956C129.723 124.982 129.055 124.001 128.377 123.028C128.228 122.815 128.092 122.606 128.102 122.334C128.541 122.33 128.507 122.772 128.685 122.995C129.531 124.055 130.388 125.113 130.944 126.369Z" fill="#DFC2B0"/>
<path d="M127.991 122.328C127.297 121.741 126.956 120.891 126.406 120.194C126.167 119.891 125.813 119.604 125.851 119.136C126.101 119.131 126.285 119.301 126.355 119.481C126.712 120.402 127.507 121.041 127.894 121.938C127.95 122.069 127.989 122.19 127.991 122.328Z" fill="#DFC2B0"/>
<path d="M134.634 122.339C134.411 123.117 133.885 123.685 133.325 124.231C133.218 123.785 133.558 123.532 133.806 123.298C134.119 123.004 134.057 122.39 134.634 122.339Z" fill="#DFC2B0"/>
<path d="M132.848 124.939C132.728 125.416 132.456 125.777 132.024 126.013C132.205 125.583 132.367 125.139 132.848 124.939Z" fill="#DFC2B0"/>
<path d="M125.85 119.135C125.515 119.079 125.374 118.867 125.376 118.543C125.829 118.504 125.879 118.787 125.85 119.135Z" fill="#DFC2B0"/>
<path d="M133.317 124.344C133.312 124.572 133.19 124.687 132.969 124.705C132.974 124.478 133.094 124.36 133.317 124.344Z" fill="#DFC2B0"/>
<path d="M140.326 117.576C139.982 117.813 139.675 118.017 139.523 118.427C139.294 118.175 139.371 117.998 139.536 117.84C139.732 117.652 139.899 117.36 140.326 117.576Z" fill="#D8D3D1"/>
<path d="M134.622 129.212C134.36 129.088 134.385 128.849 134.386 128.62C134.418 128.453 134.433 128.276 134.622 128.202C134.622 128.543 134.622 128.878 134.622 129.212Z" fill="#D8D3D1"/>
<path d="M133.677 128.376C133.507 128.374 133.388 128.296 133.323 128.139C133.495 128.138 133.664 128.141 133.677 128.376Z" fill="#D8D3D1"/>
<path d="M133.796 128.495C133.756 128.456 133.716 128.416 133.677 128.376C133.717 128.415 133.756 128.454 133.796 128.495Z" fill="#D8D3D1"/>
<path d="M134.157 128.617C134.114 128.693 134.071 128.693 134.028 128.617C134.071 128.617 134.114 128.617 134.157 128.617Z" fill="#D8D3D1"/>
</g>
<defs>
<clipPath id="clip0">
<rect width="76" height="76" fill="white" transform="translate(17 38)"/>
</clipPath>
<clipPath id="clip1">
<rect width="76" height="76" fill="white" transform="translate(93 71)"/>
</clipPath>
</defs>
</svg>
