<svg width="109" height="109" viewBox="0 0 109 109" fill="none" xmlns="http://www.w3.org/2000/svg">
<path d="M96.4391 68.8366C112.22 53.0899 112.226 27.5666 96.4451 11.8169C80.6645 -3.9327 55.0716 -3.94139 39.291 11.8054C24.9742 26.0921 23.7127 48.5014 35.3012 64.2047L22.8142 76.6665C21.9187 77.5616 21.9008 79.0824 22.7963 79.9775L28.0714 85.2438C28.967 86.1389 30.4397 86.0665 31.3352 85.1714L43.8104 72.7212C59.6505 84.4588 82.0926 83.1524 96.4391 68.8366Z" fill="#79B5D6"/>
<path opacity="0.3" d="M23.0016 76.6721C22.1061 77.5672 21.993 79.088 22.8885 79.9831L28.116 85.2494C29.0116 86.1445 30.6509 86.0721 31.5494 85.177L33.9713 82.9262V65.9165L23.0016 76.6721Z" fill="#5D5D5D"/>
<path d="M89.3906 61.806C77.5105 73.6624 58.246 73.6624 46.3659 61.806C34.4858 49.9496 34.4858 30.7268 46.3659 18.8733C58.246 7.01685 77.5076 7.01685 89.3906 18.8733C101.271 30.7268 101.271 49.9496 89.3906 61.806Z" fill="#406692"/>
<path d="M93.6365 13.0682C87.2219 7.5644 79.2335 4.34031 70.7898 3.83048C62.4443 3.32645 53.9738 5.73365 47.101 10.4641C45.5866 11.5069 46.9969 14.0039 48.5172 12.9553C54.911 8.55219 62.5097 6.36225 70.2721 6.66641C78.0791 6.97346 85.6897 10.0151 91.6074 15.0902C93.0028 16.2894 95.0408 14.2733 93.6365 13.0682Z" fill="#FBFFFF"/>
<path d="M88.2364 55.5984C83.604 60.2187 76.0945 60.2187 71.465 55.5984C66.8326 50.9752 66.8326 43.4842 71.465 38.861C76.0975 34.2378 83.607 34.2378 88.2364 38.861C92.8689 43.4842 92.8689 50.9752 88.2364 55.5984Z" fill="#355983"/>
<path d="M87.6978 30.2285C86.4274 31.4973 84.3656 31.4973 83.0951 30.2285C81.8247 28.9597 81.8247 26.903 83.0951 25.6371C84.3656 24.3684 86.4274 24.3684 87.6978 25.6371C88.9682 26.903 88.9682 28.9597 87.6978 30.2285Z" fill="#355983"/>
<path d="M24.9324 72.9358L0 97.816C3.08828 101.895 6.58715 105.643 10.4371 109L35.7563 83.7349C38.7315 80.7657 27.9076 69.9666 24.9324 72.9358Z" fill="#9FCBE2"/>
<path d="M37.3778 86.1647C36.631 86.9091 35.4201 86.9091 34.6733 86.1647L22.3618 73.8796C21.6151 73.1351 21.6151 71.9242 22.3618 71.1798L25.4739 68.0745C26.2207 67.33 27.4316 67.33 28.1784 68.0745L40.4899 80.3596C41.2367 81.1041 41.2367 82.3149 40.4899 83.0594L37.3778 86.1647Z" fill="#FEC200"/>
</svg>
