<svg width="64" height="64" viewBox="0 0 64 64" fill="none" xmlns="http://www.w3.org/2000/svg">
<g clip-path="url(#clip0)">
<path d="M63.9998 31.7346C64.1473 49.4071 49.9398 63.8521 32.2673 63.9996C14.5948 64.1471 0.149828 49.9396 0.00232766 32.2671C-0.141422 14.9746 13.7323 0.152054 31.7348 0.0020537C49.4073 -0.145446 63.8536 14.0621 63.9998 31.7346Z" fill="#79B5D6"/>
<g clip-path="url(#clip1)">
<rect width="44" height="23" transform="translate(10 21)" fill="#619062"/>
<rect x="10" y="21" width="61" height="32" fill="#1D8127"/>
<rect x="24.9263" y="25.0938" width="14.8689" height="14.0938" rx="7.04688" fill="white"/>
<path d="M32.0543 36.3878H32.6803L32.6836 35.6412C34.0922 35.5384 34.898 34.7354 34.898 33.6603C34.898 32.436 33.8025 31.9615 32.9367 31.7491L32.6936 31.6861L32.7003 29.5559C33.323 29.6388 33.7492 29.9839 33.8125 30.5281H34.8048C34.7782 29.516 33.939 28.7595 32.7036 28.66L32.707 27.8935H32.0809L32.0776 28.6666C30.8822 28.7861 30.0064 29.5293 30.0064 30.6011C30.0064 31.5467 30.6857 32.1008 31.7812 32.3961L32.0676 32.4725L32.0609 34.7321C31.4116 34.6524 30.9088 34.3007 30.8555 33.6603H29.8232C29.8865 34.8051 30.7157 35.5417 32.0576 35.6412L32.0543 36.3878ZM32.687 34.7321L32.6936 32.645C33.3696 32.8308 33.8791 33.0764 33.8791 33.6504C33.8791 34.2311 33.3929 34.6392 32.687 34.7321ZM32.0709 31.5202C31.5748 31.3742 31.0287 31.112 31.032 30.5413C31.032 30.0436 31.4283 29.6554 32.0743 29.5592L32.0709 31.5202Z" fill="#FEC200"/>
<rect x="24.9263" y="25.0938" width="14.8689" height="14.0938" rx="7.04688" stroke="#2E6C18"/>
<path fill-rule="evenodd" clip-rule="evenodd" d="M12.1639 26.5416C13.7925 26.0587 15.0767 24.779 15.5614 23.1562H48.4386C48.9233 24.779 50.2075 26.0587 51.836 26.5416V38.4584C50.2075 38.9413 48.9233 40.221 48.4386 41.8438H15.5614C15.0767 40.221 13.7925 38.9413 12.1639 38.4584V26.5416ZM15.7193 44C15.3693 46.4382 13.265 48.3125 10.7213 48.3125C7.93271 48.3125 5.67212 46.0599 5.67212 43.2812C5.67212 40.7466 7.55309 38.6497 9.99999 38.301V26.699C7.55309 26.3503 5.67212 24.2534 5.67212 21.7188C5.67212 18.9401 7.93271 16.6875 10.7213 16.6875C13.265 16.6875 15.3693 18.5618 15.7193 21H48.2806C48.6306 18.5618 50.735 16.6875 53.2787 16.6875C56.0673 16.6875 58.3279 18.9401 58.3279 21.7188C58.3279 24.2534 56.4469 26.3503 54 26.6991V38.3009C56.4469 38.6497 58.3279 40.7466 58.3279 43.2812C58.3279 46.0599 56.0673 48.3125 53.2787 48.3125C50.735 48.3125 48.6306 46.4382 48.2806 44H15.7193Z" fill="#2E6C18"/>
</g>
<g clip-path="url(#clip2)">
<rect width="44" height="23" transform="translate(10 21)" fill="#9DCC50"/>
<rect x="10" y="21" width="61" height="32" fill="#9DCC50"/>
<rect x="24.9263" y="25.0938" width="14.8689" height="14.0938" rx="7.04688" fill="white"/>
<path d="M32.0543 36.3878H32.6803L32.6836 35.6412C34.0922 35.5384 34.898 34.7354 34.898 33.6603C34.898 32.436 33.8025 31.9615 32.9367 31.7491L32.6936 31.6861L32.7003 29.5559C33.323 29.6388 33.7492 29.9839 33.8125 30.5281H34.8048C34.7782 29.516 33.939 28.7595 32.7036 28.66L32.707 27.8935H32.0809L32.0776 28.6666C30.8822 28.7861 30.0064 29.5293 30.0064 30.6011C30.0064 31.5467 30.6857 32.1008 31.7812 32.3961L32.0676 32.4725L32.0609 34.7321C31.4116 34.6524 30.9088 34.3007 30.8555 33.6603H29.8232C29.8865 34.8051 30.7157 35.5417 32.0576 35.6412L32.0543 36.3878ZM32.687 34.7321L32.6936 32.645C33.3696 32.8308 33.8791 33.0764 33.8791 33.6504C33.8791 34.2311 33.3929 34.6392 32.687 34.7321ZM32.0709 31.5202C31.5748 31.3742 31.0287 31.112 31.032 30.5413C31.032 30.0436 31.4283 29.6554 32.0743 29.5592L32.0709 31.5202Z" fill="#619062"/>
<rect x="24.9263" y="25.0938" width="14.8689" height="14.0938" rx="7.04688" stroke="#619062"/>
<path fill-rule="evenodd" clip-rule="evenodd" d="M12.1639 26.5416C13.7925 26.0587 15.0767 24.779 15.5614 23.1562H48.4386C48.9233 24.779 50.2075 26.0587 51.836 26.5416V38.4584C50.2075 38.9413 48.9233 40.221 48.4386 41.8438H15.5614C15.0767 40.221 13.7925 38.9413 12.1639 38.4584V26.5416ZM15.7193 44C15.3693 46.4382 13.265 48.3125 10.7213 48.3125C7.93271 48.3125 5.67212 46.0599 5.67212 43.2812C5.67212 40.7466 7.55309 38.6497 9.99999 38.301V26.699C7.55309 26.3503 5.67212 24.2534 5.67212 21.7188C5.67212 18.9401 7.93271 16.6875 10.7213 16.6875C13.265 16.6875 15.3693 18.5618 15.7193 21H48.2806C48.6306 18.5618 50.735 16.6875 53.2787 16.6875C56.0673 16.6875 58.3279 18.9401 58.3279 21.7188C58.3279 24.2534 56.4469 26.3503 54 26.6991V38.3009C56.4469 38.6497 58.3279 40.7466 58.3279 43.2812C58.3279 46.0599 56.0673 48.3125 53.2787 48.3125C50.735 48.3125 48.6306 46.4382 48.2806 44H15.7193Z" fill="#619062"/>
</g>
</g>
<defs>
<clipPath id="clip0">
<rect width="64" height="64" fill="white"/>
</clipPath>
<clipPath id="clip1">
<rect width="44" height="23" fill="white" transform="translate(10 21)"/>
</clipPath>
<clipPath id="clip2">
<rect width="44" height="23" fill="white" transform="translate(10 21)"/>
</clipPath>
</defs>
</svg>
