<svg width="163" height="162" viewBox="0 0 163 162" fill="none" xmlns="http://www.w3.org/2000/svg">
<path d="M142.665 31.3555H21.5312C19.7708 31.3555 18.3436 32.7726 18.3436 34.52V119.149H145.853V34.52C145.853 32.7726 144.426 31.3555 142.665 31.3555Z" fill="#355983"/>
<path d="M137.492 37.627H26.7048V111.833H137.492V37.627Z" fill="#79B5D6"/>
<path d="M152.124 119.148H12.0726V127.51H152.124V119.148Z" fill="#79B5D6"/>
<path d="M151.495 127.867H12.7024L21.8417 130.646H142.355L151.495 127.867Z" fill="#9FCBE2"/>
<path d="M91.4617 122.443H72.7101V124.493H91.4617V122.443Z" fill="#6AA8CB"/>
<rect x="56.4919" y="44.4199" width="49.6586" height="60.9677" rx="5" fill="white"/>
<rect x="60.0391" y="94.7852" width="41.6777" height="6.18514" rx="3.09257" fill="#FDDA2A"/>
<rect x="60.0391" y="47.9551" width="41.6777" height="4.41795" rx="1" fill="#0C5E9C" fill-opacity="0.15"/>
<rect x="60.0391" y="55.0234" width="19.5087" height="4.41795" rx="1" fill="#0C5E9C" fill-opacity="0.15"/>
<rect x="60.0391" y="82.4141" width="19.5087" height="4.41795" rx="1" fill="#0C5E9C" fill-opacity="0.15"/>
<rect x="60.0391" y="62.0918" width="41.6777" height="4.41796" rx="1" fill="#0C5E9C" fill-opacity="0.15"/>
<rect x="60.0391" y="69.1602" width="32.8101" height="4.41795" rx="1" fill="#0C5E9C" fill-opacity="0.15"/>
<rect x="60.0391" y="75.3457" width="41.6777" height="4.41796" rx="1" fill="#0C5E9C" fill-opacity="0.15"/>
<rect x="82.2081" y="55.0234" width="19.5087" height="4.41795" rx="1" fill="#0C5E9C" fill-opacity="0.15"/>
<rect x="82.2081" y="82.4141" width="19.5087" height="4.41795" rx="1" fill="#0C5E9C" fill-opacity="0.15"/>
<path d="M125.124 92.3198L100.04 82.7422L110.035 106.781L113.063 99.1662L119.147 104.996L123.262 101.053L117.178 95.2222L125.124 92.3198Z" fill="#406692"/>
</svg>
