<svg width="104" height="136" viewBox="0 0 104 136" fill="none" xmlns="http://www.w3.org/2000/svg">
<g clip-path="url(#clip0)">
<path d="M0.0116767 67.9923C0.0116767 45.7491 0.00973059 23.504 0.0136228 1.26087C0.0136228 -0.123766 -0.159582 0.0232062 1.25525 0.0232062C35.0982 0.0193385 68.9451 0.0232062 102.79 0C103.658 0 103.855 0.228194 103.855 1.06942C103.821 45.7182 103.81 90.3669 103.814 135.016C103.814 135.743 103.668 135.996 102.866 135.996C68.8906 135.975 34.9172 135.973 0.941921 136C0.0194612 136 0 135.613 0 134.917C0.0136228 112.608 0.00973059 90.2992 0.0116767 67.9923ZM78.6406 119.276C78.6971 119.208 78.7516 119.139 78.8061 119.071C79.0805 118.874 79.277 118.617 79.4094 118.309C79.6332 117.942 80.0633 117.547 79.6429 117.137C79.3354 116.837 78.9228 117.071 78.6095 117.327C78.1853 117.615 77.7921 117.932 77.5353 118.388C77.4418 118.487 77.3484 118.588 77.255 118.686C77.0585 118.938 76.8599 119.189 76.6634 119.438C76.4746 119.707 76.2859 119.976 76.0951 120.245C75.3887 121.529 74.3884 122.482 72.9833 122.929C73.1331 123.627 75.233 121.68 74.2152 123.892C73.9544 123.821 73.7423 123.846 73.6703 124.157C71.1461 124.167 68.622 124.174 66.096 124.188C65.6815 124.19 65.3078 124.163 65.2085 123.66C66.2653 123.035 67.4193 122.687 68.6162 122.451C69.0346 123.006 68.1199 122.693 68.227 123.045C68.0791 123.175 68.0538 123.327 68.2542 123.393C68.515 123.478 68.7544 123.428 68.8147 123.093C69.0405 122.881 69.2662 122.666 69.5114 122.434C69.6807 122.865 69.5698 123.693 70.3327 122.935C70.3911 122.916 70.43 122.879 70.4475 122.821C70.5487 122.765 70.6499 122.709 70.7511 122.653C70.8036 122.718 70.8562 122.784 70.9087 122.852C71.1247 123.666 71.512 123.084 71.6891 122.887C72.0939 122.434 72.2282 122.801 72.489 123.084C72.3372 122.554 72.8101 122.216 72.8587 121.755C72.7381 121.724 72.6661 121.68 72.6233 121.699C72.1426 121.914 71.8604 122.892 71.0975 122.07C71.0391 122.009 70.5915 122.111 70.7472 122.49L70.7647 122.461C70.5156 122.258 70.4436 122.486 70.3385 122.635C70.2743 122.699 70.2081 122.763 70.1439 122.827C69.8403 122.125 69.4589 121.881 68.8731 122.585C68.7836 122.693 68.6473 122.614 68.6026 122.467C68.2912 121.92 67.9234 122.349 67.5653 122.382C67.3804 122.399 67.069 122.792 66.9425 122.192C66.7616 121.334 66.4365 121.274 65.6036 121.786C65.3584 122.171 65.337 122.513 65.7924 122.767C66.0337 123.103 65.6931 123.15 65.5297 123.204C65.0178 123.37 64.4924 123.494 63.9708 123.633C63.457 123.631 62.9413 123.629 62.4275 123.625C60.4055 122.819 60.2557 122.527 61.0555 120.96C62.2874 120.191 63.5388 119.866 64.8563 120.781C64.9789 120.866 65.1579 120.87 65.3097 120.91C65.6114 121.22 65.9559 121.163 66.4385 121.044C65.9695 120.858 65.7457 120.429 65.2669 120.56C64.7512 120.504 64.2686 120.373 63.7801 119.887C64.8115 119.75 65.7087 119.611 66.5202 120.26C66.5066 120.407 66.4327 120.614 66.6642 120.62C66.8861 120.626 66.8511 120.423 66.8316 120.268C66.022 119.104 64.7493 119.686 63.6439 119.498C63.928 118.694 64.5002 118.296 65.2222 118.143C66.2964 117.917 67.3726 117.824 68.2542 118.86C68.2834 118.327 67.9701 118.176 67.7132 118.023C66.711 117.427 64.4282 117.648 63.8755 118.638C63.313 119.649 62.4431 119.98 61.5576 120.427C61.3455 120.533 61.0575 120.597 61.0108 120.906C60.4036 121.136 60.2012 121.643 60.2557 122.208C60.3355 123.039 60.929 123.471 61.6783 123.72C61.4 124.176 60.9485 124.188 60.4873 124.188C59.3585 124.186 58.2278 124.173 57.0991 124.198C56.8188 124.204 56.3167 124.004 56.3128 124.461C56.3089 124.861 56.7974 124.762 57.1069 124.78C57.2995 124.791 57.4941 124.784 57.6868 124.784C62.6241 124.784 67.5614 124.782 72.4987 124.786C72.9463 124.786 73.4075 124.72 73.824 124.962C73.7384 125.542 73.3258 126.039 73.3472 126.897C73.7831 126.056 74.112 125.42 74.4409 124.784C77.8719 124.784 81.3049 124.784 84.7359 124.784C84.9947 124.784 85.2536 124.788 85.5124 124.774C85.7459 124.762 86.0009 124.706 86.0125 124.428C86.0262 124.08 85.7362 124.039 85.4715 124.024C85.2458 124.01 85.0181 124.018 84.7923 124.018C81.9101 124.018 79.0299 124.02 76.1477 124.016C75.7312 124.016 75.3011 124.074 74.9138 123.848C75.2758 123.534 75.1162 122.807 75.7312 122.716C75.63 122.931 75.4626 122.985 75.2486 122.792C75.054 122.616 75.1746 122.484 75.2408 122.304C75.4626 121.688 76.0056 121.392 76.4766 121.02C76.7412 120.831 77.0059 120.639 77.2686 120.45C77.5859 120.185 77.905 119.92 78.2222 119.653C78.2962 119.593 78.3701 119.533 78.4441 119.473C78.5122 119.406 78.5764 119.342 78.6406 119.276ZM44.5291 66.0294C44.3617 66.0004 44.2664 66.0623 44.2625 66.2383C44.2742 66.5806 43.8986 67.1394 44.712 67.0331C44.7782 67.0331 44.8444 67.035 44.9105 67.035C45.1674 67.0505 45.4243 67.0814 45.6812 67.0814C61.2307 67.0834 76.7821 67.0834 92.3316 67.0814C92.5885 67.0814 92.8454 67.0524 93.1042 67.0369C93.256 67.0505 93.3222 66.9828 93.3027 66.832C93.3027 66.6386 93.3027 66.4452 93.3027 66.2537C93.3202 66.101 93.2657 66.0139 93.0964 66.0275C92.8395 66.012 92.5807 65.9811 92.3238 65.9811C76.6498 65.9791 60.9757 65.9791 45.3017 65.9811C45.0448 65.983 44.786 66.0139 44.5291 66.0294ZM10.509 94.2636C10.3378 94.8012 10.4974 95.0604 11.0987 95.0024C11.3867 94.9734 11.6806 94.9985 11.9725 94.9985C26.8953 94.9985 41.8182 94.9927 56.741 95.014C57.4961 95.0159 57.7705 94.8438 57.7179 94.0606C57.6771 93.4263 57.7179 93.024 56.8247 93.026C41.6099 93.0569 26.3971 93.053 11.1824 93.0356C10.4857 93.0356 10.3222 93.2716 10.5071 93.8788C10.5071 94.0064 10.5071 94.136 10.509 94.2636ZM10.7036 26.4609C10.9625 26.4686 11.2213 26.486 11.4782 26.486C38.43 26.488 65.3798 26.488 92.3316 26.486C92.5904 26.486 92.8493 26.4706 93.1061 26.4609C93.5927 26.2752 93.4 25.8479 93.3241 25.5829C93.1898 25.1169 92.7208 25.3431 92.4075 25.3431C65.6659 25.3315 38.9243 25.3334 12.1827 25.3334C11.8266 25.3334 11.4704 25.318 11.1143 25.3392C10.8807 25.3528 10.5188 25.2077 10.4818 25.579C10.4487 25.8691 10.2171 26.2733 10.7036 26.4609ZM10.7075 98.6786C10.4195 98.7134 10.4759 98.9049 10.5168 99.0905C10.5168 99.1563 10.5168 99.222 10.5168 99.2878C10.5149 99.3516 10.5149 99.4154 10.5129 99.4792C10.5129 99.7364 10.511 99.9956 10.511 100.253C10.4974 100.4 10.5421 100.494 10.7134 100.477C10.9703 100.493 11.2291 100.522 11.486 100.522C27.5512 100.524 43.6144 100.524 59.6796 100.522C59.9365 100.522 60.1954 100.493 60.4522 100.477C60.8921 99.9356 60.8921 99.1795 60.4522 98.6767C60.1623 98.6593 59.8742 98.6283 59.5843 98.6283C43.5813 98.6264 27.5784 98.6264 11.5736 98.6283C11.2855 98.6283 10.9956 98.6612 10.7075 98.6786ZM10.7114 53.2853C10.5499 53.2737 10.4935 53.3569 10.509 53.5058C10.509 54.0202 10.509 54.5365 10.509 55.0509C10.653 55.7162 11.1863 55.3816 11.5152 55.3816C34.2244 55.401 56.9317 55.399 79.641 55.399C79.8998 55.399 80.1586 55.399 80.4174 55.3894C80.6374 55.3816 80.6568 55.225 80.6432 55.0548C80.6432 54.5385 80.6432 54.0202 80.6432 53.5039C80.6432 53.2196 80.4622 53.2447 80.2715 53.2873C79.9504 53.2699 79.6273 53.2351 79.3062 53.2351C56.7643 53.2331 34.2205 53.2331 11.6786 53.2351C11.3556 53.2331 11.0325 53.266 10.7114 53.2853ZM76.7802 34.5734C77.1538 34.3529 76.9573 33.9952 76.9611 33.709C76.9787 32.1909 77.0643 32.4713 75.7546 32.4713C54.3667 32.4655 32.9808 32.4655 11.593 32.4771C11.2408 32.4771 10.8282 32.2856 10.5246 32.6473C10.5207 32.7111 10.5149 32.773 10.511 32.8368C10.509 33.3512 10.509 33.8675 10.5071 34.3819C10.4896 34.5308 10.5538 34.5985 10.7056 34.5869C10.9956 34.6024 11.2855 34.6314 11.5736 34.6314C32.759 34.6333 53.9444 34.6333 75.1318 34.6314C75.4218 34.6314 75.7117 34.6005 75.9998 34.585C76.0659 34.585 76.1321 34.5831 76.1983 34.5831C76.3267 34.5831 76.4552 34.5831 76.5817 34.5831C76.6498 34.5792 76.7159 34.5773 76.7802 34.5734ZM48.7113 48.0562C41.5885 48.0562 34.4657 48.0562 27.3449 48.0562C22.0359 48.0562 16.7269 48.0543 11.4159 48.062C11.1084 48.062 10.5966 47.9015 10.5304 48.2167C10.4078 48.8007 10.402 49.4524 10.546 50.0287C10.6375 50.3962 11.1785 50.195 11.5093 50.195C36.2756 50.2047 61.0419 50.2028 85.8082 50.2028C86.0028 50.2028 86.1974 50.2008 86.3901 50.2028C86.5613 50.2047 86.7618 50.1776 86.7715 49.9939C86.8027 49.4176 86.9214 48.7969 86.756 48.2728C86.61 47.8125 86.0086 48.0659 85.6175 48.0639C73.3161 48.0523 61.0147 48.0543 48.7113 48.0562ZM44.8074 60.5933C55.9119 60.5933 67.0165 60.5933 78.123 60.5933C78.3818 60.5933 78.6406 60.5972 78.8995 60.5875C79.0571 60.5798 79.2712 60.5759 79.2751 60.3729C79.2926 59.7657 79.4074 59.112 79.2245 58.5628C79.0902 58.1567 78.4674 58.3849 78.0685 58.3849C55.9878 58.3752 33.9072 58.3772 11.8285 58.3772C11.5366 58.3772 11.2447 58.3714 10.9547 58.381C10.801 58.3868 10.548 58.3346 10.5324 58.5145C10.4798 59.1178 10.3864 59.7444 10.4974 60.3265C10.5947 60.837 11.1532 60.5837 11.4938 60.5856C22.5983 60.5953 33.7029 60.5933 44.8074 60.5933ZM47.6721 45.0162C53.5338 45.0162 59.3974 45.0162 65.2591 45.0162C71.477 45.0162 77.6968 45.0181 83.9146 45.0104C84.2202 45.0104 84.6794 45.1864 84.8059 44.8557C85.0239 44.2871 84.9869 43.6277 84.8332 43.0553C84.7281 42.6646 84.2027 42.8657 83.8699 42.8657C59.74 42.8561 35.6101 42.858 11.4801 42.8561C11.2855 42.8561 11.0909 42.8561 10.8963 42.8599C10.7367 42.8619 10.509 42.8619 10.5012 43.0398C10.474 43.6489 10.3767 44.2968 10.546 44.8576C10.653 45.2115 11.2486 45.0084 11.6203 45.0084C23.6395 45.0181 35.6548 45.0162 47.6721 45.0162ZM39.9479 39.8296C40.1426 39.8296 40.3372 39.8296 40.5298 39.8296C49.9179 39.8296 59.3079 39.8315 68.696 39.8238C69.0035 39.8238 69.5153 39.9862 69.5815 39.673C69.706 39.0889 69.7294 38.4295 69.5737 37.8609C69.4608 37.451 68.8867 37.6772 68.5286 37.6772C49.5579 37.6656 30.5852 37.6675 11.6144 37.6675C11.3887 37.6675 11.161 37.6675 10.9352 37.6695C10.7737 37.6695 10.5324 37.6617 10.5227 37.8261C10.4837 38.4334 10.3806 39.0773 10.5363 39.6439C10.6433 40.0326 11.2252 39.8219 11.5891 39.8219C21.0414 39.8315 30.4937 39.8296 39.9479 39.8296ZM68.7583 87.2496C71.5412 87.2496 74.3242 87.2496 77.1091 87.2496C82.2546 87.2496 87.4021 87.2341 92.5476 87.267C93.2813 87.2708 93.4973 86.9885 93.3377 86.3774C93.1937 85.8185 92.678 86.1105 92.353 86.1105C76.7218 86.0931 61.0886 86.095 45.4574 86.095C45.2317 86.095 45.002 86.1202 44.7782 86.0931C44.1788 86.0196 44.1613 86.3948 44.1963 86.8125C44.2566 87.5319 44.823 87.236 45.1655 87.236C53.0297 87.2534 60.894 87.2496 68.7583 87.2496ZM68.8166 75.1533C69.7547 75.1533 70.6946 75.1533 71.6327 75.1533C78.5939 75.1533 85.5533 75.1436 92.5145 75.1688C93.2093 75.1707 93.4993 74.958 93.3241 74.3044C93.1743 73.7493 92.6644 74.0201 92.3296 74.0181C76.6284 74.0027 60.9251 74.0065 45.2239 74.0065C44.9981 74.0065 44.7704 73.9988 44.5447 74.0104C44.1613 74.0297 44.1983 74.3237 44.1963 74.577C44.1963 74.8284 44.1496 75.1262 44.5349 75.1495C44.7938 75.1649 45.0526 75.1533 45.3114 75.1533C53.1465 75.1533 60.9816 75.1533 68.8166 75.1533ZM68.7369 78.0367C60.8376 78.0367 52.9383 78.0444 45.039 78.0231C44.3617 78.0212 44.0348 78.2011 44.2197 78.8818C44.3715 79.4426 44.8775 79.1699 45.2083 79.1699C60.9096 79.1854 76.6128 79.1835 92.3141 79.1835C92.5087 79.1835 92.7033 79.1719 92.896 79.1835C93.3222 79.2086 93.3494 78.9398 93.3416 78.6226C93.3338 78.3248 93.3669 78.0212 92.9193 78.0386C92.6605 78.0483 92.4016 78.0367 92.1428 78.0367C84.3428 78.0348 76.5408 78.0348 68.7369 78.0367ZM68.7894 83.2271C69.7936 83.2271 70.7978 83.2271 71.802 83.2271C78.701 83.2271 85.6 83.2194 92.4989 83.2407C93.1742 83.2426 93.4817 83.0628 93.3338 82.382C93.1995 81.7671 92.6858 82.0823 92.3763 82.0804C76.6361 82.061 60.894 82.063 45.1538 82.063C45.0234 82.063 44.893 82.0765 44.7646 82.061C44.2566 81.9991 44.1788 82.2854 44.1866 82.7031C44.1983 83.5017 44.8016 83.2155 45.1791 83.2155C53.0473 83.231 60.9193 83.2271 68.7894 83.2271ZM68.7135 71.1232C69.7177 71.1232 70.7219 71.1232 71.7261 71.1232C78.6582 71.1232 85.5883 71.1135 92.5204 71.1386C93.2229 71.1406 93.4954 70.9124 93.3241 70.2723C93.1762 69.7173 92.6624 69.988 92.3277 69.9861C76.7802 69.9706 61.2326 69.9725 45.687 69.9745C45.364 69.9745 45.039 69.9996 44.7159 69.9822C43.9453 69.9435 44.062 70.5024 44.1632 70.9008C44.2703 71.3146 44.714 71.1154 45.004 71.1154C52.9071 71.1232 60.8103 71.1212 68.7135 71.1232ZM18.671 16.1805C19.8329 15.3896 20.3583 14.3414 19.9205 12.9665C19.5118 11.6785 18.5115 11.0191 16.8339 10.9591C15.4132 10.9089 13.9906 10.9456 12.57 10.9205C12.171 10.9127 11.9978 11.0075 11.9998 11.4484C12.0153 14.8849 12.0134 18.3213 12.0037 21.7578C12.0037 22.1078 12.0737 22.2799 12.4785 22.2702C14.1891 22.2335 15.9076 22.2954 17.6124 22.1851C18.9552 22.1 19.9886 21.4406 20.444 20.0753C20.9811 18.4818 20.4615 17.2983 18.671 16.1805ZM38.1244 120.179C38.3152 114.784 33.8761 109.914 27.9852 109.976C22.1215 110.038 17.7895 114.252 17.7953 120.17C17.7992 126.052 22.5808 130.162 27.9248 130.235C33.3623 130.309 38.3541 125.573 38.1244 120.179ZM87.1218 108.516C87.1588 107.893 86.8143 107.64 86.3512 107.481C80.433 105.443 74.5129 103.411 68.5987 101.363C67.9039 101.123 67.468 101.33 67.2345 101.997C66.3957 104.391 65.5627 106.789 64.724 109.183C64.471 109.907 64.724 110.342 65.444 110.589C71.3349 112.612 77.22 114.644 83.107 116.679C83.8134 116.923 84.2922 116.743 84.5452 116.012C85.3625 113.643 86.1935 111.28 87.0148 108.913C87.0693 108.762 87.0985 108.603 87.1218 108.516ZM35.9545 16.5963C35.9545 18.2672 35.9681 19.938 35.9448 21.6069C35.9389 22.0768 36.0168 22.2857 36.5675 22.276C38.539 22.2412 40.5104 22.2451 42.4818 22.2741C43.0209 22.2818 43.1201 22.0807 43.1182 21.5992C43.1162 21.1138 43.0014 20.9088 42.4701 20.9243C41.2752 20.9591 40.0783 20.9378 38.8834 20.9359C37.4919 20.9339 37.4919 20.932 37.4919 19.5957C37.4919 16.9289 37.4686 14.2622 37.5095 11.5973C37.5192 10.9011 37.1669 10.9282 36.6746 10.9147C36.1686 10.9011 35.9253 10.9901 35.9409 11.5838C35.9798 13.2546 35.9526 14.9274 35.9545 16.5963ZM27.0608 16.6214C27.0627 16.6214 27.0647 16.6214 27.0647 16.6214C27.0647 18.2614 27.0977 19.9013 27.0471 21.5392C27.0277 22.1619 27.234 22.2857 27.81 22.276C29.6861 22.2432 31.5621 22.2528 33.4382 22.2722C33.952 22.278 34.2614 22.2567 34.2458 21.5798C34.2322 20.9533 33.95 20.9262 33.4732 20.9339C32.1479 20.9513 30.8187 20.8991 29.4953 20.9571C28.785 20.9881 28.5632 20.814 28.5768 20.0695C28.6274 17.2732 28.5807 14.4749 28.6099 11.6785C28.6157 11.0984 28.4853 10.8992 27.8684 10.9108C27.267 10.9224 27.0179 11.0307 27.0394 11.7037C27.0958 13.3397 27.0608 14.9815 27.0608 16.6214ZM22.9467 16.6118C22.9467 18.2807 22.9739 19.9515 22.933 21.6205C22.9175 22.2257 23.1802 22.2896 23.6745 22.276C24.161 22.2625 24.5094 22.3012 24.5016 21.5953C24.4607 18.2556 24.4627 14.9158 24.4997 11.576C24.5075 10.8489 24.1066 10.9495 23.6492 10.9166C23.1179 10.8798 22.9194 11.0307 22.933 11.6012C22.972 13.272 22.9467 14.9429 22.9467 16.6118Z" fill="#F2F0EF"/>
<path d="M48.7113 48.0559C61.0127 48.0559 73.3161 48.0521 85.6175 48.0656C86.0087 48.0656 86.6119 47.8142 86.756 48.2745C86.9214 48.7985 86.8027 49.4193 86.7715 49.9956C86.7618 50.1793 86.5613 50.2064 86.3901 50.2044C86.1955 50.2025 86.0009 50.2044 85.8082 50.2044C61.0419 50.2044 36.2756 50.2064 11.5094 50.1967C11.1785 50.1967 10.6375 50.3978 10.546 50.0304C10.402 49.456 10.4098 48.8024 10.5305 48.2184C10.5966 47.9032 11.1085 48.0637 11.4159 48.0637C16.7249 48.0559 22.0339 48.0579 27.3449 48.0579C34.4677 48.0559 41.5885 48.0559 48.7113 48.0559Z" fill="#5F5F5F"/>
<path d="M44.8074 60.5936C33.7028 60.5936 22.5983 60.5955 11.4918 60.582C11.1512 60.582 10.5927 60.8353 10.4954 60.3228C10.3845 59.7408 10.4779 59.1142 10.5304 58.5108C10.546 58.3329 10.799 58.3832 10.9527 58.3774C11.2447 58.3677 11.5346 58.3735 11.8265 58.3735C33.9072 58.3735 55.9878 58.3716 78.0665 58.3813C78.4655 58.3813 79.0863 58.1531 79.2225 58.5592C79.4055 59.1103 79.2906 59.762 79.2731 60.3693C79.2673 60.5723 79.0552 60.5781 78.8975 60.5839C78.6387 60.5955 78.3799 60.5897 78.121 60.5897C67.0165 60.5936 55.9119 60.5936 44.8074 60.5936Z" fill="#666666"/>
<path d="M47.6721 45.0157C35.6548 45.0157 23.6395 45.0176 11.6222 45.0079C11.2505 45.0079 10.655 45.211 10.548 44.8571C10.3787 44.2963 10.4779 43.6484 10.5032 43.0393C10.511 42.8594 10.7368 42.8614 10.8983 42.8594C11.0929 42.8575 11.2875 42.8556 11.4821 42.8556C35.612 42.8556 59.7419 42.8556 83.8718 42.8652C84.2046 42.8652 84.7301 42.6641 84.8352 43.0548C84.9889 43.6272 85.0259 44.2866 84.8079 44.8552C84.6814 45.1839 84.2221 45.0079 83.9166 45.0099C77.6988 45.0176 71.479 45.0157 65.2611 45.0157C59.3975 45.0157 53.5338 45.0157 47.6721 45.0157Z" fill="#5E5E5E"/>
<path d="M10.5246 32.6473C10.8301 32.2838 11.2408 32.4772 11.593 32.4772C32.9808 32.4656 54.3667 32.4656 75.7546 32.4714C77.0623 32.4714 76.9787 32.191 76.9611 33.709C76.9573 33.9952 77.1538 34.353 76.7802 34.5735C76.7081 34.4671 76.6439 34.4748 76.5836 34.5831C76.4552 34.5831 76.3267 34.5831 76.2002 34.5831C76.1321 34.4536 76.0659 34.4536 76.0017 34.5851C75.7117 34.6005 75.4218 34.6315 75.1337 34.6315C53.9483 34.6334 32.7629 34.6334 11.5755 34.6315C11.2855 34.6315 10.9956 34.6025 10.7075 34.587C10.6414 34.5193 10.5752 34.4516 10.509 34.382C10.511 33.8676 10.511 33.3513 10.5129 32.8369C10.5382 32.8195 10.5849 32.7982 10.583 32.7866C10.5694 32.7363 10.5441 32.6918 10.5246 32.6473Z" fill="#5F5F5F"/>
<path d="M39.9479 39.8299C30.4937 39.8299 21.0414 39.8318 11.5872 39.8221C11.2232 39.8221 10.6413 40.0329 10.5343 39.6442C10.3786 39.0776 10.4818 38.4337 10.5207 37.8264C10.5324 37.662 10.7717 37.6698 10.9333 37.6698C11.159 37.6698 11.3867 37.6678 11.6125 37.6678C30.5832 37.6678 49.5559 37.6678 68.5267 37.6775C68.8847 37.6775 69.4588 37.4513 69.5717 37.8612C69.7274 38.4298 69.7041 39.0892 69.5795 39.6732C69.5133 39.9865 69.0015 39.8241 68.694 39.8241C59.306 39.8318 49.9159 39.8299 40.5279 39.8299C40.3352 39.8299 40.1406 39.8299 39.9479 39.8299Z" fill="#5E5E5E"/>
<path d="M10.509 55.0507C10.509 54.5363 10.509 54.02 10.509 53.5056C10.5771 53.4321 10.6433 53.3586 10.7114 53.2851C11.0325 53.2677 11.3556 53.2348 11.6767 53.2348C34.2186 53.2329 56.7624 53.2329 79.3043 53.2348C79.6254 53.2348 79.9484 53.2697 80.2696 53.2871C80.3435 53.4456 80.4797 53.4959 80.6413 53.5037C80.6413 54.02 80.6413 54.5383 80.6413 55.0546C57.2645 55.0527 33.8877 55.0507 10.509 55.0507Z" fill="#5F5F5F"/>
<path d="M10.509 100.253C10.509 99.9956 10.511 99.7365 10.511 99.4793C10.5363 99.4619 10.583 99.4368 10.581 99.4271C10.5674 99.3788 10.5382 99.3343 10.5149 99.2898C10.5149 99.224 10.5149 99.1583 10.5149 99.0925C10.6686 98.9978 10.7017 98.845 10.7056 98.6806C10.9956 98.6632 11.2836 98.6304 11.5736 98.6304C27.5765 98.6284 43.5794 98.6284 59.5843 98.6304C59.8742 98.6304 60.1623 98.6613 60.4522 98.6787C60.4522 99.2782 60.4522 99.8796 60.4522 100.479C60.1954 100.495 59.9365 100.524 59.6796 100.524C43.6144 100.526 27.5512 100.526 11.486 100.524C11.2291 100.524 10.9703 100.495 10.7134 100.479C10.6453 100.402 10.5771 100.326 10.509 100.253Z" fill="#5E5E5E"/>
<path d="M68.7582 87.2494C60.894 87.2494 53.0297 87.2533 45.1635 87.2359C44.8191 87.2359 44.2527 87.5298 44.1943 86.8124C44.1593 86.3928 44.1749 86.0195 44.7762 86.093C45 86.1201 45.2297 86.095 45.4554 86.095C61.0866 86.095 76.7198 86.093 92.351 86.1104C92.676 86.1104 93.1917 85.8184 93.3357 86.3773C93.4934 86.9903 93.2773 87.2726 92.5456 87.2668C87.4001 87.234 82.2545 87.2494 77.1071 87.2494C74.3241 87.2494 71.5412 87.2494 68.7582 87.2494Z" fill="#666666"/>
<path d="M93.1061 26.461C92.8473 26.4687 92.5885 26.4861 92.3316 26.4861C65.3798 26.4881 38.43 26.4881 11.4782 26.4861C11.2194 26.4861 10.9605 26.4706 10.7037 26.461C10.5733 25.4592 11.3108 25.6836 11.848 25.6836C38.5526 25.6778 65.2572 25.6797 91.9618 25.6797C92.0922 25.6797 92.2226 25.6913 92.3491 25.6778C92.9485 25.6101 93.1918 25.877 93.1061 26.461Z" fill="#5E5E5E"/>
<path d="M10.509 94.2638C10.509 94.1362 10.5071 94.0066 10.5071 93.879C10.7484 93.1944 11.3225 93.293 11.8674 93.293C26.6015 93.295 41.3355 93.295 56.0696 93.295C56.2642 93.295 56.4588 93.2969 56.6534 93.295C56.9901 93.295 57.3073 93.293 57.3482 93.7591C57.3871 94.2174 57.2178 94.521 56.7624 94.608C56.4802 94.6622 56.1825 94.6506 55.8925 94.6506C41.32 94.6525 26.7474 94.6506 12.1768 94.6602C11.5736 94.6622 11.0189 94.5868 10.509 94.2638Z" fill="#5F5F5F"/>
<path d="M68.8167 75.1534C60.9816 75.1534 53.1465 75.1534 45.3115 75.1534C45.0526 75.1534 44.7919 75.165 44.535 75.1495C44.1496 75.1282 44.1964 74.8285 44.1964 74.5771C44.1964 74.3238 44.1594 74.0298 44.5447 74.0105C44.7705 73.9989 44.9982 74.0066 45.2239 74.0066C60.9252 74.0066 76.6284 74.0047 92.3297 74.0182C92.6624 74.0182 93.1743 73.7494 93.3241 74.3044C93.4993 74.9581 93.2093 75.1708 92.5145 75.1688C85.5533 75.1437 78.594 75.1534 71.6327 75.1534C70.6947 75.1534 69.7547 75.1534 68.8167 75.1534Z" fill="#636363"/>
<path d="M68.7368 78.037C76.5388 78.037 84.3408 78.037 92.1447 78.037C92.4036 78.037 92.6624 78.0486 92.9212 78.0389C93.3688 78.0215 93.3358 78.3251 93.3435 78.6229C93.3513 78.942 93.3241 79.2089 92.8979 79.1838C92.7052 79.1722 92.5087 79.1838 92.316 79.1838C76.6147 79.1838 60.9115 79.1857 45.2102 79.1702C44.8794 79.1702 44.3734 79.4429 44.2216 78.8821C44.0367 78.2014 44.3637 78.0215 45.0409 78.0235C52.9383 78.0447 60.8376 78.037 68.7368 78.037Z" fill="#636363"/>
<path d="M68.7894 83.2273C60.9193 83.2273 53.0492 83.2311 45.1771 83.2157C44.8015 83.2157 44.1982 83.5019 44.1846 82.7032C44.1788 82.2874 44.2547 81.9993 44.7626 82.0612C44.8911 82.0767 45.0215 82.0631 45.1518 82.0631C60.892 82.0631 76.6342 82.0612 92.3744 82.0805C92.6858 82.0805 93.1995 81.7653 93.3319 82.3822C93.4798 83.0629 93.1723 83.2428 92.497 83.2408C85.598 83.2176 78.699 83.2273 71.8 83.2273C70.7978 83.2273 69.7936 83.2273 68.7894 83.2273Z" fill="#636363"/>
<path d="M68.7135 71.1211C60.8103 71.1211 52.9072 71.123 45.004 71.1134C44.714 71.1134 44.2703 71.3125 44.1632 70.8987C44.0601 70.5003 43.9453 69.9415 44.7159 69.9802C45.039 69.9976 45.364 69.9724 45.6871 69.9724C61.2346 69.9724 76.7821 69.9705 92.3277 69.984C92.6624 69.984 93.1743 69.7152 93.3241 70.2702C93.4954 70.9123 93.2249 71.1404 92.5204 71.1366C85.5883 71.1095 78.6582 71.1211 71.7261 71.1211C70.7219 71.123 69.7177 71.123 68.7135 71.1211Z" fill="#5E5E5E"/>
<path d="M18.6711 16.1805C20.4615 17.2982 20.9811 18.4798 20.4479 20.0791C19.9925 21.4425 18.9591 22.1019 17.6163 22.1889C15.9095 22.2972 14.1931 22.2373 12.4824 22.274C12.0776 22.2818 12.0056 22.1116 12.0076 21.7616C12.0154 18.3251 12.0192 14.8886 12.0037 11.4522C12.0017 11.0113 12.1749 10.9165 12.5739 10.9243C13.9946 10.9494 15.4172 10.9127 16.8378 10.9629C18.5154 11.0229 19.5157 11.6823 19.9244 12.9703C20.3584 14.3414 19.8329 15.3914 18.6711 16.1805ZM15.604 20.9745C16.2501 20.9319 16.904 20.9397 17.5384 20.8333C18.492 20.6728 19.0467 19.9515 19.0486 18.9884C19.0506 18.0524 18.5524 17.422 17.6221 17.1764C16.8592 16.9753 16.0808 17.0178 15.3043 17.0159C13.4983 17.0139 13.4983 17.0159 13.4983 18.8298C13.4983 20.9435 13.4983 20.9435 15.604 20.9745ZM15.3821 15.7009C15.9952 15.6719 16.616 15.697 17.2173 15.5984C18.095 15.4553 18.5699 14.8828 18.5874 13.9933C18.6049 13.0979 18.0639 12.4655 17.1512 12.3572C16.4486 12.2741 15.7344 12.2528 15.0241 12.2451C13.4983 12.2277 13.4983 12.2373 13.4964 13.7554C13.4983 15.6777 13.4983 15.6777 15.3821 15.7009Z" fill="#F2F0EF"/>
<path d="M93.3027 66.2536C93.3027 66.447 93.3027 66.6404 93.3027 66.8318C93.2365 66.8995 93.1704 66.9691 93.1042 67.0368C92.8473 67.0523 92.5904 67.0813 92.3316 67.0813C76.7821 67.0832 61.2307 67.0832 45.6812 67.0813C45.4243 67.0813 45.1674 67.0503 44.9106 67.0349C44.8463 66.9053 44.7802 66.9034 44.7121 67.0329C43.8986 67.1393 44.2722 66.5804 44.2625 66.2381C44.352 66.1685 44.4415 66.0989 44.5291 66.0293C44.786 66.0119 45.0448 65.9809 45.3017 65.9809C60.9758 65.979 76.6498 65.979 92.3238 65.9809C92.5807 65.9809 92.8395 66.0119 93.0964 66.0274C93.1645 66.1047 93.2326 66.1782 93.3027 66.2536Z" fill="#5F5F5F"/>
<path d="M38.1244 120.179C38.3541 125.573 33.3623 130.309 27.9268 130.235C22.5827 130.164 17.8011 126.052 17.7972 120.169C17.7934 114.252 22.1254 110.04 27.9871 109.976C33.878 109.914 38.3171 114.784 38.1244 120.179ZM37.3538 120.175C37.6476 115.389 33.5258 110.73 28.0533 110.717C22.7657 110.703 18.5679 114.745 18.5407 120.034C18.5115 125.515 22.8455 129.382 27.9034 129.471C33.1093 129.564 37.5951 125.043 37.3538 120.175Z" fill="#9DD7E3"/>
<path d="M87.1218 108.516C87.0984 108.603 87.0673 108.762 87.0147 108.913C86.1915 111.28 85.3625 113.643 84.5451 116.012C84.2921 116.743 83.8134 116.925 83.1069 116.679C77.2199 114.647 71.3329 112.612 65.444 110.589C64.7239 110.342 64.4709 109.907 64.7239 109.183C65.5627 106.789 66.3956 104.391 67.2344 101.997C67.4679 101.33 67.9058 101.123 68.5986 101.363C74.5129 103.409 80.433 105.443 86.3511 107.482C86.8162 107.64 87.1607 107.894 87.1218 108.516ZM86.3083 108.955C86.3822 108.245 85.9424 108.011 85.4209 107.832C79.9892 105.962 74.5557 104.097 69.1319 102.208C68.3126 101.922 67.8572 102.131 67.5828 102.945C66.9347 104.863 66.2594 106.77 65.5744 108.675C65.2863 109.475 65.5238 109.951 66.3334 110.228C71.8 112.1 77.2608 113.985 82.7216 115.875C83.5156 116.149 83.9301 115.84 84.1831 115.099C84.8351 113.183 85.5123 111.276 86.1779 109.365C86.2285 109.214 86.2733 109.06 86.3083 108.955Z" fill="#F8421C"/>
<path d="M10.509 94.264C11.0189 94.587 11.5736 94.6605 12.1749 94.6605C26.7474 94.6508 41.32 94.6527 55.8906 94.6508C56.1805 94.6508 56.4783 94.6624 56.7605 94.6083C57.2139 94.5212 57.3852 94.2176 57.3463 93.7593C57.3054 93.2932 56.9882 93.2952 56.6515 93.2952C56.4569 93.2952 56.2623 93.2952 56.0676 93.2952C41.3336 93.2952 26.5995 93.2952 11.8655 93.2932C11.3206 93.2932 10.7465 93.1946 10.5051 93.8792C10.3203 93.272 10.4837 93.036 11.1805 93.036C26.3952 93.0534 41.6099 93.0573 56.8227 93.0264C57.716 93.0244 57.6751 93.4267 57.716 94.061C57.7666 94.8442 57.4922 95.0163 56.7391 95.0144C41.8162 94.9931 26.8934 94.9989 11.9706 94.9989C11.6787 94.9989 11.3848 94.9757 11.0968 95.0028C10.4974 95.0627 10.3358 94.8016 10.509 94.264Z" fill="#666666"/>
<path d="M93.1061 26.461C93.1917 25.877 92.9485 25.612 92.3491 25.6778C92.2206 25.6913 92.0902 25.6797 91.9618 25.6797C65.2572 25.6797 38.5526 25.6797 11.8479 25.6836C11.3108 25.6836 10.5732 25.4593 10.7036 26.461C10.2171 26.2754 10.4487 25.8712 10.4798 25.5772C10.5187 25.204 10.8807 25.351 11.1123 25.3374C11.4665 25.3162 11.8246 25.3316 12.1807 25.3316C38.9223 25.3316 65.6639 25.3316 92.4055 25.3413C92.7188 25.3413 93.1878 25.117 93.3221 25.5811C93.4 25.846 93.5926 26.2734 93.1061 26.461Z" fill="#727272"/>
<path d="M10.509 55.0508C33.8858 55.0508 57.2645 55.0527 80.6413 55.0527C80.6549 55.2229 80.6354 55.3795 80.4155 55.3873C80.1567 55.3969 79.8978 55.3969 79.639 55.3969C56.9298 55.3969 34.2225 55.3989 11.5132 55.3795C11.1863 55.3795 10.653 55.7141 10.509 55.0508Z" fill="#515151"/>
<path d="M35.9545 16.597C35.9545 14.9261 35.9817 13.2553 35.9389 11.5864C35.9234 10.9927 36.1666 10.9037 36.6726 10.9173C37.165 10.9308 37.5192 10.9037 37.5075 11.5999C37.4666 14.2667 37.49 16.9335 37.49 19.5983C37.49 20.9346 37.49 20.9365 38.8815 20.9385C40.0783 20.9404 41.2732 20.9617 42.4682 20.9269C43.0014 20.9114 43.1143 21.1164 43.1162 21.6018C43.1182 22.0833 43.0189 22.2844 42.4798 22.2767C40.5084 22.2477 38.537 22.2438 36.5656 22.2786C36.0148 22.2883 35.937 22.0794 35.9428 21.6095C35.9681 19.9387 35.9545 18.2678 35.9545 16.597Z" fill="#F2F0EF"/>
<path d="M27.0608 16.6213C27.0608 14.9814 27.0958 13.3415 27.0433 11.7016C27.0219 11.0286 27.271 10.9203 27.8723 10.9087C28.4892 10.8971 28.6196 11.0963 28.6138 11.6764C28.5826 14.4728 28.6313 17.271 28.5807 20.0674C28.5671 20.8139 28.787 20.986 29.4993 20.955C30.8226 20.897 32.1518 20.9492 33.4771 20.9318C33.952 20.926 34.2342 20.9512 34.2497 21.5777C34.2653 22.2546 33.9559 22.2759 33.4421 22.27C31.566 22.2488 29.69 22.241 27.8139 22.2739C27.2398 22.2836 27.0335 22.1618 27.051 21.5371C27.1016 19.8991 27.0686 18.2573 27.0686 16.6193C27.0627 16.6213 27.0608 16.6213 27.0608 16.6213Z" fill="#F2F0EF"/>
<path d="M22.9467 16.6111C22.9467 14.9422 22.972 13.2713 22.933 11.6024C22.9194 11.0319 23.1179 10.883 23.6492 10.9178C24.1065 10.9488 24.5074 10.8482 24.4997 11.5773C24.4607 14.9171 24.4607 18.2568 24.5016 21.5966C24.5094 22.3024 24.163 22.2638 23.6745 22.2773C23.1782 22.2908 22.9175 22.227 22.933 21.6217C22.9739 19.9528 22.9467 18.282 22.9467 16.6111Z" fill="#F2F0EF"/>
<path d="M65.2105 123.662C65.3098 124.165 65.6854 124.192 66.098 124.19C68.6221 124.175 71.1462 124.169 73.6723 124.159C73.8007 124.175 73.9272 124.19 74.0556 124.204C74.0537 124.354 74.0498 124.503 73.9038 124.598C73.8065 124.656 73.7287 124.722 73.791 124.849C73.8416 124.873 73.8532 124.909 73.8279 124.958C73.4115 124.716 72.9502 124.782 72.5026 124.782C67.5653 124.778 62.628 124.78 57.6907 124.78C57.4981 124.78 57.3035 124.788 57.1108 124.776C56.8014 124.759 56.3148 124.857 56.3168 124.457C56.3207 124.001 56.8228 124.2 57.103 124.194C58.2318 124.169 59.3624 124.182 60.4912 124.184C60.9524 124.186 61.4039 124.173 61.6822 123.716C61.9197 123.743 62.1571 123.77 62.3964 123.797C62.8927 124.337 63.5836 124.354 64.1499 123.84C64.5002 123.784 64.8544 123.724 65.2105 123.662Z" fill="#DFE0E3"/>
<path d="M74.9158 123.846C75.3031 124.072 75.7332 124.014 76.1496 124.014C79.0318 124.018 81.9121 124.016 84.7943 124.016C85.02 124.016 85.2477 124.008 85.4735 124.022C85.7401 124.037 86.0301 124.078 86.0145 124.426C86.0028 124.706 85.7498 124.76 85.5143 124.772C85.2555 124.786 84.9967 124.782 84.7378 124.782C81.3068 124.782 77.8739 124.782 74.4429 124.782C74.5519 124.584 74.6608 124.387 74.7718 124.19C74.834 124.107 74.8983 124.026 74.9605 123.942L74.906 123.908L74.9158 123.846Z" fill="#DFE0E3"/>
<path d="M66.5222 120.259C65.7106 119.609 64.8135 119.748 63.782 119.885C64.2705 120.371 64.7532 120.502 65.2689 120.558C65.2825 120.674 65.2961 120.792 65.3117 120.908C65.1599 120.868 64.9808 120.862 64.8582 120.779C63.5407 119.866 62.2913 120.189 61.0575 120.959L61.0127 120.907C61.0594 120.595 61.3474 120.533 61.5596 120.427C62.447 119.978 63.3169 119.65 63.8774 118.638C64.4281 117.646 66.7129 117.428 67.7152 118.023C67.972 118.176 68.2854 118.327 68.2562 118.861C67.3746 117.826 66.2984 117.917 65.2241 118.143C64.5021 118.296 63.9299 118.694 63.6458 119.499C64.7512 119.686 66.024 119.104 66.8336 120.268C66.7304 120.265 66.6253 120.261 66.5222 120.259Z" fill="#151830"/>
<path d="M74.7718 124.19C74.6628 124.387 74.5538 124.585 74.4429 124.782C74.114 125.418 73.7851 126.052 73.3491 126.896C73.3277 126.039 73.7403 125.54 73.8259 124.96C73.8512 124.912 73.8396 124.875 73.789 124.85C73.9155 124.805 73.9174 124.705 73.9018 124.598C74.0478 124.503 74.0517 124.353 74.0536 124.204C74.1081 124.101 74.1626 123.997 74.2152 123.894C75.231 121.684 73.1312 123.631 72.9833 122.931C74.3884 122.485 75.3887 121.533 76.0951 120.247C76.1457 120.292 76.1963 120.338 76.245 120.382C76.2119 120.468 76.1944 120.56 76.1438 120.634C75.9122 120.974 76.0581 120.982 76.3501 120.874C76.3929 120.922 76.4337 120.968 76.4766 121.017C76.0075 121.388 75.4626 121.684 75.2408 122.301C75.1765 122.481 75.0539 122.612 75.2486 122.788C75.4626 122.982 75.63 122.927 75.7312 122.713C75.1162 122.802 75.2777 123.529 74.9138 123.844L74.9041 123.908L74.9586 123.943C74.8126 123.964 74.7912 124.076 74.7718 124.19ZM74.8983 122.541C74.8029 122.427 74.7718 122.386 74.7387 122.347C74.6861 122.409 74.6219 122.467 74.5869 122.539C74.5771 122.558 74.6569 122.659 74.6725 122.653C74.7523 122.628 74.8243 122.579 74.8983 122.541Z" fill="#151830"/>
<path d="M65.2105 123.662C64.8563 123.724 64.5001 123.786 64.146 123.848C64.037 123.817 63.9455 123.772 63.9728 123.633C64.4943 123.494 65.0198 123.37 65.5316 123.204C65.6951 123.151 66.0356 123.105 65.7943 122.767C65.843 122.716 65.8897 122.666 65.9383 122.616C66.2263 122.645 66.5416 122.709 66.6467 122.331C66.6837 122.196 66.672 121.991 66.5922 121.89C66.3178 121.556 66.022 121.792 65.7359 121.914C65.6931 121.869 65.6503 121.827 65.6075 121.786C66.4404 121.274 66.7654 121.334 66.9464 122.192C67.0729 122.792 67.3843 122.399 67.5692 122.382C67.9272 122.349 68.2951 121.92 68.6064 122.467L68.6181 122.455C67.4213 122.689 66.2653 123.037 65.2105 123.662Z" fill="#151830"/>
<path d="M70.7491 122.488C70.5934 122.109 71.041 122.007 71.0994 122.068C71.8642 122.89 72.1464 121.912 72.6252 121.697C72.668 121.678 72.74 121.722 72.8607 121.753C72.812 122.213 72.3391 122.552 72.4909 123.082C72.2282 122.799 72.0958 122.432 71.691 122.884C71.514 123.082 71.1267 123.666 70.9107 122.85C71.006 122.664 71.1014 122.478 70.7491 122.488Z" fill="#151830"/>
<path d="M62.3925 123.803C62.1551 123.776 61.9177 123.749 61.6783 123.722C60.929 123.472 60.3355 123.041 60.2557 122.21C60.2012 121.645 60.4036 121.136 61.0108 120.908L61.0555 120.96C60.2537 122.529 60.4036 122.821 62.4276 123.625C62.4217 123.685 62.41 123.745 62.3925 123.803Z" fill="#515151"/>
<path d="M68.227 123.047C68.1219 122.697 69.0366 123.008 68.6162 122.453L68.6026 122.465C68.6473 122.612 68.7836 122.689 68.8731 122.583C69.4589 121.879 69.8403 122.123 70.1439 122.825C70.2062 122.861 70.2704 122.898 70.3327 122.937C69.5698 123.695 69.6788 122.867 69.5114 122.436C69.2643 122.67 69.0385 122.883 68.8147 123.095C68.6182 123.078 68.4235 123.062 68.227 123.047Z" fill="#151830"/>
<path d="M62.3926 123.803C62.4101 123.745 62.4218 123.685 62.4296 123.625C62.9433 123.627 63.459 123.629 63.9728 123.633C63.9456 123.772 64.039 123.816 64.146 123.847C63.5797 124.36 62.8888 124.342 62.3926 123.803Z" fill="#FCF7F6"/>
<path d="M60.4523 100.477C60.4523 99.8777 60.4523 99.2762 60.4523 98.6768C60.8921 99.1796 60.8921 99.9357 60.4523 100.477Z" fill="#515151"/>
<path d="M78.6095 117.328C78.9228 117.073 79.3354 116.839 79.6429 117.139C80.0632 117.547 79.6332 117.941 79.4094 118.311C79.3588 118.266 79.3082 118.222 79.2576 118.175C79.2459 117.891 79.6526 117.663 79.4347 117.383C79.2167 117.106 78.9929 117.516 78.7496 117.473C78.7029 117.425 78.6562 117.377 78.6095 117.328Z" fill="#151830"/>
<path d="M77.5353 118.391C77.7922 117.934 78.1853 117.617 78.6095 117.329C78.6562 117.377 78.703 117.426 78.7497 117.474C78.3955 117.828 78.0432 118.182 77.689 118.536C77.6384 118.487 77.5878 118.439 77.5353 118.391Z" fill="#151830"/>
<path d="M65.3098 120.908C65.2962 120.792 65.2825 120.674 65.267 120.558C65.7438 120.426 65.9676 120.856 66.4385 121.041C65.9578 121.161 65.6134 121.217 65.3098 120.908Z" fill="#DFE0E3"/>
<path d="M78.2242 119.651C77.907 119.916 77.5878 120.181 77.2706 120.448C77.2219 120.396 77.1733 120.345 77.1266 120.293C77.4496 120.036 77.7746 119.779 78.0977 119.521C78.1386 119.564 78.1814 119.609 78.2242 119.651Z" fill="#151830"/>
<path d="M68.227 123.047C68.4236 123.062 68.6182 123.08 68.8147 123.095C68.7544 123.43 68.515 123.478 68.2542 123.395C68.0538 123.329 68.081 123.175 68.227 123.047Z" fill="#FCF7F6"/>
<path d="M65.7924 122.767C65.337 122.515 65.3585 122.171 65.6037 121.786C65.6465 121.829 65.6912 121.871 65.7321 121.914C65.6484 122.19 65.7477 122.415 65.9364 122.616C65.8878 122.666 65.8411 122.716 65.7924 122.767Z" fill="#151830"/>
<path d="M77.2706 120.446C77.0059 120.635 76.7413 120.827 76.4786 121.016C76.4357 120.968 76.3949 120.921 76.3521 120.873C76.5525 120.602 76.823 120.424 77.1266 120.291C77.1733 120.343 77.222 120.395 77.2706 120.446Z" fill="#151830"/>
<path d="M76.0951 120.249C76.2839 119.98 76.4726 119.711 76.6634 119.442C76.7101 119.493 76.7587 119.543 76.8054 119.593C76.677 119.899 76.5038 120.171 76.2449 120.386C76.1963 120.338 76.1457 120.293 76.0951 120.249Z" fill="#151830"/>
<path d="M76.6633 119.441C76.8599 119.189 77.0584 118.938 77.255 118.688C77.3036 118.735 77.3523 118.781 77.4009 118.83C77.2024 119.083 77.0039 119.338 76.8054 119.592C76.7587 119.541 76.71 119.491 76.6633 119.441Z" fill="#151830"/>
<path d="M79.4094 118.309C79.279 118.619 79.0805 118.874 78.8061 119.071C78.7652 119.031 78.7224 118.99 78.6796 118.949C78.8722 118.69 79.0649 118.433 79.2576 118.174C79.3101 118.22 79.3588 118.265 79.4094 118.309Z" fill="#151830"/>
<path d="M66.5222 120.258C66.6254 120.26 66.7305 120.264 66.8336 120.266C66.8531 120.42 66.8881 120.621 66.6662 120.617C66.4347 120.612 66.5086 120.405 66.5222 120.258Z" fill="#DFE0E3"/>
<path d="M74.2152 123.894C74.1607 123.996 74.1062 124.101 74.0537 124.203C73.9252 124.188 73.7987 124.174 73.6703 124.159C73.7442 123.847 73.9544 123.822 74.2152 123.894Z" fill="#FCF7F6"/>
<path d="M80.6432 53.5013C80.4797 53.4955 80.3435 53.4433 80.2715 53.2847C80.4622 53.2422 80.6432 53.217 80.6432 53.5013Z" fill="#515151"/>
<path d="M10.7076 98.6787C10.7037 98.8431 10.6706 98.9939 10.5169 99.0906C10.476 98.905 10.4196 98.7135 10.7076 98.6787Z" fill="#515151"/>
<path d="M70.7491 122.488C71.1014 122.478 71.006 122.664 70.9107 122.85C70.8581 122.784 70.8056 122.718 70.753 122.65C70.7569 122.587 70.7628 122.521 70.7667 122.457C70.7667 122.459 70.7491 122.488 70.7491 122.488Z" fill="#FCF7F6"/>
<path d="M70.7667 122.459C70.7628 122.523 70.7569 122.589 70.753 122.653C70.6518 122.709 70.5506 122.765 70.4494 122.821C70.4125 122.759 70.3774 122.695 70.3405 122.633C70.4455 122.484 70.5176 122.256 70.7667 122.459Z" fill="#151830"/>
<path d="M77.255 118.688C77.3484 118.59 77.4418 118.489 77.5352 118.391C77.5858 118.439 77.6384 118.487 77.689 118.536C77.5936 118.634 77.4963 118.731 77.401 118.83C77.3523 118.781 77.3037 118.735 77.255 118.688Z" fill="#151830"/>
<path d="M10.7114 53.2846C10.6433 53.3581 10.5771 53.4316 10.509 53.5051C10.4934 53.3562 10.5479 53.2711 10.7114 53.2846Z" fill="#515151"/>
<path d="M44.5291 66.0296C44.4395 66.0993 44.35 66.1689 44.2625 66.2385C44.2683 66.0625 44.3636 66.0026 44.5291 66.0296Z" fill="#515151"/>
<path d="M76.5856 34.5835C76.6459 34.4752 76.7101 34.4675 76.7821 34.5738C76.716 34.5777 76.6498 34.5796 76.5856 34.5835Z" fill="#515151"/>
<path d="M44.712 67.033C44.7802 66.9034 44.8463 66.9073 44.9105 67.0349C44.8444 67.0349 44.7782 67.0349 44.712 67.033Z" fill="#515151"/>
<path d="M93.1042 67.039C93.1704 66.9713 93.2366 66.9017 93.3028 66.834C93.3222 66.9848 93.2561 67.0525 93.1042 67.039Z" fill="#515151"/>
<path d="M10.5168 99.2881C10.5402 99.3345 10.5674 99.377 10.583 99.4254C10.5869 99.4351 10.5382 99.4602 10.5129 99.4776C10.5129 99.4157 10.5149 99.3519 10.5168 99.2881Z" fill="#515151"/>
<path d="M76.0017 34.585C76.0659 34.4534 76.134 34.4515 76.2002 34.583C76.134 34.583 76.0679 34.585 76.0017 34.585Z" fill="#515151"/>
<path d="M70.4494 122.821C70.4319 122.879 70.393 122.918 70.3346 122.935C70.2724 122.899 70.2081 122.862 70.1459 122.823C70.2101 122.759 70.2763 122.696 70.3405 122.632C70.3774 122.696 70.4125 122.759 70.4494 122.821Z" fill="#151830"/>
<path d="M10.509 100.253C10.5771 100.328 10.6433 100.402 10.7114 100.477C10.5401 100.495 10.4954 100.4 10.509 100.253Z" fill="#515151"/>
<path d="M10.5091 34.3818C10.5752 34.4495 10.6414 34.5172 10.7076 34.5868C10.5558 34.5984 10.4896 34.5288 10.5091 34.3818Z" fill="#515151"/>
<path d="M78.446 119.469C78.3721 119.529 78.2981 119.589 78.2242 119.649C78.1813 119.607 78.1385 119.564 78.0977 119.52C78.1638 119.458 78.2319 119.398 78.2981 119.336C78.3468 119.382 78.3974 119.427 78.446 119.469Z" fill="#151830"/>
<path d="M78.6406 119.276C78.5764 119.34 78.5102 119.406 78.446 119.469C78.3954 119.425 78.3467 119.38 78.2961 119.336C78.3604 119.272 78.4265 119.208 78.4907 119.145C78.5413 119.189 78.5919 119.234 78.6406 119.276Z" fill="#151830"/>
<path d="M78.8081 119.071C78.7536 119.139 78.6971 119.208 78.6427 119.276C78.594 119.232 78.5434 119.189 78.4948 119.145C78.557 119.079 78.6212 119.015 78.6835 118.949C78.7244 118.99 78.7653 119.03 78.8081 119.071Z" fill="#151830"/>
<path d="M10.5246 32.6475C10.5441 32.6939 10.5694 32.7384 10.581 32.7867C10.583 32.7983 10.5363 32.8196 10.511 32.837C10.5168 32.7732 10.5207 32.7093 10.5246 32.6475Z" fill="#515151"/>
<path d="M93.3027 66.254C93.2346 66.1786 93.1645 66.1031 93.0964 66.0277C93.2638 66.0142 93.3183 66.1031 93.3027 66.254Z" fill="#515151"/>
<path d="M15.604 20.9748C13.4983 20.9439 13.4983 20.9439 13.4983 18.8321C13.4983 17.0181 13.4983 17.0162 15.3043 17.0181C16.0808 17.0201 16.8592 16.9775 17.6221 17.1786C18.5524 17.4223 19.0506 18.0527 19.0486 18.9907C19.0467 19.9518 18.494 20.6751 17.5384 20.8356C16.904 20.94 16.2501 20.9323 15.604 20.9748Z" fill="#F2F0EF"/>
<path d="M15.3821 15.701C13.4983 15.6758 13.4983 15.6758 13.4983 13.7574C13.4983 12.2394 13.4983 12.2297 15.026 12.2471C15.7363 12.2548 16.4486 12.2761 17.1531 12.3593C18.0658 12.4676 18.6068 13.0999 18.5893 13.9953C18.5718 14.8849 18.095 15.4573 17.2193 15.6004C16.616 15.699 15.9952 15.672 15.3821 15.701Z" fill="#F2F0EF"/>
<path d="M37.3538 120.175C37.5951 125.043 33.1074 129.564 27.9034 129.471C22.8455 129.382 18.5115 125.515 18.5407 120.034C18.5679 114.747 22.7657 110.705 28.0533 110.717C33.5277 110.73 37.6496 115.389 37.3538 120.175ZM27.4831 127.907C31.8755 128.321 35.6315 125.116 35.8903 120.359C36.1083 116.371 33.2767 112.807 28.8376 112.281C24.3557 111.749 20.372 115.112 20.0781 119.628C19.8037 123.807 22.9506 127.719 27.4831 127.907Z" fill="#FAFCFC"/>
<path d="M86.3084 108.955C86.2753 109.059 86.2305 109.214 86.178 109.365C85.5124 111.276 84.8332 113.182 84.1832 115.099C83.9322 115.84 83.5157 116.149 82.7217 115.874C77.2609 113.985 71.8001 112.099 66.3334 110.227C65.5219 109.949 65.2864 109.475 65.5744 108.675C66.2595 106.77 66.9348 104.861 67.5828 102.945C67.8572 102.129 68.3126 101.922 69.1319 102.208C74.5577 104.097 79.9893 105.961 85.4209 107.831C85.9425 108.011 86.3823 108.243 86.3084 108.955ZM82.9727 110.39C82.926 109.775 82.8209 109.177 82.2702 108.781C81.5774 108.282 80.7289 108.16 79.9465 107.878C79.6137 107.758 79.5748 108.033 79.5086 108.234C79.098 109.477 78.6932 110.724 78.2865 111.972C78.23 112.146 78.0899 112.37 78.3585 112.455C79.351 112.772 80.3202 113.436 81.408 112.987C82.5329 112.527 82.784 111.463 82.9727 110.39ZM71.4595 108.021C72.1465 108.056 72.6038 107.655 72.8121 106.971C73.0281 106.261 72.7906 105.675 72.1115 105.37C71.4673 105.082 70.7784 104.894 70.1108 104.654C69.8734 104.569 69.673 104.534 69.5737 104.836C69.1319 106.176 68.6882 107.514 68.2465 108.854C68.1647 109.102 68.3243 109.212 68.5228 109.272C68.7213 109.332 68.8459 109.206 68.8653 109.038C69.0366 107.479 69.9162 107.433 71.0936 107.984C71.1773 108.023 71.2863 108.005 71.4595 108.021ZM71.5568 110.15C71.9791 110.558 72.2535 110.407 72.5182 110.015C72.8257 109.56 73.1001 109.148 73.8338 109.433C74.5538 109.711 75.2564 109.85 75.1143 110.86C75.052 111.301 75.2311 111.61 75.8402 111.556C75.7312 109.99 75.6183 108.425 75.5191 106.861C75.5016 106.573 75.4043 106.377 75.1201 106.275C74.7951 106.159 74.6492 106.381 74.4857 106.578C73.5068 107.77 72.5299 108.963 71.5568 110.15ZM76.8911 112.001C77.1402 112.003 77.1461 111.784 77.2064 111.608C77.6248 110.359 78.0452 109.11 78.4636 107.86C78.5395 107.636 78.6017 107.429 78.2748 107.333C77.942 107.234 77.8856 107.47 77.8155 107.681C77.399 108.932 76.9962 110.185 76.5758 111.434C76.4727 111.744 76.5369 111.929 76.8911 112.001Z" fill="#FCF7F6"/>
<path d="M73.9019 124.6C73.9155 124.706 73.9136 124.807 73.789 124.851C73.7267 124.723 73.8065 124.658 73.9019 124.6Z" fill="#FDFDFD"/>
<path d="M74.7719 124.19C74.7913 124.076 74.8147 123.962 74.9606 123.942C74.8983 124.026 74.8341 124.109 74.7719 124.19Z" fill="#FDFDFD"/>
<path d="M78.6816 118.949C78.6193 119.015 78.5551 119.079 78.4928 119.144C78.4286 119.208 78.3624 119.272 78.2982 119.336C78.232 119.398 78.1639 119.458 78.0977 119.52C77.7747 119.777 77.4497 120.034 77.1266 120.291C76.823 120.427 76.5525 120.604 76.3521 120.873C76.0601 120.982 75.9142 120.974 76.1458 120.633C76.1964 120.56 76.2139 120.465 76.247 120.382C76.5039 120.167 76.679 119.895 76.8075 119.589C77.006 119.336 77.2045 119.081 77.403 118.827C77.4983 118.729 77.5956 118.632 77.691 118.533C78.0452 118.179 78.3974 117.825 78.7516 117.472C78.9949 117.514 79.2187 117.104 79.4366 117.381C79.6566 117.659 79.2498 117.889 79.2596 118.174C79.0669 118.433 78.8742 118.692 78.6816 118.949Z" fill="#FCF7F6"/>
<path d="M74.8982 122.54C74.8243 122.579 74.7523 122.627 74.6725 122.652C74.655 122.658 74.5752 122.557 74.5869 122.538C74.6238 122.467 74.6861 122.409 74.7387 122.347C74.7698 122.387 74.8029 122.426 74.8982 122.54Z" fill="#FDFDFD"/>
<path d="M65.9364 122.616C65.7496 122.417 65.6484 122.192 65.7321 121.914C66.0162 121.792 66.314 121.556 66.5884 121.891C66.6701 121.989 66.6818 122.196 66.6429 122.332C66.5397 122.709 66.2225 122.645 65.9364 122.616Z" fill="#DFE0E3"/>
<path d="M27.483 127.907C22.9505 127.722 19.8056 123.808 20.0781 119.627C20.3739 115.111 24.3556 111.748 28.8375 112.28C33.2747 112.808 36.1082 116.372 35.8903 120.358C35.6295 125.117 31.8754 128.321 27.483 127.907ZM27.9676 112.982C23.8652 112.988 20.7884 116.086 20.7942 120.205C20.8001 124.121 24.0092 127.296 27.9598 127.294C32.0117 127.292 35.1994 124.113 35.1974 120.073C35.1955 116.094 32.0175 112.974 27.9676 112.982Z" fill="#9DD7E3"/>
<path d="M82.9728 110.39C82.784 111.463 82.5329 112.527 81.412 112.987C80.3221 113.434 79.3549 112.772 78.3624 112.455C78.0938 112.37 78.234 112.146 78.2904 111.972C78.6952 110.726 79.1 109.479 79.5126 108.234C79.5787 108.033 79.6176 107.758 79.9504 107.878C80.7328 108.16 81.5793 108.282 82.2741 108.781C82.821 109.177 82.926 109.775 82.9728 110.39ZM82.2683 110.278C82.3519 109.305 81.5754 109.027 80.7367 108.733C80.2443 108.561 80.0438 108.655 79.9037 109.133C79.6682 109.935 79.4075 110.73 79.1214 111.515C78.9599 111.956 79.0903 112.105 79.5262 112.258C81.1317 112.815 82.1787 112.127 82.2683 110.278Z" fill="#F8421C"/>
<path d="M71.4595 108.021C71.2863 108.005 71.1773 108.023 71.0956 107.984C69.9182 107.433 69.0386 107.479 68.8673 109.038C68.8498 109.206 68.7233 109.332 68.5248 109.272C68.3263 109.212 68.1667 109.102 68.2484 108.854C68.6902 107.514 69.1339 106.176 69.5757 104.836C69.6749 104.532 69.8754 104.567 70.1128 104.654C70.7784 104.894 71.4693 105.081 72.1134 105.369C72.7926 105.673 73.03 106.259 72.814 106.971C72.6038 107.653 72.1465 108.054 71.4595 108.021ZM71.152 107.402C71.8371 107.444 72.1348 107.119 72.1679 106.559C72.199 106.023 71.2046 105.321 70.3989 105.396C69.7139 105.462 69.7333 106.213 69.7547 106.59C69.8034 107.45 70.757 107.075 71.152 107.402Z" fill="#F8421C"/>
<path d="M71.5568 110.15C72.5298 108.963 73.5068 107.77 74.4857 106.577C74.6472 106.379 74.7951 106.155 75.1201 106.273C75.4042 106.375 75.4996 106.571 75.5191 106.859C75.6183 108.423 75.7312 109.988 75.8402 111.554C75.233 111.61 75.0539 111.299 75.1143 110.858C75.2563 109.851 74.5538 109.709 73.8337 109.431C73.1 109.149 72.8256 109.559 72.5181 110.013C72.2535 110.408 71.9791 110.558 71.5568 110.15ZM75.0053 106.874C74.5226 107.478 74.2268 107.847 73.933 108.216C73.894 108.267 73.8551 108.317 73.8143 108.365C73.5379 108.681 73.6411 108.812 74.0147 108.957C74.9488 109.321 75.0267 109.286 75.0072 108.302C74.9994 107.926 75.0053 107.553 75.0053 106.874Z" fill="#F8421C"/>
<path d="M76.8911 112.001C76.5349 111.929 76.4707 111.744 76.5738 111.434C76.9942 110.185 77.399 108.932 77.8135 107.681C77.8836 107.47 77.94 107.234 78.2728 107.333C78.5998 107.429 78.5375 107.636 78.4616 107.861C78.0432 109.11 77.6228 110.359 77.2044 111.608C77.1479 111.784 77.1402 112.003 76.8911 112.001Z" fill="#F8421C"/>
<path d="M27.9677 112.981C32.0156 112.976 35.1956 116.095 35.1975 120.075C35.1995 124.115 32.0137 127.294 27.9599 127.296C24.0093 127.298 20.8002 124.12 20.7943 120.206C20.7904 116.085 23.8653 112.987 27.9677 112.981ZM32.6228 122.639C32.5508 122.322 32.2686 122.214 32.0254 122.065C29.4682 120.514 26.911 118.961 24.3518 117.412C24.0054 117.203 23.6103 116.83 23.3087 117.414C23.0168 117.98 23.6532 118.023 23.9062 118.185C25.5331 119.224 27.1893 120.214 28.8376 121.216C29.8262 121.817 30.8246 122.405 31.8113 123.01C32.2803 123.293 32.5255 123.15 32.6228 122.639ZM32.0896 120.251C32.0409 119.93 31.8463 119.798 31.6575 119.684C29.9197 118.634 28.1779 117.596 26.44 116.544C26.2026 116.401 26.0119 116.252 25.8114 116.596C25.6304 116.905 25.6499 117.126 25.9768 117.313C26.368 117.538 26.7455 117.785 27.1309 118.017C28.5087 118.851 29.8866 119.686 31.2683 120.512C31.4513 120.622 31.6595 120.806 31.8794 120.599C31.9884 120.498 32.039 120.338 32.0896 120.251ZM24.2662 119.566C23.9937 119.587 23.8614 119.725 23.7855 119.91C23.696 120.127 23.8108 120.272 23.9957 120.384C25.8153 121.483 27.6349 122.579 29.4506 123.681C29.7873 123.886 29.9975 123.736 30.1727 123.465C30.4101 123.099 30.0559 123.03 29.8613 122.912C28.1584 121.869 26.4517 120.835 24.743 119.8C24.5795 119.702 24.3985 119.632 24.2662 119.566ZM27.8159 115.145C27.5162 115.147 27.4267 115.327 27.3411 115.495C27.162 115.849 27.4851 115.942 27.6816 116.066C28.9933 116.876 30.3147 117.669 31.6264 118.476C31.9008 118.646 32.146 118.909 32.4204 118.474C32.6987 118.031 32.4029 117.847 32.0798 117.654C30.811 116.898 29.546 116.136 28.2771 115.379C28.1137 115.283 27.9366 115.207 27.8159 115.145ZM28.5924 124.474C28.5515 124.397 28.5301 124.277 28.462 124.235C26.9771 123.329 25.4922 122.424 23.9937 121.541C23.7446 121.394 23.5831 121.61 23.4683 121.823C23.3554 122.03 23.4041 122.181 23.6065 122.303C25.0116 123.157 26.4089 124.022 27.8179 124.867C28.2285 125.113 28.4815 124.921 28.5924 124.474Z" fill="#FAFCFC"/>
<path d="M82.2682 110.278C82.1786 112.127 81.1316 112.814 79.528 112.258C79.0901 112.108 78.9617 111.957 79.1232 111.516C79.4093 110.731 79.6701 109.936 79.9056 109.133C80.0457 108.656 80.2442 108.561 80.7385 108.733C81.5753 109.027 82.3538 109.307 82.2682 110.278Z" fill="#FCF7F6"/>
<path d="M71.152 107.403C70.755 107.076 69.8034 107.453 69.7547 106.591C69.7333 106.214 69.7139 105.463 70.3989 105.397C71.2026 105.32 72.1991 106.024 72.1679 106.56C72.1348 107.119 71.839 107.443 71.152 107.403Z" fill="#FCF7F6"/>
<path d="M75.0053 106.874C75.0053 107.553 74.9994 107.926 75.0072 108.301C75.0267 109.286 74.9488 109.322 74.0147 108.957C73.641 108.812 73.5379 108.68 73.8142 108.365C73.8571 108.317 73.894 108.266 73.933 108.216C74.2268 107.847 74.5226 107.477 75.0053 106.874Z" fill="#FCF7F6"/>
<path d="M32.6228 122.639C32.5235 123.149 32.2783 123.294 31.8132 123.008C30.8265 122.403 29.8282 121.815 28.8395 121.214C27.1912 120.212 25.5331 119.222 23.9081 118.183C23.6551 118.021 23.0168 117.978 23.3106 117.412C23.6142 116.826 24.0073 117.201 24.3537 117.41C26.9129 118.959 29.4681 120.512 32.0273 122.063C32.2705 122.213 32.5508 122.322 32.6228 122.639Z" fill="#9DD7E3"/>
<path d="M32.0896 120.25C32.039 120.337 31.9884 120.498 31.8794 120.598C31.6595 120.805 31.4513 120.622 31.2683 120.511C29.8866 119.686 28.5087 118.85 27.1309 118.017C26.7456 117.783 26.368 117.535 25.9768 117.313C25.6499 117.125 25.6304 116.905 25.8114 116.595C26.0119 116.251 26.2026 116.4 26.44 116.543C28.176 117.593 29.9197 118.634 31.6576 119.684C31.8463 119.798 32.0409 119.929 32.0896 120.25Z" fill="#9DD7E3"/>
<path d="M24.2661 119.566C24.3984 119.63 24.5794 119.702 24.7429 119.8C26.4516 120.833 28.1583 121.87 29.8612 122.912C30.0558 123.032 30.41 123.1 30.1725 123.465C29.9974 123.736 29.7872 123.887 29.4505 123.682C27.6348 122.579 25.8152 121.481 23.9956 120.384C23.8107 120.274 23.6959 120.127 23.7854 119.911C23.8613 119.727 23.9936 119.588 24.2661 119.566Z" fill="#9DD7E3"/>
<path d="M27.8159 115.146C27.9365 115.205 28.1136 115.281 28.2791 115.38C29.5479 116.136 30.8129 116.898 32.0818 117.654C32.4048 117.845 32.7006 118.031 32.4223 118.474C32.1499 118.909 31.9047 118.646 31.6283 118.476C30.3166 117.669 28.9952 116.874 27.6835 116.066C27.485 115.944 27.162 115.851 27.343 115.496C27.4267 115.327 27.5162 115.147 27.8159 115.146Z" fill="#9DD7E3"/>
<path d="M28.5923 124.475C28.4814 124.921 28.2284 125.115 27.8158 124.867C26.4049 124.022 25.0076 123.158 23.6044 122.303C23.402 122.181 23.3534 122.03 23.4662 121.823C23.5811 121.613 23.7426 121.394 23.9917 121.541C25.4902 122.425 26.9751 123.328 28.46 124.235C28.53 124.278 28.5514 124.397 28.5923 124.475Z" fill="#9DD7E3"/>
<path d="M18.2074 14.1107C17.9091 12.2442 16.4475 11.1533 14.6023 11.1533C12.3438 11.1533 10.6776 12.8451 10.6776 15.6363C10.6776 18.4275 12.3353 20.1192 14.6023 20.1192C16.5199 20.1192 17.9219 18.9175 18.2074 17.1917L16.8779 17.1874C16.652 18.3039 15.7145 18.9175 14.6109 18.9175C13.1151 18.9175 11.9859 17.7712 11.9859 15.6363C11.9859 13.5184 13.1109 12.355 14.6151 12.355C15.7273 12.355 16.6606 12.9814 16.8779 14.1107H18.2074Z" fill="#0BBF69"/>
<path d="M19.2831 19.9999H20.5998V16.1945H24.3072V15.0653H20.5998V12.4062H24.695V11.2726H19.2831V19.9999Z" fill="#0BBF69"/>
<path d="M25.8143 19.9999H31.3371V18.8664H27.1311V16.1945H31.0004V15.0653H27.1311V12.4062H31.2859V11.2726H25.8143V19.9999Z" fill="#0BBF69"/>
</g>
<defs>
<clipPath id="clip0">
<rect width="103.855" height="136" fill="white"/>
</clipPath>
</defs>
</svg>
