<svg width="108" height="107" viewBox="0 0 108 107" fill="none" xmlns="http://www.w3.org/2000/svg">
<path d="M92.247 0C89.7571 0 87.7383 2.01727 87.7383 4.50647V71.7828C87.7383 74.272 89.7571 76.2892 92.247 76.2892C94.7374 76.2892 96.7558 74.2716 96.7558 71.7828V4.50647C96.7558 2.01727 94.7374 0 92.247 0Z" fill="#406692"/>
<path d="M87.7441 3.93958V72.3497C87.7441 72.3497 63.407 55.3744 39.6648 51.9623V24.3437C63.407 20.9319 87.7441 3.93958 87.7441 3.93958Z" fill="#79B5D6"/>
<path d="M39.6586 64.0693H35.2798V80.8584H39.6586C41.4851 80.8584 42.9655 79.3784 42.9655 77.5526V67.3751C42.9658 65.5493 41.4851 64.0693 39.6586 64.0693Z" fill="#FEC200"/>
<path d="M46.6328 103.47C46.4744 105.506 44.6205 107 42.5782 107H23.9018C22.3659 107 21.0573 105.887 20.8111 104.372L12.7466 54.7163H33.5003L41.9919 99.344H42.8069C43.8594 99.344 44.828 99.7684 45.5241 100.465C46.2874 101.228 46.724 102.297 46.6328 103.47Z" fill="#406692"/>
<path d="M7.94019 50.3903H2.57765C1.63722 50.3903 0.875 49.6281 0.875 48.6876V27.6015C0.875 26.6614 1.63722 25.8988 2.57765 25.8988H7.94019V50.3903Z" fill="#79B5D6"/>
<path d="M9.27976 55.5326H36.2209C38.1231 55.5326 39.6646 53.9907 39.6646 52.0886V24.2005C39.6646 22.2984 38.1227 20.7568 36.2209 20.7568H9.27976C7.37762 20.7568 5.83569 22.2988 5.83569 24.2005V52.0886C5.83569 53.9907 7.378 55.5326 9.27976 55.5326Z" fill="#9FCBE2"/>
<path d="M96.7554 27.0303V49.2586C102.896 49.2586 107.875 44.2829 107.875 38.1445C107.875 32.006 102.896 27.0303 96.7554 27.0303Z" fill="#FEC200"/>
</svg>
