<svg width="24" height="16" viewBox="0 0 24 16" fill="none" xmlns="http://www.w3.org/2000/svg">
<path fill-rule="evenodd" clip-rule="evenodd" d="M1.53467 0.539551C1.53377 0.544372 1.53283 0.548661 1.5316 0.553725C1.52352 0.556482 1.53121 0.555692 1.52314 0.558449L1.5193 0.567111H1.507L1.49854 0.574985V0.66869C1.50511 0.67374 1.50263 0.672627 1.51084 0.672627L1.51468 0.677351C1.52021 0.688674 1.53778 0.693761 1.54851 0.702549V0.715148L1.54005 0.719085C1.54005 0.738197 1.53681 0.754547 1.52775 0.770268C1.51918 0.785142 1.51386 0.800898 1.52314 0.816727C1.53361 0.814594 1.53661 0.811596 1.5439 0.804128C1.55211 0.804128 1.54963 0.805241 1.5562 0.800191C1.56951 0.804277 1.57596 0.804128 1.58926 0.804128L1.59771 0.808065C1.59771 0.831111 1.60617 0.861243 1.60617 0.88917C1.60617 0.926501 1.60257 0.968924 1.64769 0.97815C1.64769 0.991417 1.65311 1.0018 1.66383 1.00728C1.66383 1.03702 1.65999 1.06193 1.65999 1.09233H1.7015L1.70535 1.08839C1.70535 1.07999 1.70504 1.08174 1.70996 1.075H1.72226V1.15611C1.74675 1.16613 1.77159 1.18524 1.80068 1.18524C1.80765 1.19476 1.80452 1.21148 1.80452 1.22383C1.80452 1.24842 1.79364 1.25016 1.78838 1.26635H1.76378C1.76245 1.26092 1.76049 1.25918 1.75916 1.25375C1.75156 1.25181 1.75261 1.25287 1.75071 1.24509L1.74686 1.24036H1.70996V1.23249C1.70189 1.22973 1.70958 1.23052 1.7015 1.22777V1.2191C1.68869 1.20926 1.65859 1.19459 1.64307 1.20651V1.23249C1.65129 1.23529 1.66951 1.25658 1.6892 1.26163C1.69639 1.29844 1.72685 1.29831 1.74686 1.32147C1.75854 1.335 1.74686 1.36186 1.74686 1.37659C1.76425 1.37659 1.77003 1.38075 1.78453 1.38446C1.78453 1.40483 1.73456 1.40154 1.73456 1.46951C1.75086 1.47507 1.7664 1.50337 1.78838 1.50337C1.79449 1.52216 1.85911 1.54878 1.85911 1.57581C1.8865 1.58983 1.88756 1.61894 1.88756 1.64747C1.88756 1.69337 1.94983 1.70138 1.94983 1.75377C1.94983 1.78001 1.96002 1.79177 1.96213 1.81283C1.9632 1.8235 1.96213 1.83585 1.96213 1.84669C1.96213 1.8527 1.9584 1.85712 1.95829 1.85929C1.95725 1.87631 1.95521 1.92622 1.94983 1.93173C1.94415 1.93754 1.93753 1.92398 1.93753 1.9396C1.93753 1.96335 1.99869 1.94997 2.01595 1.96559C2.03829 1.98582 2.03186 2.01338 2.04516 2.03331C2.06654 2.06527 2.09248 2.06919 2.11512 2.09237C2.1303 2.1079 2.15066 2.16036 2.12358 2.17741C2.09975 2.19241 2.09982 2.19384 2.10282 2.2278C2.10526 2.2555 2.18168 2.24471 2.12358 2.28765C2.09877 2.30599 2.09052 2.30009 2.09052 2.33411C2.09052 2.35473 2.09555 2.36777 2.11512 2.38056C2.1461 2.4008 2.11471 2.44828 2.14049 2.44828C2.17207 2.44828 2.15664 2.40542 2.15664 2.3845C2.16209 2.41242 2.1774 2.39828 2.1774 2.42702C2.1774 2.44931 2.16628 2.45301 2.1897 2.45301C2.2253 2.48581 2.22484 2.47187 2.21891 2.52466C2.21313 2.57624 2.25464 2.57679 2.24813 2.63491C2.24303 2.68027 2.21706 2.72959 2.20661 2.76168H2.1897V2.81286C2.19522 2.81476 2.19643 2.81836 2.19815 2.82546C2.22744 2.82546 2.25855 2.8221 2.28503 2.83413C2.31353 2.84709 2.26943 2.91 2.31424 2.91917C2.31424 2.94351 2.23576 3.03208 2.3227 3.04988C2.34222 3.0249 2.37831 3.02626 2.38882 3.05854C2.429 3.05854 2.40871 3.13886 2.45493 3.13886C2.45663 3.1441 2.45827 3.14578 2.46339 3.14752V3.16485C2.47512 3.16884 2.47185 3.16081 2.47185 3.17745C2.48303 3.18126 2.53547 3.21621 2.53797 3.2239C2.55164 3.22589 2.61254 3.2598 2.61254 3.27902C2.61946 3.28139 2.61638 3.28798 2.61638 3.29635C2.63498 3.30269 2.63803 3.33808 2.6825 3.33808C2.71442 3.34385 2.7329 3.35147 2.76553 3.35147C2.79826 3.35147 2.80339 3.3932 2.82781 3.3932C2.82781 3.52398 2.99771 3.5671 2.99771 3.69006C2.99771 3.77354 3.11765 3.731 3.11765 3.80424C3.11765 3.89819 3.16534 3.86649 3.19607 3.89795C3.21666 3.91903 3.19429 3.95449 3.22528 3.97433C3.26396 3.99907 3.30754 3.96403 3.30754 4.05071C3.30754 4.09616 3.35367 4.12591 3.35367 4.17748C3.34455 4.22184 3.33122 4.19923 3.32446 4.22C3.29926 4.22 3.3037 4.2517 3.3037 4.2704C3.29077 4.27371 3.28948 4.28772 3.27448 4.28772C3.27108 4.29817 3.25685 4.30333 3.25373 4.31292H3.24604V4.35151C3.25332 4.35399 3.25751 4.36958 3.2668 4.3767C3.27172 4.36997 3.27064 4.37251 3.27064 4.3641C3.28341 4.35975 3.29097 4.35544 3.31216 4.35544C3.31216 4.38824 3.30691 4.40292 3.29985 4.43182C3.29039 4.43182 3.27673 4.4352 3.27448 4.44442H3.2668L3.26218 4.44836V4.51687C3.24731 4.51687 3.2337 4.51712 3.2199 4.51844C3.2134 4.51907 3.20661 4.5196 3.19991 4.5208C3.16175 4.52754 3.17455 4.56391 3.14609 4.56726C3.12929 4.56922 3.07855 4.5342 3.05537 4.52946C3.07105 4.54989 3.11176 4.62203 3.13379 4.63104C3.1375 4.62439 3.14066 4.62021 3.14225 4.61372C3.15787 4.60973 3.16223 4.58852 3.17992 4.58852C3.25209 4.58852 3.18761 4.67872 3.18761 4.71608C3.20927 4.71608 3.20665 4.71378 3.22528 4.70742C3.22898 4.72256 3.23739 4.74128 3.24143 4.75782C3.24822 4.75608 3.24839 4.7554 3.25373 4.74994C3.26022 4.72999 3.26323 4.7349 3.2668 4.72396C3.29139 4.72396 3.29241 4.73736 3.29985 4.75782C3.305 4.772 3.33141 4.76648 3.34521 4.76648C3.34521 4.78656 3.34968 4.80506 3.32446 4.80506H3.2914C3.2752 4.80506 3.27237 4.8109 3.25834 4.81294V4.8216H3.21298C3.21298 4.79876 3.19222 4.78131 3.19222 4.75782C3.17923 4.75449 3.16651 4.73402 3.15455 4.73262C3.13884 4.73078 3.1213 4.73262 3.10535 4.73262C3.10355 4.716 3.09228 4.70824 3.09228 4.69482V4.66096C3.07309 4.64738 3.08206 4.64758 3.06767 4.64758C3.06568 4.65374 3.0504 4.65931 3.04692 4.67356C3.01469 4.68181 3.02962 4.72868 2.98464 4.72868C2.95292 4.72868 2.94197 4.72008 2.91853 4.71608C2.91503 4.70176 2.88786 4.69894 2.88162 4.68616C2.87033 4.68616 2.83985 4.67094 2.83626 4.65624C2.80693 4.65124 2.7977 4.62238 2.74478 4.62238C2.69396 4.62238 2.65723 4.60584 2.61254 4.60584C2.60745 4.59022 2.55864 4.58592 2.55411 4.57198C2.53581 4.57198 2.51373 4.56726 2.49261 4.56726V4.57986C2.49994 4.58235 2.5126 4.58866 2.5126 4.60112C2.51812 4.60301 2.51933 4.60662 2.52105 4.61372H2.53797C2.60568 4.64405 2.64099 4.67015 2.64099 4.74994C2.69254 4.74994 2.76553 4.73874 2.76553 4.7964C2.76553 4.97659 2.96004 4.89566 2.96004 5.0972C2.96004 5.19234 2.97981 5.21138 3.07613 5.21138C3.14639 5.21138 3.10299 5.2655 3.14609 5.27122C3.16318 5.2735 3.20837 5.22142 3.20837 5.27516C3.20837 5.34121 3.27064 5.30594 3.27064 5.3728C3.27064 5.42941 3.38684 5.38068 3.41133 5.38068C3.45556 5.4008 3.39569 5.49092 3.45285 5.49092C3.46128 5.5168 3.49407 5.50519 3.49821 5.5421C3.49925 5.55141 3.54187 5.60373 3.54818 5.60588C3.54818 5.62137 3.55664 5.62168 3.55664 5.63502C3.57533 5.63502 3.58322 5.64565 3.602 5.64368C3.61634 5.64217 3.61528 5.62234 3.6266 5.61848C3.6266 5.60436 3.6389 5.58853 3.6389 5.57202C3.65283 5.56845 3.68475 5.55942 3.69733 5.55942C3.69948 5.55062 3.70525 5.54813 3.71347 5.54604C3.71347 5.52983 3.72073 5.53344 3.73423 5.53344C3.73953 5.55513 3.74269 5.59601 3.74269 5.61848C3.77969 5.61848 3.80977 5.62242 3.84186 5.62242C3.84186 5.60573 3.84648 5.59087 3.84648 5.57202H3.86262C3.86536 5.58042 3.88798 5.59328 3.90029 5.59328C3.90029 5.57781 3.91381 5.54093 3.89184 5.53344V5.46572C3.89823 5.46355 3.89568 5.46567 3.89568 5.45706C3.9008 5.45532 3.90244 5.45442 3.90414 5.44918H3.92105C3.92105 5.48775 3.9137 5.54676 3.92874 5.57596C3.93956 5.59695 3.95045 5.61199 3.93335 5.63108C3.925 5.64042 3.89986 5.68084 3.89568 5.68226C3.89568 5.78002 3.92237 5.72006 3.95795 5.72006C4.02127 5.72006 3.97563 5.78175 4.00793 5.80904C4.0749 5.86566 4.09595 5.86959 4.13632 5.94448C4.14367 5.95811 4.17591 5.97921 4.19013 5.99094C4.20744 6.00518 4.19778 6.1039 4.26009 6.07204C4.42227 5.98912 4.4297 6.18829 4.47767 6.25709C4.48726 6.27083 4.49862 6.27914 4.51303 6.27914C4.51303 6.382 4.57148 6.42402 4.60836 6.49568C4.63286 6.54327 4.61605 6.61778 4.61605 6.67364C4.61605 6.73229 4.63103 6.81577 4.59145 6.8516C4.57376 6.8676 4.55799 6.94293 4.54994 6.96578C4.53 7.02238 4.56685 7.04283 4.56685 7.08861C4.56685 7.1524 4.52231 7.15432 4.54994 7.23272C4.56989 7.28932 4.53549 7.3156 4.58299 7.36422C4.66883 7.24705 4.58003 7.38548 4.68294 7.38548C4.68294 7.34521 4.70293 7.40089 4.70293 7.41934H4.69524L4.69063 7.42406C4.69063 7.48689 4.7529 7.44834 4.7529 7.52958C4.77897 7.52958 4.75908 7.49906 4.75674 7.48706H4.77366C4.77366 7.50369 4.78211 7.51295 4.78211 7.52958C4.80182 7.53629 4.80853 7.58076 4.84823 7.58076C4.8513 7.56819 4.8578 7.56787 4.86053 7.5595C4.8748 7.5595 4.88605 7.56344 4.89821 7.56344C4.89821 7.59866 4.91869 7.67368 4.95587 7.67368C4.97682 7.75948 5.19573 7.85182 5.19573 7.8603C5.26741 7.88474 5.42556 8.09731 5.49019 8.09731C5.49307 8.11213 5.51012 8.14514 5.52325 8.1485C5.52325 8.26037 5.71391 8.33391 5.71391 8.34772C5.74748 8.34772 5.83384 8.3601 5.83384 8.39811C5.86276 8.40795 5.90381 8.56176 5.90381 8.58473C5.93429 8.59514 5.94532 8.62627 5.94532 8.66505C5.93064 8.67006 5.98053 8.81035 5.96223 8.83041C5.93927 8.8556 5.94687 8.91822 5.96992 8.92412C5.97275 8.93568 5.98061 8.94581 5.98299 8.95798H5.99068C5.99068 9.18181 6.24083 8.92166 6.28052 8.91152V8.90286C6.30221 8.90286 6.30839 8.8816 6.33049 8.8816C6.3338 8.86805 6.3534 8.86458 6.35971 8.85167C6.48096 8.64487 6.54302 8.73228 6.42736 8.44378C6.41302 8.40798 6.33102 8.40343 6.31358 8.31386C6.30256 8.25726 6.30363 8.24158 6.25592 8.20755C6.22037 8.1822 6.19272 8.14476 6.1898 8.11858C6.18215 8.05017 6.11182 8.07812 6.06987 7.94928C6.00995 7.89817 5.96334 7.91208 5.94993 7.80518C5.94774 7.78762 5.92082 7.79516 5.90381 7.79258C5.82409 7.78047 5.8394 7.80301 5.8546 7.81384C5.88678 7.83675 5.90058 7.89688 5.84999 7.90282C5.83345 7.90475 5.83769 7.92108 5.83769 7.93668C5.83769 7.99461 5.87161 7.94304 5.8915 7.95321C5.90827 7.96178 5.85035 8.03728 5.83384 8.0296C5.77537 8.00239 5.79918 7.95376 5.78387 7.90676C5.6319 7.81598 5.58292 7.58233 5.55861 7.58233C5.48092 7.58233 5.65015 7.41293 5.59936 7.31933C5.55543 7.23842 5.52244 7.18283 5.46405 7.10515C5.36558 6.97412 5.46385 6.79356 5.31567 6.71773C5.25554 6.68696 5.22731 6.48141 5.1942 6.42717C5.13342 6.32763 5.30631 6.22688 5.2211 6.24764C5.16659 6.26091 5.14823 5.92633 5.08579 5.8744C5.06345 5.85582 5.02475 5.74757 5.00507 5.71533C4.98245 5.67828 4.87881 5.59036 4.87668 5.58383C4.85066 5.57155 4.82286 5.54464 4.82286 5.58383C4.82286 5.64447 4.82726 5.62781 4.86284 5.65313C4.91928 5.69331 4.79683 5.78604 4.91743 5.7988C4.99664 5.80719 4.99941 5.89555 4.91743 5.88857C4.87589 5.88503 4.854 5.82417 4.82901 5.79172C4.80475 5.76019 4.76213 5.77113 4.76213 5.71533C4.76213 5.69593 4.75597 5.66027 4.76828 5.64604C4.79035 5.6205 4.7836 5.57882 4.76828 5.55627C4.73743 5.51088 4.7283 5.52868 4.7283 5.45942C4.71615 5.40551 4.64396 5.36209 4.60683 5.30745C4.58171 5.2705 4.54783 5.02073 4.5115 5.01688C4.27904 4.99228 4.29997 4.75864 4.26086 4.59718C4.25317 4.56542 4.24246 4.53615 4.2278 4.51214C4.19389 4.45661 4.18091 4.36319 4.18091 4.29166C4.18091 4.22509 3.9987 4.22409 3.9987 4.04913C3.9987 3.91309 3.91721 3.85681 3.91721 3.91763C3.91721 3.96669 3.89739 3.81052 3.8434 3.77983C3.74045 3.7213 3.86399 3.87722 3.76883 3.77983C3.70808 3.71765 3.81649 3.7221 3.81649 3.64833C3.81649 3.60951 3.72193 3.68249 3.72193 3.50344C3.64259 3.43079 3.50027 3.18975 3.43824 3.15067C3.39448 3.12312 3.35673 3.08843 3.32292 3.05382C3.28688 3.01692 3.20738 3.06478 3.20145 3.01208C3.19526 2.95714 3.22012 2.93514 3.21529 2.88058C3.21244 2.84841 3.14763 3.00616 3.14763 2.89476C3.14763 2.82986 3.0036 2.8177 3.13379 2.7357C3.15135 2.72464 3.07306 2.73301 3.07306 2.68766C3.07306 2.41286 3.05999 2.34746 3.05999 2.04433C3.05999 1.97865 3.02154 2.07501 3.0054 2.0585C2.94521 1.99689 2.97849 1.82607 2.97849 1.74747C2.97849 1.5687 3.07444 1.56259 3.10688 1.46478C3.10193 1.46437 3.0971 1.46395 3.09228 1.46321C3.08446 1.4653 3.07861 1.46512 3.07767 1.46006C3.0621 1.45603 3.04876 1.4492 3.04154 1.4388C3.0376 1.4658 3.03231 1.48747 3.03231 1.44982C3.03231 1.44231 3.03545 1.43855 3.04 1.43722C3.03971 1.43675 3.03949 1.43613 3.03923 1.43565C3.01696 1.39434 3.02504 1.37659 3.04077 1.37265C3.02589 1.35212 2.98289 1.38308 2.95851 1.36714C2.93419 1.35125 2.9571 1.29304 2.94467 1.27737C2.93464 1.26475 2.90392 1.25347 2.90392 1.22855C2.90392 1.2085 2.90085 1.19588 2.89777 1.18918C2.89941 1.19068 2.90118 1.19195 2.90392 1.1939C2.92646 1.20997 2.94545 1.22486 2.96235 1.23958C2.96003 1.21411 2.96036 1.18337 2.96004 1.15611C2.96043 1.18343 2.96053 1.21466 2.96312 1.24036C2.99109 1.26485 3.01338 1.28841 3.03923 1.31832C3.04953 1.33024 3.09837 1.43804 3.14071 1.3947C3.14895 1.38627 3.13205 1.36005 3.15455 1.36005C3.23318 1.36005 3.15565 1.43263 3.10842 1.45691L3.10919 1.46478C3.13112 1.46637 3.153 1.46572 3.16762 1.46399C3.18315 1.46216 3.20368 1.39624 3.23528 1.44273C3.26633 1.48842 3.34285 1.5572 3.37674 1.58132C3.41467 1.60833 3.47822 1.55079 3.47822 1.62935C3.67561 1.81695 3.57265 1.41566 3.69425 1.54667C3.77796 1.63684 3.84955 1.59623 3.84955 1.75377C3.84955 1.93306 4.26163 1.80643 4.26163 1.96165C4.26163 2.09964 4.19475 2.19863 4.19475 2.36245C4.19475 2.43842 4.32954 2.53833 4.32314 2.63884C4.31664 2.74087 4.39977 2.99039 4.4646 3.12311C4.54013 3.27773 4.60683 3.32402 4.60683 3.49635C4.60324 3.4942 4.57915 3.39606 4.57915 3.55147C4.57915 3.57383 4.65144 3.55856 4.68063 3.55856C4.79111 3.55856 4.70251 3.70389 4.73445 3.78692C4.74922 3.8253 4.84404 4.01448 4.8836 4.01448C4.91789 4.01448 4.98508 3.98004 4.91743 4.09086C4.88938 4.13677 5.01814 4.12318 5.01814 4.21528C5.01814 4.3796 5.17589 4.31086 5.22802 4.42946C5.24066 4.45821 5.28768 4.49049 5.30183 4.51923C5.38898 4.69627 5.5482 4.74407 5.62934 4.76254C5.52108 4.59506 5.73695 4.80666 5.74774 4.79562C5.82594 4.86231 5.90321 4.84586 5.84922 4.86491C5.82569 4.87321 5.77041 4.9445 5.80847 4.96885C5.92616 5.04412 5.766 4.94437 5.84922 5.11374C5.89085 5.19845 5.85541 5.29166 5.91534 5.34445C5.94493 5.37054 6.02813 5.43709 6.05834 5.45942C6.12947 5.51199 6.14439 5.50063 6.19365 5.49407C6.25341 5.4861 6.253 5.64804 6.32896 5.68777C6.43566 5.74358 6.26949 5.78513 6.39123 5.8618C6.40833 5.87257 6.45734 5.89722 6.47734 5.89487C6.50122 5.89205 6.4999 5.80525 6.54499 5.83266C6.56952 5.84756 6.58231 5.8606 6.58881 5.87125C6.59006 5.86987 6.59122 5.86879 6.59266 5.86731C6.60343 5.85628 6.62736 5.90655 6.63955 5.91613C6.67039 5.94034 6.73889 6.08011 6.74719 6.11535L6.83329 6.13976L6.74719 6.11614C6.74812 6.12008 6.74868 6.12223 6.74796 6.12322C6.74796 6.17483 6.73974 6.17205 6.78793 6.17205C6.86387 6.17205 6.82176 6.21681 6.82176 6.25473C6.82176 6.28771 6.85283 6.33436 6.86943 6.36497C6.87621 6.37745 6.78755 6.36702 6.78178 6.30985C6.77935 6.28576 6.78949 6.24513 6.77486 6.22717C6.73615 6.1796 6.7272 6.19558 6.7272 6.24764C6.7272 6.27626 6.70234 6.27568 6.68722 6.28937C6.64177 6.33052 6.67564 6.37211 6.63263 6.39961C6.60756 6.41565 6.58334 6.40208 6.55883 6.42717C6.52244 6.46441 6.52934 6.54471 6.57882 6.50355C6.6047 6.48204 6.58661 6.55429 6.57882 6.56576C6.57018 6.57847 6.54161 6.58766 6.525 6.60041C6.55074 6.62025 6.56497 6.61546 6.58574 6.6382C6.61892 6.67454 6.49969 6.67909 6.56882 6.7327C6.58879 6.74817 6.62468 6.7594 6.62879 6.72718C6.63101 6.70969 6.65985 6.76336 6.67261 6.76656C6.76748 6.79032 6.86436 6.87682 6.95015 6.91617C6.99027 6.93457 6.97713 6.97468 7.02088 6.97759C7.04098 6.97893 6.98782 6.8953 6.98782 6.86656C6.98782 6.77202 7.05732 6.87814 7.06932 6.90514C7.10995 6.99666 7.02649 7.04452 7.16772 7.04452C7.212 7.04452 7.29162 7.09678 7.30303 7.12247C7.32053 7.16188 7.30853 7.2186 7.35224 7.2335C7.43194 7.25232 7.33794 7.19123 7.34148 7.16736C7.3557 7.07122 7.38202 7.13007 7.41221 7.18389C7.42335 7.20377 7.4492 7.30421 7.46141 7.30595C7.49937 7.31136 7.43609 7.358 7.47755 7.40044C7.48462 7.40767 7.50976 7.45051 7.50984 7.45083C7.52137 7.48893 7.55225 7.51178 7.58057 7.55084C7.62869 7.61717 7.74033 7.63912 7.75509 7.71777C7.76242 7.75681 7.83955 7.8792 7.87426 7.8792C7.9348 7.8131 7.83537 7.77921 7.90732 7.71226C7.93777 7.68393 7.99857 7.86095 7.99957 7.86817C8.02432 8.04553 8.12876 7.96338 8.18409 8.04062C8.23637 8.1136 8.20044 8.24376 8.32555 8.26346C8.40373 8.27577 8.4366 8.63142 8.60847 8.69261C8.73866 8.73895 8.66055 8.79761 8.73379 8.86506C8.81341 8.93841 8.83601 8.96177 8.90215 9.04302C8.91005 9.09152 8.91852 9.08808 8.92983 9.11546C8.94215 9.14526 8.99101 9.17505 9.01671 9.17688C9.05463 9.17958 9.03845 9.18611 9.05438 9.20996C9.0646 9.22526 9.05354 9.20056 9.05976 9.24303C9.06215 9.25943 9.12437 9.32345 9.13587 9.36587C9.14767 9.40932 9.17969 9.39916 9.17969 9.46036C9.17969 9.48161 9.17964 9.52378 9.18507 9.54383C9.1866 9.54945 9.26119 9.56361 9.26119 9.5328C9.26119 9.45522 9.23966 9.387 9.23966 9.29893C9.23966 9.25074 9.22479 9.20948 9.28271 9.24303C9.31302 9.26057 9.31368 9.31809 9.30732 9.38083C9.29966 9.4566 9.28242 9.54069 9.29425 9.57217C9.30414 9.59852 9.31491 9.7308 9.33192 9.75013C9.37462 9.79871 9.45723 9.77934 9.45723 9.8336C9.42178 9.86151 9.40661 9.87204 9.3865 9.83911C9.38631 9.83877 9.37216 9.82767 9.37036 9.82258C9.36691 9.81275 9.37939 9.78671 9.35344 9.79974C9.33483 9.80908 9.32528 9.81976 9.31039 9.83911C9.3087 9.8413 9.26773 9.82659 9.30501 9.81155C9.31428 9.80782 9.31554 9.75416 9.30501 9.74462C9.28146 9.7233 9.28348 9.73986 9.28348 9.69423C9.28348 9.66162 9.2744 9.62687 9.26119 9.60525C9.25187 9.58996 9.27776 9.58871 9.24504 9.58871C9.23452 9.58871 9.23966 9.6262 9.23966 9.63832C9.23966 9.67499 9.27566 9.74301 9.27195 9.77218C9.27057 9.783 9.2567 9.79774 9.25581 9.81706C9.25461 9.84293 9.26187 9.83707 9.26657 9.86116C9.26885 9.8962 9.34779 10.0836 9.3865 10.0895C9.43224 10.0965 9.49449 10.2473 9.52258 10.2675C9.60133 10.3242 9.58607 10.37 9.56025 10.4462C9.53104 10.5325 9.59723 10.6018 9.57717 10.6793C9.56222 10.737 9.45984 10.74 9.43571 10.8077C9.42283 10.8438 9.36997 10.8639 9.36498 10.9305C9.4068 10.9305 9.44728 10.9344 9.48952 10.936C9.51534 10.937 9.52806 10.9449 9.53411 10.9581C9.54233 10.9756 9.53873 11.0018 9.53873 11.0305C9.53873 11.0712 9.53091 11.0999 9.50029 11.114C9.45701 11.1339 9.37184 11.1096 9.35344 11.1195C9.31951 11.1378 9.30451 11.1036 9.26657 11.1415C9.24183 11.1663 9.26456 11.1919 9.21813 11.1919C9.23874 11.3255 9.25146 11.3776 9.31039 11.4982C9.32296 11.524 9.36095 11.6593 9.37036 11.6652C9.51032 11.7525 9.6141 11.7962 9.65866 11.9211C9.72239 12.0996 9.87167 12.1533 10.02 12.2116C10.1293 12.2546 10.2386 12.3005 10.3114 12.3998C10.3173 12.4545 10.4984 12.4525 10.5451 12.4888C10.603 12.5338 10.5418 12.5928 10.6481 12.6227C10.6624 12.6267 10.6754 12.6325 10.6866 12.64C10.7815 12.7035 10.7763 12.8783 10.8818 12.94C11.0561 13.042 11.2768 13.0986 11.4969 13.1621C11.607 13.1938 11.8097 13.3273 11.8936 13.3353C11.913 13.3372 11.9387 13.3153 11.9766 13.2951C12.0083 13.2783 12.0484 13.2629 12.1004 13.2629C12.2534 13.3042 12.2951 13.5817 12.4917 13.6487C12.6281 13.6952 12.8512 13.9401 12.9199 13.9424C13.1952 13.9518 13.3811 14.0843 13.5811 14.1495C13.678 14.1811 13.7227 14.2151 13.8133 14.2731C13.8556 14.3002 13.869 14.3251 13.9309 14.3251C14.0566 14.3251 14.2915 14.3756 14.3138 14.3653C14.3394 14.3533 14.3344 14.3988 14.3415 14.3999L14.5191 14.4275C14.5614 14.4341 14.6304 14.4884 14.6905 14.5417C14.7281 14.575 14.7627 14.6082 14.7851 14.6283C14.8363 14.6742 15.1923 14.7761 15.2648 14.7984C15.3531 14.8254 15.455 15.0098 15.497 14.9338C15.506 14.9174 15.65 14.9182 15.8014 14.9275C16.0025 14.9686 16.1468 15.0913 16.3634 15.0913C16.4441 15.0913 16.6066 15.0368 16.7317 15.0023C16.8119 14.9802 16.8365 14.921 16.8793 14.9094C17.0542 14.862 17.2529 14.7964 17.356 14.6865C17.3634 14.6794 17.3889 14.6677 17.3898 14.6598C17.3946 14.6168 17.3847 14.5964 17.4198 14.5881C17.4613 14.5783 17.4968 14.5601 17.5389 14.5684C17.5686 14.5742 17.593 14.5881 17.6281 14.5881C17.6443 14.5881 17.7073 14.5857 17.7073 14.5684C17.676 14.5577 17.5482 14.5565 17.5482 14.5228C17.5482 14.5077 17.5652 14.5146 17.5389 14.5125C17.5139 14.5105 17.4778 14.5192 17.499 14.4976C17.5057 14.4907 17.5271 14.4823 17.5389 14.4818C17.5541 14.4811 17.5807 14.4797 17.5881 14.4873C17.6026 14.5021 17.6214 14.4924 17.6127 14.4668C17.6038 14.4404 17.5944 14.4464 17.6181 14.4259C17.6206 14.4237 17.6198 14.4226 17.6227 14.4212C17.6546 14.4057 17.6455 14.4149 17.6527 14.4259C17.6632 14.4417 17.6839 14.423 17.6973 14.4361C17.6977 14.4365 17.6973 14.4568 17.6973 14.4613C17.6973 14.4866 17.7117 14.5042 17.6873 14.5125C17.734 14.555 17.7098 14.5487 17.7319 14.533C17.7572 14.515 17.7473 14.4689 17.7719 14.4668C17.8032 14.4642 17.7915 14.4767 17.8111 14.4566C17.854 14.4127 17.8952 14.4721 17.8657 14.5023C17.8593 14.5088 17.8092 14.562 17.8011 14.5629C17.7974 14.5633 17.7041 14.5554 17.7365 14.5834C17.7521 14.5968 17.869 14.5962 17.8857 14.5881C17.9605 14.5516 18.0415 14.6071 18.1232 14.6141C18.1675 14.6499 18.2349 14.6625 18.2993 14.6771C18.3557 14.6899 18.4097 14.7039 18.4454 14.7354C18.5677 14.8435 18.7689 14.901 18.882 15.0094C19.126 15.2431 19.4355 15.395 19.6201 15.6693C19.6353 15.6919 19.7174 15.7676 19.8208 15.8535C19.8401 15.8297 19.8638 15.8102 19.8638 15.7622C19.8638 15.7162 19.8777 15.6976 19.8777 15.6496C19.8777 15.5465 19.9292 15.4817 19.9292 15.3732L19.8131 15.2755L20.1859 14.5259L21.1846 14.4802C21.1658 14.4738 21.1555 14.3633 21.1508 14.3401C21.1444 14.3086 21.1671 14.2922 21.1708 14.2629C21.1733 14.2428 21.1985 14.2641 21.1985 14.2385V14.1968C21.1867 14.1968 21.162 14.2071 21.1569 14.2038C21.1472 14.1977 21.141 14.1879 21.1331 14.1794C21.1027 14.147 21.0918 14.1597 21.0578 14.1684C21.0012 14.1858 21.0199 14.0989 20.9694 14.0881C20.9593 14.0859 20.9396 14.0363 20.9386 14.018C20.9352 13.9581 20.8494 13.8889 20.7841 13.8889C20.7326 13.8889 20.7195 13.8956 20.7195 13.8361C20.7011 13.8361 20.6898 13.8463 20.6749 13.8463C20.6579 13.8463 20.6357 13.8124 20.6342 13.7936C20.6322 13.7705 20.6377 13.7859 20.6442 13.7763C20.6697 13.7381 20.5674 13.7721 20.5657 13.7558C20.5622 13.7206 20.535 13.732 20.535 13.6991C20.535 13.6695 20.5206 13.685 20.4935 13.6747C20.4795 13.6694 20.4812 13.6624 20.4766 13.6471C20.4766 13.6328 20.4599 13.6332 20.4527 13.6259C20.4477 13.6207 20.4351 13.6227 20.425 13.6227C20.4157 13.6227 20.4074 13.6144 20.4012 13.6046C20.3916 13.5894 20.4047 13.5866 20.3874 13.5802C20.3825 13.5784 20.385 13.5796 20.3805 13.577C20.3625 13.5669 20.3609 13.5642 20.3512 13.5448L20.372 13.544L20.6418 13.5385L20.6403 13.3629L20.6365 13.0258C21.0981 13.023 21.4944 12.9971 21.9504 12.9644C21.9589 12.9638 22.0594 12.958 22.068 12.9573L22.0503 12.8125C22.0511 12.8125 22.1026 12.7834 22.1149 12.7794C22.1496 12.768 22.1928 12.7731 22.2294 12.7731C22.3062 12.7731 22.2751 12.7342 22.3232 12.7219C22.393 12.7041 22.418 12.5231 22.4147 12.451C22.413 12.413 22.464 12.4232 22.4824 12.3872C22.5286 12.2967 22.5566 12.3163 22.6284 12.3179C22.6419 12.2792 22.7253 12.2468 22.7253 12.2321C22.7253 12.1806 22.7808 12.2381 22.7438 12.1447C22.7229 12.092 22.8087 12.1115 22.8045 12.0644C22.8045 12.0638 22.7654 11.9841 22.7922 11.9841C22.8418 11.9841 22.9131 12.0957 22.8652 12.1447C22.8336 12.1771 22.8117 12.2249 22.8345 12.2817C22.874 12.3804 23.0307 12.3648 22.9875 12.514L22.9982 12.5195C23.0851 12.5295 23.0243 12.4337 23.0467 12.3526C23.0672 12.2783 23.0651 12.1922 23.0805 12.1148C23.0874 12.0801 23.0635 12.0029 23.0997 11.9888C23.1424 11.9722 23.1897 11.669 23.1897 11.6014C23.1897 11.5396 23.1615 11.5681 23.1366 11.5935C23.1343 11.5959 23.1312 11.5982 23.1282 11.6006C23.1327 11.6056 23.1282 11.6119 23.1066 11.6203C23.0765 11.632 23.1072 11.6174 23.1282 11.6006C23.1135 11.5843 23.0041 11.5814 23.0805 11.5628C23.106 11.5566 23.0882 11.5013 23.1259 11.4785C23.1596 11.4581 23.2453 11.4395 23.2681 11.4022C23.2796 11.3832 23.254 11.3564 23.2604 11.3289C23.2738 11.2713 23.1541 11.3316 23.152 11.3329C23.1048 11.3602 23.1338 11.3414 23.1182 11.3943C23.1094 11.424 23.0422 11.3863 23.0882 11.3557C23.1169 11.3366 23.069 11.325 23.0467 11.325C23.0235 11.325 23.059 11.2194 23.0805 11.2022C23.1025 11.1845 23.152 11.1974 23.152 11.1644C23.152 11.1142 23.2043 11.1191 23.2043 11.0455C23.2043 10.9935 23.1666 10.9711 23.1666 10.9108C23.1666 10.6706 23.3144 10.6756 23.3957 10.4706C23.4242 10.3988 23.5456 10.3454 23.5487 10.2557C23.553 10.1294 23.638 9.98682 23.5772 9.88557C23.5617 9.85987 23.5181 9.80005 23.4887 9.74147C23.4655 9.69514 23.3583 9.61942 23.3427 9.61942C23.3128 9.71564 23.1977 9.74381 23.0482 9.74698C22.7542 9.75309 22.3282 9.66109 22.1656 9.79502C21.9622 9.96257 21.7593 9.97097 21.4975 10.0509C21.1851 10.1464 21.197 10.0928 20.9917 10.3029C20.9364 10.3113 20.8969 10.367 20.8694 10.4415C20.8169 10.5814 20.8056 10.79 20.8056 10.884C20.8056 10.9537 20.8874 11.0404 20.8809 11.1549C20.8776 11.2139 20.797 11.3535 20.771 11.4148C20.6872 11.6123 20.7683 11.7308 20.6096 11.8628C20.5206 11.9368 20.3249 12.1782 20.2182 12.1872C20.2293 12.2173 20.2214 12.229 20.2467 12.229C20.2685 12.229 20.2907 12.2172 20.3043 12.2172C20.3166 12.2172 20.3171 12.2492 20.322 12.2581C20.3324 12.2769 20.3917 12.278 20.4343 12.277C20.3781 12.2804 20.3181 12.2969 20.3559 12.3762C20.3565 12.3775 20.3852 12.3762 20.4081 12.3762C20.4135 12.3762 20.4167 12.3767 20.4181 12.377C20.413 12.3799 20.3507 12.3872 20.3443 12.388C20.3219 12.391 20.2977 12.4825 20.2528 12.4644C20.1446 12.4208 20.1939 12.5781 20.0968 12.5652C20.0864 12.5638 20.0526 12.5311 20.0276 12.5471C20.0024 12.5632 20.0105 12.6298 19.9876 12.6298H19.9184C19.8757 12.6298 19.8861 12.6351 19.8838 12.5943C19.8827 12.5745 19.875 12.5784 19.9069 12.577C19.907 12.577 19.9449 12.5809 19.9353 12.5652C19.9264 12.5507 19.9122 12.5442 19.9122 12.5235C19.9122 12.4641 19.8857 12.5437 19.8661 12.5117C19.8282 12.4495 19.814 12.5373 19.7739 12.5117C19.7566 12.5006 19.7741 12.5104 19.7454 12.4998C19.7394 12.4976 19.7223 12.4714 19.7162 12.4707C19.6853 12.4671 19.6892 12.4821 19.6762 12.4998C19.6644 12.5019 19.616 12.5122 19.6009 12.5061C19.5819 12.4985 19.5748 12.4939 19.5955 12.488C19.605 12.4853 19.6249 12.488 19.6355 12.488C19.6469 12.488 19.6703 12.4949 19.6647 12.4762C19.6609 12.4636 19.6543 12.4551 19.6532 12.4408C19.6521 12.4275 19.6509 12.4287 19.6585 12.4235C19.7027 12.4235 19.7419 12.4212 19.78 12.4353C19.7982 12.442 19.8158 12.4172 19.8431 12.4172C19.8569 12.4172 19.8738 12.4013 19.8607 12.388C19.8481 12.3751 19.7792 12.3766 19.7569 12.3581C19.7152 12.3234 19.6434 12.375 19.607 12.3935C19.5824 12.4061 19.5217 12.3951 19.4917 12.4054C19.455 12.4179 19.4298 12.411 19.4048 12.4187L19.4041 12.455V12.4187C19.3932 12.4222 19.3829 12.4287 19.371 12.4408C19.3249 12.4565 19.293 12.4742 19.2557 12.4943C19.229 12.5087 19.2106 12.5051 19.1865 12.5298C19.1355 12.5819 19.0622 12.6448 18.9904 12.6479C18.9701 12.6487 18.9539 12.6529 18.9559 12.677C18.9584 12.7082 18.9345 12.7776 18.892 12.7479C18.8413 12.7123 18.9495 12.677 18.9213 12.677C18.9011 12.677 18.8659 12.6857 18.8636 12.6833C18.8476 12.6669 18.8013 12.6652 18.7713 12.6652C18.7179 12.6652 18.6254 12.6653 18.5984 12.6943C18.5141 12.7848 18.3414 12.7429 18.2816 12.8424C18.2794 12.846 18.23 12.8576 18.2239 12.8597C18.2062 12.8659 18.1921 12.8744 18.1794 12.8833L18.2101 12.9424L18.1786 12.8833C18.1517 12.9022 18.1303 12.9245 18.0909 12.9369C18.0505 12.9496 17.9241 12.9256 17.9241 12.9605C17.8135 12.9866 17.7868 12.8876 17.7565 12.8069C17.741 12.7657 17.691 12.7736 17.6589 12.718C17.5955 12.6081 17.6244 12.6243 17.492 12.6243C17.4914 12.6243 17.4183 12.522 17.3883 12.518C17.255 12.5002 17.1555 12.5117 17.0246 12.5117C16.9367 12.5117 16.9023 12.5277 16.8578 12.4707C16.594 12.3838 16.7951 12.3645 16.6656 12.2439C16.6239 12.2052 16.5331 12.0941 16.4849 12.0857C16.3932 12.0696 16.383 11.8655 16.3135 11.6872C16.2346 11.4851 15.9697 11.2056 15.8391 11.0935C15.7793 11.0421 15.6023 10.746 15.5785 10.6486C15.5115 10.5914 15.5491 10.5872 15.5285 10.5407C15.5048 10.4874 15.4806 10.4299 15.4478 10.3817C15.4313 10.3573 15.4416 10.2702 15.4047 10.2675C15.3475 10.2633 15.3334 10.1531 15.3179 10.1021C15.301 10.0469 15.274 10.0451 15.274 9.96195C15.3508 9.9751 15.3008 9.97756 15.3186 10.0226C15.3356 10.0655 15.335 10.0985 15.3847 10.1179C15.4105 10.1279 15.4516 10.162 15.4516 10.1856C15.4516 10.2205 15.4962 10.1971 15.4962 10.2273C15.4962 10.2792 15.4885 10.3119 15.4885 10.3635C15.4885 10.4021 15.4927 10.4853 15.5516 10.4698C15.566 10.4661 15.528 10.4167 15.5331 10.4053C15.5395 10.3909 15.54 10.382 15.54 10.3565C15.54 10.3169 15.5635 10.238 15.5477 10.1895C15.5395 10.122 15.4778 10.1078 15.4255 10.0761C15.3899 10.0546 15.3432 9.97553 15.3217 9.93597C15.2735 9.8474 15.2179 9.78563 15.2179 9.6706C15.2152 9.66996 15.1887 9.66708 15.1887 9.66273V9.65879C15.1887 9.64705 15.1769 9.64651 15.1664 9.64383C15.1553 9.64101 15.1333 9.64842 15.1333 9.63674V9.63281C15.1261 9.63281 15.1682 9.6328 15.1825 9.63281H15.1848H15.1964C15.2064 9.63281 15.218 9.64426 15.2218 9.62887C15.2023 9.56324 15.2489 9.57829 15.1772 9.53753C15.1488 9.5214 15.1601 9.40895 15.1572 9.35957C15.1543 9.31107 15.1487 9.28367 15.1672 9.23673C15.182 9.19912 15.2524 8.94207 15.2141 8.90286C15.2141 8.88424 15.2091 8.84231 15.2141 8.82411C15.2169 8.81376 15.226 8.77413 15.2171 8.76585C15.2067 8.75611 15.1896 8.76705 15.1833 8.75955C15.1735 8.74789 15.2002 8.73697 15.2002 8.72175C15.2002 8.64664 15.2141 8.57927 15.2141 8.50363C15.2141 8.48634 15.2037 8.43741 15.1902 8.43197C15.1798 8.42775 15.1819 8.41973 15.1833 8.40441C15.1855 8.38049 15.1652 8.39103 15.1702 8.39103C15.1386 8.39103 15.1446 8.3923 15.1433 8.39103C15.1306 8.37797 15.1765 8.37594 15.1472 8.3737C15.1223 8.3718 15.1026 8.38232 15.1103 8.34614C15.1113 8.34121 15.1109 8.34204 15.111 8.34221C15.1102 8.34221 15.1089 8.34157 15.1072 8.33985C15.106 8.33861 15.1068 8.32272 15.1072 8.32252C15.1203 8.31606 15.1361 8.32906 15.1433 8.32961C15.149 8.33003 15.1572 8.31214 15.1633 8.30914C15.1816 8.30019 15.1857 8.30988 15.2002 8.31937C15.2276 8.33738 15.2071 8.25799 15.2071 8.24772C15.1925 8.24272 15.194 8.24453 15.2002 8.23039C15.2071 8.21464 15.2071 8.21701 15.2071 8.20283C15.2071 8.18072 15.1602 8.21557 15.1602 8.18236C15.1602 8.17125 15.1612 8.15951 15.1602 8.1485C15.1594 8.13927 15.1533 8.1494 15.1503 8.14535C15.1418 8.13406 15.1654 8.13575 15.1702 8.13511C15.1851 8.13314 15.1829 8.10167 15.1802 8.09023C15.1765 8.07399 15.1805 8.06798 15.1933 8.06346C15.1997 8.06122 15.2102 8.0576 15.2102 8.04928C15.2102 8.01562 15.2127 8.01677 15.1933 7.9918C15.1698 7.96152 15.1893 7.94018 15.1833 7.93038C15.1694 7.90766 15.1764 7.83946 15.1518 7.8351C15.1512 7.83624 15.1504 7.83864 15.1503 7.83825C15.1499 7.83699 15.1498 7.8356 15.1495 7.83431C15.1437 7.83424 15.1366 7.83797 15.1272 7.84534C15.1141 7.85558 15.1011 7.84434 15.1003 7.83116C15.0984 7.79987 15.0602 7.84547 15.0772 7.80754C15.0835 7.79357 15.0848 7.73904 15.0934 7.73904C15.1422 7.73904 15.1387 7.79145 15.1495 7.83431C15.1503 7.83433 15.151 7.83497 15.1518 7.8351C15.1536 7.83168 15.1568 7.82548 15.1572 7.82486C15.1714 7.80153 15.1391 7.79133 15.1702 7.75951C15.2449 7.76702 15.1843 7.83363 15.1918 7.86109C15.1999 7.89115 15.2023 7.89538 15.2056 7.92802C15.2063 7.93487 15.2102 7.9346 15.2102 7.94692C15.2102 7.98483 15.2287 7.97036 15.2287 7.99967C15.2287 8.05847 15.2449 8.1467 15.2525 8.03747C15.2566 7.97833 15.2194 7.94236 15.2194 7.87526C15.2194 7.85614 15.2371 7.86484 15.2433 7.84219C15.2608 7.77831 15.2314 7.72485 15.2617 7.67525C15.2651 7.66966 15.2802 7.60822 15.2802 7.59887C15.2802 7.56773 15.267 7.55541 15.2387 7.57525C15.2264 7.58386 15.2224 7.67553 15.2194 7.69888C15.2164 7.72277 15.1872 7.7073 15.1872 7.67053C15.1872 7.60871 15.2194 7.62917 15.2194 7.57997C15.2194 7.56816 15.1929 7.54901 15.2287 7.54218C15.2449 7.53907 15.2617 7.52309 15.2617 7.50359C15.243 7.5024 15.2369 7.5103 15.2341 7.49414C15.233 7.48814 15.2298 7.47712 15.2287 7.48942C15.2284 7.49266 15.2293 7.51719 15.2287 7.51777C15.2203 7.52509 15.2141 7.51889 15.2102 7.50832C15.2062 7.49742 15.1962 7.47366 15.201 7.46107C15.2087 7.44065 15.2163 7.43838 15.2341 7.43666C15.2619 7.43397 15.2593 7.42796 15.2571 7.39886C15.2559 7.38219 15.2478 7.39125 15.2341 7.38942C15.2271 7.38851 15.227 7.38469 15.2148 7.38469C15.2039 7.38469 15.2015 7.38121 15.1964 7.38942C15.189 7.40126 15.1832 7.4056 15.1641 7.40831C15.1383 7.41196 15.1526 7.40261 15.1549 7.39886C15.1598 7.39068 15.148 7.38386 15.1595 7.37997C15.1672 7.37633 15.1743 7.37266 15.1825 7.37052C15.1909 7.36831 15.1898 7.36996 15.1918 7.36107C15.1925 7.35786 15.1949 7.34826 15.1964 7.34611C15.2049 7.33349 15.2127 7.32681 15.2194 7.31303C15.2226 7.30649 15.2243 7.29987 15.2287 7.29414C15.2487 7.26822 15.2572 7.27051 15.2287 7.27051C15.207 7.27051 15.1857 7.27128 15.1641 7.27051C15.1531 7.27012 15.162 7.24879 15.1641 7.2461C15.1701 7.23837 15.1826 7.24138 15.1918 7.24138C15.2259 7.24138 15.2241 7.25017 15.2241 7.22248C15.2241 7.18821 15.228 7.21361 15.2525 7.19886C15.2528 7.19868 15.2525 7.18585 15.2525 7.18468C15.2525 7.17537 15.2559 7.17057 15.2479 7.16972C15.238 7.1687 15.2247 7.16911 15.2148 7.16972C15.2018 7.17053 15.2182 7.19761 15.2056 7.18468C15.1996 7.17856 15.1996 7.17464 15.1964 7.16972C15.1878 7.1565 15.1843 7.15232 15.1802 7.14689C15.177 7.14737 15.1718 7.13871 15.171 7.13586C15.1685 7.13609 15.1662 7.13665 15.1641 7.13665C15.147 7.13665 15.1609 7.1422 15.1495 7.1461C15.1538 7.13786 15.161 7.13128 15.1641 7.12247C15.1656 7.118 15.1598 7.11018 15.1641 7.1083C15.1748 7.10354 15.1906 7.12541 15.1964 7.1083C15.1998 7.09813 15.1918 7.09119 15.1918 7.07917C15.1918 7.05705 15.1968 7.05554 15.2148 7.05554C15.2221 7.05554 15.2426 7.05311 15.2479 7.05554C15.2574 7.05992 15.2592 7.07542 15.2617 7.08389C15.2681 7.10527 15.2696 7.10364 15.2848 7.1083C15.2939 7.1111 15.2848 7.12011 15.2848 7.13192C15.2859 7.13244 15.3093 7.15009 15.3132 7.13665C15.3179 7.12084 15.2966 7.10358 15.3179 7.10358C15.3272 7.10358 15.3591 7.10698 15.364 7.10358C15.3665 7.10179 15.364 7.09652 15.364 7.09334C15.364 7.0838 15.3669 7.07402 15.364 7.06499C15.3632 7.06251 15.3513 7.07014 15.3501 7.05554C15.3475 7.02265 15.3912 7.04638 15.4017 7.06027C15.4073 7.06784 15.3821 7.0964 15.3778 7.09885C15.3724 7.10197 15.3686 7.10904 15.3686 7.11775C15.3686 7.12955 15.3732 7.12697 15.3732 7.14137C15.3716 7.17118 15.3672 7.24159 15.3501 7.25555C15.3377 7.26577 15.3409 7.28037 15.3409 7.29886C15.3409 7.32981 15.3125 7.36982 15.294 7.39414C15.2781 7.41509 15.2848 7.51497 15.2848 7.55162C15.3064 7.52952 15.3114 7.52547 15.294 7.50359C15.2892 7.49748 15.2984 7.48739 15.2986 7.48469C15.3001 7.47034 15.2931 7.43496 15.2986 7.42249C15.3057 7.40644 15.3218 7.38371 15.3317 7.36579C15.3444 7.34277 15.3542 7.33745 15.3686 7.31776C15.4274 7.24471 15.4901 7.05614 15.4901 6.99806C15.4901 6.842 15.62 6.78148 15.62 6.64057C15.62 6.58959 15.6199 6.54617 15.6177 6.5067C15.5664 6.51447 15.507 6.53766 15.4939 6.55946C15.4786 6.58493 15.4347 6.55805 15.4209 6.57521C15.3706 6.63752 15.3205 6.60536 15.2817 6.54844C15.2349 6.47963 15.1017 6.49874 15.0119 6.49568C14.9642 6.49568 14.9069 6.5093 14.8727 6.51143C14.7772 6.5174 14.7884 6.48793 14.722 6.42639C14.7033 6.409 14.6336 6.42994 14.6244 6.40591C14.6008 6.34438 14.6143 6.37828 14.5667 6.35237C14.5082 6.32049 14.4706 6.27063 14.3914 6.27835C14.3339 6.2718 14.2425 6.23801 14.1731 6.19331C14.1714 6.19672 14.1666 6.19532 14.1546 6.19567C14.1143 6.19684 14.1033 6.14479 14.0662 6.1311C14.0484 6.12453 14.0515 6.09742 14.0486 6.07991C14.0407 6.03421 13.994 6.09099 13.994 6.04054C14.0009 6.04054 14.0224 6.02291 14.0224 6.0122C14.0224 5.97822 14.0047 5.98732 14.0047 5.95471C14.0047 5.9424 13.9859 5.92558 13.9724 5.92558C13.9499 5.92558 13.972 5.95142 13.9425 5.94526C13.9121 5.93894 13.9448 5.91344 13.9455 5.89723C13.9468 5.8689 13.9321 5.88899 13.9248 5.86101C13.9202 5.84359 13.9287 5.83168 13.9179 5.81455C13.905 5.79439 13.8987 5.77408 13.8971 5.74683C13.8695 5.63627 13.836 5.48225 13.8271 5.35154C13.7992 5.26562 13.723 5.22996 13.6557 5.18303C13.6192 5.15976 13.589 5.12507 13.585 5.12082C13.5562 5.08469 13.5373 5.0379 13.5373 4.96964C13.5373 4.93976 13.2824 4.64699 13.2528 4.546C13.2046 4.38126 13.071 4.28037 12.9937 4.13811C12.9609 4.07749 12.979 3.97036 12.9261 3.9318C12.9056 3.91685 12.7895 3.81477 12.7869 3.78298C12.772 3.76259 12.72 3.75724 12.687 3.73652V3.73337C12.6851 3.71586 12.6268 3.73038 12.6147 3.72864C12.5917 3.72532 12.6019 3.71677 12.5917 3.71211C12.5761 3.70503 12.4751 3.72638 12.471 3.7192C12.466 3.71054 12.4792 3.66097 12.4802 3.64675C12.4811 3.63353 12.5142 3.61643 12.504 3.60502C12.4922 3.59174 12.4833 3.60678 12.4833 3.57825C12.4833 3.56206 12.4737 3.52534 12.4909 3.52549C12.508 3.52564 12.5408 3.61003 12.544 3.62628C12.5671 3.64047 12.5892 3.63079 12.6117 3.64675C12.614 3.64844 12.6161 3.64658 12.6178 3.6436C12.5915 3.61487 12.5744 3.57765 12.5486 3.54517C12.4817 3.46087 12.396 3.40917 12.2741 3.43887C12.1769 3.46256 12.1729 3.40186 12.1135 3.40186C12.0362 3.40186 11.9608 3.40648 11.8705 3.40186C11.8346 3.39573 11.8418 3.37191 11.7983 3.37509C11.7777 3.37658 11.7756 3.38892 11.7667 3.39163C11.7487 3.39717 11.7305 3.41311 11.7206 3.43336C11.7139 3.44714 11.5835 3.48735 11.5653 3.49163C11.529 3.50018 11.5352 3.56662 11.5238 3.59242C11.5098 3.62411 11.4724 3.6063 11.4515 3.62943C11.4431 3.63875 11.428 3.68523 11.4254 3.6877C11.3846 3.72664 11.4133 3.87615 11.4254 3.9318C11.4254 3.94006 11.4287 3.94151 11.42 3.94204C11.4097 3.94267 11.3996 3.94169 11.3892 3.94204C11.3648 3.94287 11.3637 3.9441 11.3423 3.95307C11.3271 3.95947 11.315 3.96916 11.3016 3.97905C11.267 3.97905 11.2652 4.05898 11.2493 4.08535C11.2274 4.12178 11.1175 4.1098 11.0786 4.09087C11.0752 4.0892 11.0722 4.08664 11.0694 4.08457C11.0321 4.05999 11.0056 4.00706 10.9702 3.99007C10.9398 3.97545 10.9336 3.97261 10.8972 3.96881C10.8019 3.95887 10.7847 3.88994 10.7165 3.8255C10.5271 3.8255 10.5441 3.71838 10.3852 3.66172C10.323 3.63953 10.1882 3.43205 10.173 3.34911C10.153 3.23997 10.1852 3.14542 10.1215 3.05224C10.1105 3.02968 10.1089 3.005 10.0846 3.005H10.08C10.0503 3.005 10.0489 2.9599 10.0385 2.94673C10.0317 2.93826 10.0315 2.93908 10.0277 2.93019C10.0027 2.87237 10.0291 2.8193 9.98156 2.78767C9.95586 2.77057 9.98391 2.75704 9.93005 2.73963C9.89397 2.62884 9.83283 2.545 9.7071 2.50655C9.5275 2.45163 9.5328 2.30958 9.38112 2.24749C9.3234 2.22386 9.22293 2.03978 9.17431 1.99787C9.11298 1.94501 9.07311 1.87923 9.02363 1.82858C8.96111 1.7646 8.92803 1.76904 8.85756 1.70652L7.68513 1.66164L7.64131 2.05378L7.21001 2.02937L5.66932 1.94197L3.14917 0.730109C3.14149 0.730842 3.13287 0.730483 3.1238 0.730109C3.13287 0.730338 3.14149 0.730056 3.14917 0.729322C3.14924 0.716143 3.14795 0.69995 3.14917 0.686013C3.15065 0.669284 3.15023 0.663177 3.17069 0.663177H3.18223C3.19683 0.663177 3.18223 0.633239 3.18223 0.618294V0.540338L1.53467 0.539551ZM15.1802 7.14689C15.1815 7.14671 15.1825 7.1453 15.1825 7.14137C15.1825 7.13588 15.1773 7.13544 15.1718 7.13586C15.1729 7.13683 15.1771 7.14268 15.1802 7.14689H15.1802ZM6.58881 5.87125C6.54771 5.91686 6.61218 5.90949 6.58881 5.87125V5.87125ZM5.62934 4.76254C5.63467 4.77079 5.64005 4.77915 5.64702 4.78932C5.70283 4.77479 5.68241 4.77462 5.62934 4.76254ZM3.04077 1.37265C3.04405 1.37718 3.04615 1.3841 3.04615 1.3947C3.04615 1.40344 3.04383 1.4202 3.04154 1.43643C3.05083 1.43499 3.06612 1.44252 3.07998 1.44982C3.08143 1.44603 3.08356 1.44111 3.08689 1.43565C3.09179 1.42764 3.09318 1.4207 3.09305 1.4136C3.08978 1.40422 3.0859 1.395 3.08074 1.38604C3.06939 1.37495 3.05278 1.36964 3.04077 1.37265ZM3.07998 1.44982C3.07829 1.45418 3.07723 1.45768 3.07767 1.46006C3.08238 1.46128 3.08723 1.46243 3.09228 1.46321C3.09497 1.46249 3.09753 1.46143 3.10073 1.46006C3.09485 1.45712 3.08811 1.4541 3.07998 1.44982H3.07998ZM3.10073 1.46006C3.10265 1.46102 3.1054 1.46262 3.10688 1.46321L3.10381 1.45927C3.10263 1.45983 3.10186 1.45957 3.10073 1.46006ZM3.04154 1.43643C3.04096 1.43652 3.04052 1.43707 3.04 1.43722C3.04036 1.43781 3.04114 1.43823 3.04154 1.4388C3.04166 1.43801 3.04141 1.43723 3.04154 1.43643ZM4.47767 6.25709H4.4646V6.25315H4.46075C4.45181 6.25315 4.45975 6.24408 4.4523 6.23977C4.44727 6.23687 4.43476 6.23984 4.44 6.24843C4.44206 6.25181 4.44585 6.25829 4.4523 6.26181C4.45844 6.26516 4.46075 6.25762 4.46075 6.26575V6.27441C4.46075 6.27727 4.46179 6.27835 4.4646 6.27835H4.46921V6.28307C4.46921 6.28868 4.47828 6.29062 4.48997 6.29174C4.48769 6.28476 4.48377 6.28139 4.48151 6.27441L4.47767 6.26181V6.25709ZM2.89392 1.18446C2.89464 1.18527 2.89594 1.18628 2.897 1.18839C2.89529 1.18676 2.89451 1.18534 2.89392 1.18446ZM0.353015 3.2491C0.34886 3.24941 0.344505 3.2509 0.339946 3.25383C0.327462 3.26181 0.330178 3.28058 0.322263 3.29399C0.309492 3.31562 0.291248 3.32191 0.283054 3.34911C0.276603 3.37047 0.28789 3.39645 0.309962 3.38926C0.331843 3.38214 0.32618 3.48541 0.331489 3.49084C0.347511 3.50724 0.33669 3.4994 0.346096 3.52155C0.348938 3.52823 0.363003 3.55398 0.376079 3.55226C0.381598 3.53108 0.393367 3.51977 0.400681 3.50029C0.40429 3.49067 0.401887 3.48445 0.406063 3.47273C0.412749 3.45395 0.428302 3.46558 0.430665 3.44438C0.433611 3.41797 0.43374 3.39188 0.43374 3.36485C0.43374 3.33758 0.381659 3.33253 0.38838 3.32155C0.40028 3.30208 0.382099 3.24693 0.353015 3.2491ZM3.78267 3.27509C3.77128 3.27554 3.767 3.28389 3.76421 3.3058C3.76207 3.32273 3.75035 3.38358 3.76421 3.39871C3.79624 3.43363 3.80751 3.46899 3.83187 3.50187C3.84345 3.5175 3.85535 3.53143 3.87031 3.54675C3.88048 3.56063 3.8857 3.58524 3.89414 3.59557C3.91672 3.62317 3.92661 3.60797 3.9372 3.63967C3.93957 3.6468 3.94359 3.66843 3.94719 3.67431C3.94969 3.67843 3.9595 3.69646 3.9618 3.70424C3.96674 3.72098 3.95799 3.75276 3.98102 3.75778C4.00346 3.76266 4.02952 3.76645 4.05252 3.76802L4.0479 3.73337C4.02044 3.73337 4.0003 3.6579 4.01408 3.62549C4.02606 3.59728 4.01546 3.61063 4.01408 3.58061C4.01214 3.53865 4.02226 3.50923 4.00946 3.48218C4.00177 3.46596 4.00833 3.47746 4.00024 3.47746C3.99505 3.47746 3.98369 3.49441 3.98102 3.49714C3.96902 3.50941 3.94086 3.49391 3.92336 3.49242C3.92336 3.47152 3.92524 3.44928 3.92336 3.42864C3.92052 3.39751 3.90013 3.39883 3.89414 3.37903C3.88748 3.35705 3.86207 3.32929 3.85109 3.29556L3.84648 3.2806C3.84601 3.27917 3.81452 3.28105 3.81265 3.2806C3.79894 3.27726 3.7895 3.27481 3.78267 3.27509ZM4.59453 3.64912C4.56155 3.65016 4.52671 3.66201 4.51918 3.67431C4.50666 3.69482 4.53146 3.75076 4.5238 3.76329C4.51358 3.78003 4.50109 3.77283 4.50919 3.80267C4.51832 3.83635 4.51035 3.82452 4.52841 3.85621C4.52841 3.88843 4.49459 3.87793 4.47613 3.89086C4.44418 3.91322 4.45761 3.89872 4.46152 3.92551C4.46506 3.94975 4.46507 3.93778 4.48536 3.94047C4.50455 3.94302 4.48489 3.97984 4.50919 3.97984C4.51559 3.97984 4.52206 3.97898 4.52841 3.97984C4.57676 3.98634 4.55834 3.99793 4.58146 4.01921C4.58853 4.02573 4.61002 4.04719 4.61067 4.05307C4.61275 4.07165 4.61047 4.09269 4.6345 4.09795C4.66046 4.10364 4.65265 4.08444 4.65372 4.06331C4.65372 4.03063 4.65834 4.01459 4.65834 3.99952C4.65834 3.97282 4.67001 3.99443 4.67756 3.97433C4.68574 3.95252 4.64957 3.93918 4.67756 3.91054C4.69202 3.89573 4.68957 3.87971 4.68755 3.86172C4.68527 3.84127 4.69753 3.81287 4.68755 3.80267C4.68298 3.79797 4.66571 3.7775 4.66372 3.76802C4.65845 3.74283 4.65834 3.7171 4.65834 3.68928C4.65834 3.65806 4.6275 3.64808 4.59453 3.64912ZM4.11402 3.86094C4.11094 3.8615 4.10825 3.86424 4.10556 3.86645C4.0989 3.87188 4.10002 3.88248 4.10095 3.89086C4.10231 3.90305 4.11018 3.89485 4.11018 3.90109V3.90582H4.11556L4.12017 3.91054V3.91527C4.12017 3.91854 4.12208 3.91905 4.12478 3.92078C4.1275 3.9225 4.13252 3.91846 4.13478 3.92078C4.13705 3.92309 4.1331 3.92745 4.13478 3.93023C4.13647 3.933 4.13631 3.93408 4.13939 3.93495C4.14673 3.93705 4.15423 3.93316 4.16169 3.93102C4.15878 3.92948 4.16015 3.90814 4.15861 3.90582C4.1568 3.90313 4.15182 3.90582 4.14862 3.90582H4.13478C4.13422 3.90582 4.13514 3.88419 4.13478 3.88141C4.13442 3.8785 4.12786 3.86969 4.12478 3.86645C4.12057 3.86197 4.1171 3.86037 4.11402 3.86094ZM4.154 4.00189C4.15197 4.00219 4.14983 4.00301 4.14862 4.00425C4.14276 4.01025 4.15765 4.03981 4.15861 4.04834C4.16076 4.06766 4.17447 4.07914 4.18706 4.08299C4.18864 4.08347 4.21155 4.10099 4.21166 4.10268C4.21286 4.12058 4.21159 4.12568 4.22089 4.14205C4.24597 4.18618 4.24487 4.18614 4.29315 4.18614L4.30776 4.1515C4.31562 4.14075 4.31076 4.13508 4.31237 4.12236C4.31265 4.12013 4.31575 4.11838 4.31699 4.11764C4.30093 4.11273 4.29504 4.11666 4.29315 4.09795C4.29066 4.07312 4.28157 4.08528 4.26932 4.07275C4.26546 4.0688 4.2692 4.06178 4.26471 4.05858C4.25813 4.05391 4.24854 4.05644 4.24011 4.05307C4.21942 4.0448 4.24781 4.02102 4.21627 4.01921C4.19988 4.01826 4.16818 3.99978 4.154 4.00188V4.00189ZM4.4423 4.00819C4.44063 4.00841 4.43928 4.00897 4.43769 4.00897C4.43228 4.00897 4.42407 4.00823 4.41847 4.00897C4.41673 4.0092 4.39449 4.02292 4.39387 4.02393C4.3868 4.03552 4.3953 4.05566 4.38925 4.06803C4.38223 4.08241 4.36542 4.07176 4.36542 4.08771C4.36542 4.09029 4.36915 4.10156 4.37003 4.10268C4.37466 4.10849 4.3708 4.10517 4.37465 4.11212C4.37985 4.12156 4.383 4.11777 4.38464 4.11212C4.38722 4.10329 4.39028 4.1074 4.40386 4.1074H4.46152L4.46614 4.08299C4.46614 4.07229 4.46465 4.05697 4.47075 4.05307C4.47698 4.04907 4.48536 4.06021 4.48536 4.04834C4.48536 4.04676 4.4838 4.02545 4.48074 4.02393C4.4585 4.01292 4.47462 4.02677 4.46152 4.01921C4.45595 4.01598 4.44909 4.01036 4.44692 4.00897C4.44556 4.00811 4.44397 4.00797 4.4423 4.00819V4.00819ZM2.51183 4.13654C2.49823 4.13538 2.48718 4.15525 2.47416 4.16725C2.46704 4.17379 2.47108 4.22138 2.47108 4.23103C2.47108 4.2618 2.46423 4.31372 2.45032 4.33891C2.43838 4.36057 2.38981 4.36901 2.37267 4.37592C2.34968 4.38517 2.38712 4.39403 2.39958 4.39403C2.40947 4.39403 2.42748 4.3926 2.43571 4.39718C2.44802 4.40404 2.43091 4.40843 2.4411 4.40978C2.44971 4.41091 2.45477 4.40809 2.46262 4.41529C2.46735 4.41962 2.47651 4.44118 2.47723 4.44363C2.47814 4.44675 2.48953 4.4489 2.48953 4.4523V4.45545C2.48953 4.47601 2.51572 4.4649 2.54027 4.4649C2.54928 4.4077 2.55406 4.38256 2.57026 4.34836C2.57961 4.32862 2.59038 4.24284 2.57026 4.22867C2.53975 4.20722 2.55394 4.19322 2.54027 4.16725C2.52904 4.14588 2.51999 4.13723 2.51183 4.13654ZM2.20815 4.18142C2.19746 4.18205 2.1897 4.18667 2.1897 4.20032C2.1897 4.21525 2.19152 4.20628 2.20123 4.21292L2.21968 4.22552L2.23429 4.22867C2.24523 4.23091 2.25393 4.22129 2.25505 4.23418C2.25537 4.23781 2.25643 4.24257 2.25812 4.24363C2.26805 4.24999 2.27833 4.22451 2.27965 4.22237L2.26427 4.22867C2.26184 4.22037 2.26222 4.20109 2.25812 4.19481C2.25019 4.18261 2.24254 4.19764 2.23121 4.19166C2.22575 4.18877 2.22578 4.18298 2.21968 4.18221C2.21568 4.1817 2.21171 4.18121 2.20815 4.18142V4.18142ZM5.31874 6.33426C5.30873 6.33507 5.30963 6.34211 5.30721 6.37205C5.3053 6.39571 5.28046 6.41002 5.27876 6.43111C5.27704 6.45262 5.27485 6.46645 5.27261 6.48308C5.27214 6.48654 5.26399 6.49696 5.26262 6.49962C5.25545 6.51357 5.25034 6.5937 5.28184 6.55159C5.27249 6.50999 5.2983 6.52699 5.33258 6.5193C5.35179 6.51499 5.33734 6.46785 5.34565 6.4508C5.3503 6.44124 5.35636 6.44442 5.36103 6.43741C5.37665 6.41397 5.38614 6.37997 5.36795 6.35316C5.35996 6.34138 5.37163 6.33778 5.3518 6.33662C5.33471 6.33562 5.32475 6.33377 5.31874 6.33426V6.33426ZM5.35103 6.60041C5.34655 6.60094 5.34258 6.6023 5.33873 6.60671C5.3332 6.61303 5.32992 6.629 5.32951 6.63663C5.3291 6.64395 5.32751 6.66837 5.33566 6.66892C5.34858 6.66975 5.35019 6.66975 5.36103 6.67207C5.37639 6.67535 5.35758 6.69406 5.38332 6.69805C5.39837 6.70039 5.40464 6.70091 5.40562 6.68545C5.4064 6.67282 5.41343 6.66136 5.41177 6.64293C5.41072 6.63138 5.40381 6.64013 5.39947 6.63269C5.39503 6.62508 5.3946 6.62979 5.39639 6.61695C5.38295 6.60953 5.38132 6.60041 5.36795 6.60041C5.36111 6.60041 5.35551 6.59988 5.35103 6.60041ZM5.54247 6.62639C5.53812 6.63975 5.53071 6.65612 5.52017 6.65947C5.51389 6.66146 5.49829 6.67093 5.49787 6.67522C5.4971 6.68296 5.49733 6.68583 5.50095 6.69175C5.50663 6.70107 5.49164 6.69699 5.50403 6.7012C5.51808 6.706 5.53247 6.69127 5.53247 6.71144C5.53247 6.72666 5.53102 6.72751 5.54247 6.73742C5.54697 6.74133 5.54557 6.74806 5.54862 6.75002C5.55817 6.75613 5.57399 6.74445 5.57399 6.73742C5.57399 6.72637 5.56426 6.70895 5.57091 6.69805C5.57248 6.69546 5.57718 6.67607 5.57399 6.66892C5.56992 6.65978 5.5628 6.65382 5.55861 6.64608C5.55171 6.63332 5.54923 6.63985 5.54247 6.62639ZM5.60243 6.94609C5.59171 6.94609 5.54178 6.96021 5.53939 6.96893C5.53739 6.97628 5.54148 6.97983 5.54247 6.98153C5.54893 6.99276 5.56126 6.98349 5.56476 6.99176C5.56764 6.99854 5.5527 7.01644 5.56169 7.0272C5.56506 7.03122 5.58647 7.05287 5.58706 7.05318C5.59375 7.0568 5.61267 7.04797 5.6155 7.04688C5.61834 7.03523 5.62586 7.03207 5.62165 7.02405C5.62066 7.02215 5.6234 7.02258 5.62473 7.0209C5.62861 7.01601 5.63776 7.00283 5.63472 6.99491C5.62885 6.97958 5.6181 6.98811 5.60935 6.98153C5.60552 6.97865 5.61286 6.94609 5.60243 6.94609ZM4.52995 7.06027C4.49563 7.06677 4.47427 7.12602 4.46306 7.15161C4.44379 7.19562 4.44525 7.26402 4.41463 7.29729C4.40108 7.312 4.37557 7.32778 4.40309 7.34296C4.42056 7.34653 4.42107 7.35304 4.43 7.35477C4.43633 7.35599 4.4395 7.35407 4.44538 7.35241C4.46441 7.347 4.45748 7.35275 4.45845 7.36816C4.45956 7.38583 4.4741 7.39233 4.47921 7.41146C4.48354 7.42767 4.48653 7.43956 4.48997 7.45477C4.49197 7.46368 4.50055 7.46494 4.5015 7.47288C4.50286 7.48436 4.47888 7.49145 4.48536 7.49808C4.48925 7.50208 4.5047 7.50575 4.50996 7.50753C4.51496 7.52289 4.56919 7.56542 4.57915 7.57368C4.60386 7.59412 4.62144 7.59308 4.64834 7.60281C4.66436 7.60859 4.70182 7.626 4.71292 7.63509C4.73094 7.64983 4.72997 7.68591 4.75521 7.69415C4.77309 7.69999 4.7855 7.70277 4.7775 7.72407C4.77207 7.73851 4.81925 7.75163 4.83286 7.75163C4.83286 7.62593 4.69412 7.61948 4.67909 7.56423C4.6657 7.51498 4.55455 7.56678 4.55455 7.46658C4.55455 7.43849 4.57854 7.43615 4.55916 7.4343C4.43689 7.4226 4.52995 7.14005 4.52995 7.06027V7.06027ZM5.58398 7.11696C5.56165 7.11695 5.55086 7.15781 5.58014 7.20358C5.59087 7.22034 5.60122 7.22151 5.6155 7.22957C5.61598 7.22983 5.63092 7.27617 5.63165 7.27839C5.63858 7.29979 5.67992 7.31266 5.64395 7.33351C5.63466 7.33888 5.62473 7.36577 5.62473 7.37918C5.62473 7.38752 5.62805 7.4316 5.63165 7.43115C5.65698 7.42799 5.66054 7.39691 5.66317 7.37603C5.66434 7.36679 5.69242 7.35353 5.70161 7.35004C5.73331 7.33795 5.72314 7.30329 5.72314 7.26815C5.72314 7.25227 5.70935 7.24943 5.70776 7.22642C5.70584 7.19847 5.71798 7.18547 5.68239 7.18075C5.64347 7.17559 5.63682 7.16334 5.60935 7.13193C5.60022 7.12149 5.59143 7.11697 5.58398 7.11696ZM4.77135 7.54454C4.76504 7.54608 4.76639 7.56467 4.76597 7.56895C4.76587 7.57009 4.7653 7.5706 4.76443 7.57131C4.7613 7.57387 4.76403 7.57415 4.76059 7.57446C4.75342 7.57511 4.76347 7.57997 4.75598 7.57997H4.75444C4.7469 7.57997 4.75543 7.6036 4.76443 7.6036C4.77177 7.6036 4.77338 7.6079 4.7775 7.60202C4.78177 7.59593 4.78089 7.59192 4.78596 7.5847C4.78596 7.57218 4.79044 7.55498 4.77981 7.5469C4.778 7.54553 4.77647 7.54626 4.77443 7.54533C4.77318 7.54474 4.77225 7.54432 4.77135 7.54454ZM5.80924 7.56816C5.78284 7.56816 5.7931 7.58737 5.7931 7.61147C5.7931 7.61945 5.79371 7.61925 5.79694 7.62407C5.80222 7.632 5.80168 7.65306 5.80079 7.66738C5.79967 7.68504 5.79436 7.68106 5.7931 7.70124C5.79279 7.70606 5.79531 7.71371 5.79694 7.71462C5.80739 7.72058 5.81263 7.71488 5.81385 7.72329C5.81755 7.74866 5.83741 7.7533 5.85537 7.76187C5.85855 7.74775 5.85998 7.74697 5.85998 7.73589C5.85998 7.72544 5.8712 7.72408 5.88074 7.71856C5.88914 7.7137 5.88458 7.69685 5.88458 7.6847C5.88458 7.66986 5.88988 7.66895 5.89304 7.65399C5.89434 7.64784 5.88677 7.64231 5.8892 7.63273C5.88942 7.63188 5.88979 7.63109 5.89074 7.63037C5.87973 7.62764 5.87899 7.61395 5.87228 7.61147C5.8565 7.60563 5.85772 7.61741 5.85537 7.59887C5.85392 7.58751 5.82492 7.56816 5.80924 7.56816V7.56816ZM5.89074 7.63037C5.8944 7.63128 5.89955 7.63114 5.90611 7.62879C5.91884 7.62424 5.89736 7.62534 5.89074 7.63037ZM4.86592 7.69888C4.84838 7.69888 4.85617 7.70812 4.86053 7.7162C4.86657 7.72735 4.85781 7.72025 4.86899 7.72486C4.87168 7.72597 4.89127 7.73566 4.89129 7.73589C4.89232 7.74783 4.91602 7.74728 4.92819 7.7477C4.95063 7.74846 4.94695 7.75057 4.94356 7.73037C4.94275 7.72019 4.94135 7.70806 4.92973 7.70439C4.91996 7.70131 4.91416 7.69888 4.90436 7.69888H4.86592ZM6.11523 7.75715C6.10334 7.75828 6.10677 7.7689 6.10677 7.77841C6.10677 7.79745 6.09472 7.88885 6.10677 7.89888C6.13536 7.9227 6.18739 7.9353 6.16136 7.98865C6.1507 8.01047 6.23904 8.0233 6.249 8.0233C6.2503 7.99104 6.25284 8.0008 6.25284 7.97211C6.25284 7.95951 6.25517 7.94778 6.24439 7.94613C6.21334 7.94138 6.21739 7.91298 6.20672 7.87762C6.19739 7.84669 6.18384 7.84486 6.1775 7.83038C6.16274 7.79661 6.16316 7.75255 6.11523 7.75715ZM7.92423 7.90046C7.92185 7.90005 7.9195 7.90048 7.91731 7.90124C7.91193 7.90845 7.90833 7.92137 7.91654 7.92802C7.92386 7.93403 7.92899 7.94628 7.94038 7.9414C7.94577 7.9403 7.9511 7.94068 7.95652 7.9414C7.95624 7.93987 7.95555 7.93834 7.95576 7.93668C7.95699 7.92721 7.95108 7.9181 7.94345 7.91306C7.93898 7.90785 7.93136 7.90169 7.92423 7.90046L7.92423 7.90046ZM7.95652 7.9414C7.95812 7.95005 7.96537 7.95702 7.96728 7.96582C7.97613 7.97361 7.98653 7.98165 7.99881 7.98078C7.99468 7.97584 7.99239 7.96935 7.98574 7.96739C7.9769 7.96151 7.9836 7.94176 7.96959 7.94298C7.96522 7.94256 7.96092 7.94199 7.95652 7.9414ZM21.2592 8.95247C21.2379 8.9504 21.1991 8.97302 21.1977 8.98396C21.1966 8.99254 21.2013 9.02058 21.1977 9.02648C21.1935 9.03334 21.1748 9.03646 21.17 9.04775C21.1665 9.05592 21.1838 9.09522 21.1908 9.09735C21.2188 9.10594 21.1781 9.14433 21.1839 9.15484C21.1898 9.16569 21.2646 9.16568 21.2815 9.16192C21.2918 9.15964 21.2981 9.15633 21.3023 9.15326C21.2955 9.15135 21.2902 9.14944 21.2884 9.14775C21.2817 9.14122 21.2901 9.12994 21.2815 9.12649C21.2779 9.12503 21.2643 9.12649 21.26 9.12649C21.2518 9.12649 21.2413 9.12288 21.2392 9.1194C21.2294 9.10336 21.2438 9.10073 21.2185 9.09735C21.2152 9.09693 21.2061 9.09175 21.2046 9.09027C21.1905 9.07583 21.2012 9.06137 21.2046 9.04775C21.206 9.04221 21.2072 9.03715 21.2115 9.03357C21.2252 9.02238 21.2122 9.02185 21.2185 9.00522C21.2228 8.99372 21.2338 8.98541 21.2461 8.98396C21.2556 8.98286 21.2728 8.97907 21.2823 8.98081C21.2771 8.96951 21.2713 8.95845 21.2669 8.95562C21.2647 8.95423 21.2622 8.95276 21.2592 8.95247ZM21.2884 8.9942L21.2892 8.99578C21.288 8.99505 21.2881 8.99495 21.2884 8.9942ZM21.3238 9.01389C21.3286 9.01793 21.3329 9.02244 21.3368 9.02648C21.3502 9.04014 21.3488 9.0456 21.3507 9.06901L21.3707 9.11389C21.3837 9.09541 21.3561 9.08974 21.3714 9.06192C21.3749 9.05567 21.4048 9.05956 21.3922 9.02648C21.3842 9.00553 21.3604 9.02835 21.3438 9.0194C21.3402 9.01746 21.3324 9.01566 21.3238 9.01389H21.3238ZM21.3199 9.1572C21.3226 9.16926 21.3243 9.18665 21.3368 9.18318C21.3462 9.1806 21.3511 9.1721 21.3538 9.16192C21.351 9.16218 21.3477 9.16234 21.3438 9.16192C21.34 9.16153 21.3303 9.15944 21.3199 9.1572ZM23.2765 9.61942C23.2545 9.62061 23.2264 9.6364 23.2066 9.64147C23.1519 9.65543 23.1049 9.67078 23.0505 9.67375C23.044 9.67454 23.0366 9.67454 23.0298 9.67454C23.012 9.67454 22.9683 9.66836 22.9536 9.67769C22.921 9.69857 22.9566 9.69816 22.989 9.69816C23.0097 9.69816 23.0299 9.69799 23.0498 9.69738C23.0996 9.69585 23.1475 9.69197 23.1951 9.6832C23.2395 9.675 23.2548 9.64848 23.3065 9.63832C23.3008 9.62319 23.2898 9.61871 23.2765 9.61942ZM23.5303 9.64856C23.5288 9.64902 23.5279 9.65238 23.5279 9.66037V9.67927C23.5279 9.69224 23.5235 9.69437 23.531 9.7021C23.5323 9.7034 23.5319 9.7033 23.5333 9.70446C23.5403 9.71027 23.5387 9.70503 23.5387 9.71864C23.5387 9.73683 23.5416 9.72719 23.5579 9.72651C23.5615 9.72636 23.5652 9.72725 23.5687 9.72651C23.5734 9.72551 23.5741 9.70751 23.5741 9.7021L23.5579 9.69344C23.5523 9.69344 23.5504 9.69059 23.5472 9.68793C23.5415 9.68328 23.5418 9.67955 23.5418 9.67139C23.5418 9.66485 23.5444 9.65344 23.5387 9.6517C23.5339 9.65022 23.5318 9.64809 23.5303 9.64855V9.64856ZM23.5718 9.79029C23.5666 9.79203 23.5614 9.80071 23.5633 9.80998C23.564 9.81307 23.5706 9.82065 23.5718 9.82179C23.5781 9.82798 23.5784 9.83784 23.5795 9.8462C23.5796 9.84732 23.5861 9.86016 23.5879 9.86037C23.597 9.86143 23.6056 9.86238 23.6148 9.86352C23.6227 9.8645 23.6269 9.86525 23.6287 9.85801L23.6148 9.85171C23.5943 9.8447 23.6087 9.85383 23.6041 9.83833C23.603 9.83465 23.6005 9.83306 23.5987 9.82967C23.5953 9.82306 23.5924 9.82159 23.5902 9.81313C23.5893 9.80956 23.5925 9.80495 23.5902 9.8021C23.5839 9.79431 23.5823 9.8064 23.5795 9.79659C23.5779 9.7912 23.5749 9.78925 23.5718 9.79029ZM9.10051 9.96195C9.09772 9.96173 9.09463 9.9624 9.09205 9.96274C9.08494 9.96373 9.07666 9.96068 9.07052 9.96589C9.06391 9.96871 9.06633 9.97675 9.06976 9.98085C9.07002 9.98642 9.06793 9.9933 9.07283 9.99739C9.08044 10.0039 9.08381 10.0138 9.08821 10.0226C9.09548 10.0129 9.1063 10.0046 9.1082 9.99187C9.10916 9.98344 9.10879 9.97427 9.10743 9.96589C9.10577 9.96319 9.1033 9.96217 9.10051 9.96195L9.10051 9.96195ZM8.48008 9.99739C8.47219 9.99905 8.46387 10.0044 8.46086 10.0123C8.45868 10.0201 8.46534 10.0259 8.4647 10.0336C8.46533 10.043 8.46598 10.0524 8.46932 10.0612C8.4705 10.0649 8.47244 10.0686 8.47393 10.0722C8.48693 10.0709 8.49916 10.065 8.51237 10.0675C8.51989 10.0637 8.51878 10.054 8.52083 10.047C8.52296 10.0395 8.52675 10.029 8.51929 10.0234C8.51189 10.0196 8.51188 10.0079 8.50314 10.006C8.49577 10.0026 8.489 9.99481 8.48008 9.99739ZM8.56772 10.0911C8.52734 10.0935 8.47854 10.1099 8.47854 10.1415C8.47854 10.1821 8.47655 10.2624 8.53159 10.2407C8.56247 10.2286 8.59667 10.278 8.58464 10.2998C8.56747 10.3309 8.57794 10.3378 8.61923 10.3352C8.65722 10.3328 8.64307 10.3105 8.64307 10.3596C8.64307 10.3683 8.66848 10.4007 8.67689 10.4045C8.68913 10.41 8.68448 10.3785 8.68689 10.3746C8.69147 10.3671 8.70212 10.3718 8.70611 10.3596C8.71376 10.356 8.73655 10.3481 8.73994 10.3446C8.74221 10.3423 8.74206 10.342 8.74455 10.3399C8.74831 10.3368 8.74981 10.3362 8.75454 10.3352C8.7577 10.3346 8.75616 10.3309 8.75916 10.3297C8.77187 10.3246 8.77634 10.333 8.77838 10.3147C8.7807 10.2941 8.77188 10.2998 8.75454 10.2998H8.73994C8.73193 10.2998 8.73017 10.3013 8.72994 10.3021C8.72948 10.301 8.72816 10.2986 8.72533 10.295C8.71864 10.2866 8.72072 10.2899 8.72072 10.2706C8.72072 10.247 8.67196 10.2557 8.65306 10.2557C8.64338 10.2104 8.64185 10.1838 8.6669 10.1809C8.67728 10.1796 8.68717 10.1673 8.66229 10.1714C8.64437 10.1744 8.62846 10.2079 8.62846 10.1809C8.62846 10.17 8.62981 10.1569 8.62846 10.1462C8.6276 10.1394 8.62401 10.1091 8.61923 10.1021C8.61339 10.0935 8.59195 10.0897 8.56772 10.0911V10.0911ZM15.414 10.2053C15.4078 10.2061 15.4096 10.2136 15.4101 10.2202C15.4104 10.2233 15.4109 10.2281 15.414 10.2281H15.4178V10.232H15.4216C15.4304 10.2333 15.4394 10.2319 15.4478 10.236C15.4459 10.2238 15.4518 10.2212 15.4478 10.2171C15.446 10.2153 15.4423 10.2183 15.4401 10.2171C15.4307 10.2116 15.4423 10.2092 15.4286 10.2092C15.4261 10.2092 15.4238 10.2106 15.4216 10.2092C15.4182 10.207 15.4251 10.2038 15.414 10.2053ZM15.6953 10.258C15.6894 10.2579 15.6836 10.2579 15.6807 10.2588C15.6784 10.2596 15.6807 10.2641 15.6807 10.2667C15.6807 10.2767 15.6816 10.2875 15.6807 10.2974C15.6802 10.3032 15.6755 10.3039 15.6769 10.3092C15.6777 10.3122 15.679 10.3145 15.6807 10.3171C15.6825 10.3196 15.6872 10.3182 15.6884 10.321C15.6907 10.3262 15.6885 10.3318 15.6923 10.336C15.6939 10.3379 15.6949 10.3377 15.6961 10.3399C15.6976 10.3426 15.6969 10.3476 15.7 10.3478C15.7029 10.3437 15.7111 10.3401 15.7107 10.332C15.7229 10.3102 15.7222 10.313 15.7222 10.3013C15.7222 10.2927 15.7228 10.2831 15.7222 10.2746C15.7216 10.2656 15.7207 10.2758 15.7184 10.2667C15.7168 10.2604 15.718 10.2597 15.7107 10.2588C15.7071 10.2584 15.7012 10.2582 15.6953 10.258ZM8.80452 10.3785C8.79639 10.3776 8.78773 10.3845 8.78299 10.3911C8.77524 10.3932 8.76956 10.4007 8.77299 10.41C8.77583 10.4248 8.75653 10.4316 8.74532 10.4352C8.73497 10.4318 8.73874 10.4432 8.74301 10.447C8.75019 10.4598 8.76631 10.4548 8.77684 10.4502C8.79251 10.4427 8.79575 10.4635 8.78914 10.4738C8.77982 10.485 8.79867 10.4938 8.80221 10.4801C8.81248 10.47 8.82793 10.4738 8.84065 10.4746C8.85318 10.4734 8.85777 10.4592 8.86064 10.4486C8.86134 10.4458 8.86131 10.4432 8.85987 10.4407C8.84986 10.4318 8.8353 10.4285 8.82605 10.4179C8.81234 10.4111 8.81909 10.3929 8.81221 10.3824C8.80981 10.3803 8.80723 10.3788 8.80452 10.3785H8.80452ZM23.6586 10.425C23.657 10.4523 23.6299 10.4483 23.6071 10.4502C23.5768 10.4526 23.5682 10.4754 23.5387 10.4754C23.5212 10.4754 23.4888 10.4797 23.4657 10.4809C23.4624 10.481 23.4637 10.5295 23.4572 10.5391C23.4465 10.5549 23.4477 10.5913 23.4495 10.6147C23.4525 10.6531 23.4994 10.6797 23.501 10.6982C23.5061 10.7554 23.5438 10.7151 23.5549 10.6951C23.5701 10.6675 23.5629 10.6254 23.5795 10.6084C23.6029 10.5844 23.5882 10.577 23.6256 10.5557C23.6421 10.5462 23.6421 10.5088 23.6471 10.4919C23.6528 10.4727 23.6891 10.4639 23.6586 10.425ZM19.4048 10.4769C19.405 10.4764 19.4038 10.4768 19.401 10.4785C19.3994 10.4795 19.3923 10.492 19.3918 10.4935C19.3915 10.4943 19.3914 10.5079 19.3918 10.5084C19.3935 10.5113 19.3931 10.5139 19.3964 10.5139H19.401C19.4071 10.5139 19.3965 10.5206 19.411 10.5187C19.4218 10.5172 19.4106 10.5172 19.4264 10.5187L19.441 10.4935C19.4455 10.4858 19.4346 10.488 19.431 10.488C19.4227 10.488 19.4146 10.4885 19.4064 10.488C19.3958 10.4873 19.4045 10.4786 19.4048 10.4769ZM19.7101 11.0848L19.7054 11.0903V11.1053C19.7054 11.1073 19.6967 11.104 19.6954 11.1155C19.6949 11.1208 19.697 11.1319 19.6954 11.136C19.6921 11.1447 19.672 11.1364 19.6801 11.151C19.6835 11.1573 19.6926 11.1583 19.6954 11.1612C19.6998 11.1656 19.691 11.1686 19.7054 11.1667C19.7087 11.1663 19.7069 11.1624 19.7101 11.1612C19.7169 11.1587 19.73 11.164 19.73 11.1565V11.151H19.7354C19.7402 11.151 19.74 11.1434 19.73 11.1155C19.7281 11.1071 19.7304 11.0974 19.7254 11.0903C19.7235 11.0876 19.7182 11.0921 19.7154 11.0903C19.7126 11.0885 19.7124 11.0824 19.7101 11.0848ZM5.21265 11.8849C5.21094 11.8851 5.20959 11.8856 5.20803 11.8864C5.20311 11.889 5.17955 11.9137 5.17651 11.9187C5.17461 11.9219 5.16755 11.9487 5.16575 11.951C5.15217 11.9681 5.14447 11.976 5.15576 11.9825C5.16485 11.9878 5.17696 11.9842 5.18728 11.9825C5.20612 11.9795 5.22223 11.9694 5.23956 11.9612C5.24371 11.957 5.23956 11.9356 5.23956 11.9077C5.23956 11.8897 5.24612 11.8887 5.22879 11.8864C5.22361 11.8857 5.21779 11.8842 5.21265 11.8849ZM4.24626 12.1187C4.24238 12.1189 4.23844 12.12 4.23549 12.1219C4.21877 12.1326 4.22656 12.1287 4.22473 12.1431C4.21948 12.1845 4.22926 12.1755 4.26701 12.2077C4.27948 12.1693 4.27701 12.1754 4.27701 12.1542C4.27701 12.147 4.28397 12.1329 4.27701 12.1329H4.26701L4.25625 12.1219C4.25379 12.1194 4.25013 12.1186 4.24626 12.1187ZM20.1736 12.2321C20.1498 12.2524 20.133 12.2597 20.1091 12.2786C20.0811 12.3006 20.0793 12.3074 20.0445 12.3093C20.0119 12.3111 19.9655 12.3345 19.9392 12.3494C19.9251 12.3574 19.9193 12.3759 19.9146 12.3904C19.9058 12.4172 20.0878 12.3592 20.0991 12.3494C20.1287 12.3239 20.1618 12.3333 20.189 12.299C20.1977 12.2881 20.202 12.2525 20.1736 12.2321ZM20.4473 12.2762C20.4558 12.276 20.4636 12.2762 20.4712 12.2762C20.4642 12.2762 20.4524 12.2766 20.4381 12.277C20.4412 12.2768 20.4443 12.2763 20.4473 12.2762ZM5.11962 12.2809C5.11687 12.2805 5.11225 12.2825 5.10348 12.2825C5.07528 12.2825 5.07238 12.2771 5.06119 12.2935C5.05557 12.3018 5.05029 12.3148 5.04043 12.3148H5.03044V12.325H5.01968H5.00891V12.3361H4.99892V12.3471V12.3573H5.00891V12.3683H5.04043C5.05987 12.3683 5.0512 12.3906 5.0512 12.4109C5.0512 12.4383 5.05225 12.4342 5.08272 12.4321C5.10053 12.4309 5.1176 12.426 5.135 12.4219C5.14026 12.3938 5.135 12.3996 5.135 12.3786V12.3683H5.12423C5.10608 12.3683 5.12693 12.3148 5.12423 12.2935C5.12311 12.2847 5.12238 12.2814 5.11962 12.2809ZM2.19277 12.3857C2.1908 12.3858 2.18846 12.3869 2.18585 12.3896L2.17509 12.4006C2.16915 12.4067 2.16722 12.4136 2.16509 12.4219C2.16006 12.4417 2.15313 12.4295 2.13357 12.4321C2.12869 12.4328 2.11499 12.4409 2.11282 12.4431C2.11207 12.4439 2.10279 12.4637 2.10205 12.4644V12.4754H2.11282L2.12281 12.4857C2.13971 12.503 2.13544 12.4962 2.16509 12.5069C2.20634 12.4718 2.20865 12.4898 2.20661 12.4534C2.20585 12.4397 2.20659 12.385 2.19277 12.3857Z" fill="white"/>
</svg>
